<svg width="32" height="33" viewBox="0 0 32 33" fill="none" xmlns="http://www.w3.org/2000/svg">
<path d="M17.8276 11.9484C18.7254 13.6922 19.495 15.5006 20.2004 17.309C24.3687 16.2111 28.6012 16.1465 31.9359 17.1798C31.9359 16.8569 32 16.4694 32 16.1465C32 11.9484 30.3968 8.07323 27.7675 5.23145C25.7795 8.07323 22.1884 10.3337 17.8276 11.9484Z" fill="white"/>
<path d="M16.2886 11.3027C14.2365 7.49209 11.8637 4.13362 9.29859 1.4856C4.42485 3.81069 0.897794 8.46088 0.192383 13.9507C5.4509 13.8861 11.2866 12.9819 16.2886 11.3027Z" fill="white"/>
<path d="M17.3787 10.915C21.6753 9.36497 25.2023 7.16904 27.0621 4.39185C24.1763 1.67924 20.2645 0 16.032 0C14.044 0 12.1202 0.387516 10.3246 1.09796C12.9538 3.74599 15.3266 7.16904 17.3787 10.915Z" fill="white"/>
<path d="M31.8718 18.278C28.6654 17.18 24.6253 17.2446 20.5852 18.278C22.0602 22.3469 23.0862 26.545 23.4068 30.4201C27.96 28.0304 31.2305 23.574 31.8718 18.278Z" fill="white"/>
<path d="M19.1743 17.5674C18.4689 15.759 17.6994 14.0152 16.8016 12.2714C11.6072 14.0152 5.57916 14.984 0.0641282 15.0486C0 15.4361 0 15.759 0 16.1465C0 20.7967 1.98798 24.9948 5.06613 27.9012C8.14429 22.7989 13.5952 19.3112 19.1743 17.5674Z" fill="white"/>
<path d="M19.5591 18.5361C14.1082 20.2154 8.78555 23.6384 5.89978 28.6761C8.6573 30.9366 12.1843 32.2929 16.032 32.2929C18.2765 32.2929 20.4569 31.8408 22.4449 30.9366C22.1242 27.0615 21.0982 22.7342 19.5591 18.5361Z" fill="white"/>
</svg>
