<svg width="33" height="33" viewBox="0 0 33 33" fill="none" xmlns="http://www.w3.org/2000/svg">
<path d="M16.3516 0C7.33892 0 0 7.33892 0 16.3516C0 23.8193 5.08575 30.3213 12.3603 32.1883C12.5534 32.2526 12.6822 32.1883 12.8109 32.0595C12.9397 31.9308 13.0041 31.802 13.0041 31.6089V27.7463C13.0041 27.6175 12.9397 27.4888 12.8753 27.36C12.7466 27.2313 12.6178 27.1669 12.489 27.1669H11.3946C9.65648 27.1669 8.56208 25.5575 7.59643 24.0768C7.4033 23.8193 7.27455 23.5618 7.08142 23.3043C7.72518 23.6262 8.17582 24.1412 8.69083 24.5918C9.46335 25.3 10.2359 26.0725 11.459 26.0725C11.974 26.0081 13.0684 25.4931 13.0684 23.8837V23.3687C13.0684 23.1112 12.8753 22.918 12.6822 22.8537C9.01271 21.8236 6.5664 18.8623 6.5664 15.5147C6.5664 13.841 7.33892 12.0384 8.56208 10.7509C8.69083 10.5577 8.75521 10.3646 8.69083 10.1715C8.17582 9.07709 8.69083 7.59643 9.46335 6.69516C10.2359 7.01704 11.0084 7.85393 11.5878 8.56208C11.7165 8.75521 11.974 8.81958 12.1672 8.69083L12.4247 8.56208C13.6478 8.11144 14.9997 7.59643 16.2873 7.59643C17.5748 7.59643 18.9911 8.11144 20.1499 8.56208L20.4074 8.69083C20.6005 8.75521 20.858 8.69083 20.9867 8.56208C21.5661 7.85393 22.3387 7.01704 23.1112 6.69516C23.8837 7.59643 24.3987 9.07709 23.8837 10.1715C23.8193 10.3646 23.8193 10.6221 24.0124 10.7509C25.3643 12.1672 26.0081 13.6478 26.0081 15.2572C26.0081 18.8623 23.2399 22.0168 19.3773 22.918C19.1842 22.9824 19.0555 23.0468 18.9911 23.2399C18.9267 23.3687 18.9267 23.5618 18.9911 23.6906C19.313 24.2699 19.4417 25.3643 19.4417 26.7163C19.4417 28.5832 19.4417 31.6732 19.4417 31.6732C19.4417 31.8664 19.5061 31.9951 19.6348 32.1239C19.7636 32.1883 19.828 32.2526 19.9567 32.2526C20.0211 32.2526 20.0211 32.2526 20.0855 32.2526C27.5532 30.3857 32.6389 23.8193 32.6389 16.3516C32.6389 7.33892 25.3 0 16.3516 0Z" fill="white"/>
</svg>
