<svg width="32" height="33" viewBox="0 0 32 33" fill="none" xmlns="http://www.w3.org/2000/svg">
<path fill-rule="evenodd" clip-rule="evenodd" d="M28.4443 0C30.408 0 31.9999 1.60344 32 3.58105V28.6475C32 30.6252 30.408 32.2285 28.4443 32.2285H3.55566C1.59198 32.2285 0 30.6252 0 28.6475V3.58105C8.66112e-05 1.60344 1.59204 0 3.55566 0H28.4443ZM4.90332 27.7529H9.6748V12.2354H4.90332V27.7529ZM21.9482 11.7607C18.6992 11.7607 17.3199 14.2935 17.3027 14.3252V12.2354H12.7256V27.7529H17.3027V19.6064C17.3029 17.4242 18.2999 16.1251 20.209 16.125C21.964 16.125 22.8065 17.3734 22.8066 19.6064V27.7529H27.5557V17.9277C27.5556 13.7711 25.216 11.7609 21.9482 11.7607ZM7.2666 4.47656C5.70781 4.47656 4.44434 5.75858 4.44434 7.33984C4.44434 8.92112 5.70781 10.2031 7.2666 10.2031C8.82529 10.203 10.0879 8.92104 10.0879 7.33984C10.0879 5.75865 8.82529 4.47668 7.2666 4.47656Z" fill="white"/>
</svg>
