<svg width="1843" height="2683" viewBox="0 0 1843 2683" fill="none" xmlns="http://www.w3.org/2000/svg">
<path opacity="0.6" d="M1268.14 2549.92C1267.44 2549.25 1266.34 2549.27 1265.67 2549.97C1265.01 2550.66 1265.03 2551.76 1265.72 2552.43C1266.41 2553.1 1267.51 2553.08 1268.18 2552.38C1268.85 2551.69 1268.83 2550.59 1268.14 2549.92Z" fill="white"/>
<path opacity="0.35" d="M1487.71 2477.67C1487.23 2477.67 1486.84 2478.06 1486.84 2478.54C1486.84 2479.02 1487.23 2479.41 1487.71 2479.41C1488.19 2479.41 1488.58 2479.02 1488.58 2478.54C1488.58 2478.06 1488.19 2477.67 1487.71 2477.67Z" fill="white"/>
<path opacity="0.35" d="M1374.5 2321.01C1374.02 2321.01 1373.63 2321.4 1373.63 2321.88C1373.63 2322.36 1374.02 2322.75 1374.5 2322.75C1374.98 2322.75 1375.37 2322.36 1375.37 2321.88C1375.37 2321.4 1374.98 2321.01 1374.5 2321.01Z" fill="white"/>
<path opacity="0.35" d="M1008.75 2390.64C1008.27 2390.64 1007.88 2391.03 1007.88 2391.51C1007.88 2391.99 1008.27 2392.38 1008.75 2392.38C1009.23 2392.38 1009.62 2391.99 1009.62 2391.51C1009.62 2391.03 1009.23 2390.64 1008.75 2390.64Z" fill="white"/>
<path opacity="0.35" d="M782.333 2373.23C781.852 2373.23 781.462 2373.62 781.462 2374.1C781.462 2374.58 781.852 2374.97 782.333 2374.97C782.814 2374.97 783.204 2374.58 783.204 2374.1C783.204 2373.62 782.814 2373.23 782.333 2373.23Z" fill="white"/>
<path opacity="0.35" d="M521.083 2547.3C520.602 2547.3 520.212 2547.69 520.212 2548.17C520.212 2548.65 520.602 2549.04 521.083 2549.04C521.564 2549.04 521.954 2548.65 521.954 2548.17C521.954 2547.69 521.564 2547.3 521.083 2547.3Z" fill="white"/>
<path opacity="0.35" d="M277.25 2442.86C276.769 2442.86 276.379 2443.25 276.379 2443.73C276.379 2444.21 276.769 2444.6 277.25 2444.6C277.731 2444.6 278.121 2444.21 278.121 2443.73C278.121 2443.25 277.731 2442.86 277.25 2442.86Z" fill="white"/>
<path opacity="0.35" d="M1520.92 2520.64C1520.44 2520.64 1520.05 2521.03 1520.05 2521.51C1520.05 2521.99 1520.44 2522.38 1520.92 2522.38C1521.4 2522.38 1521.79 2521.99 1521.79 2521.51C1521.79 2521.03 1521.4 2520.64 1520.92 2520.64Z" fill="white"/>
<path opacity="0.35" d="M1407.71 2137.67C1407.23 2137.67 1406.84 2138.06 1406.84 2138.54C1406.84 2139.02 1407.23 2139.41 1407.71 2139.41C1408.19 2139.41 1408.58 2139.02 1408.58 2138.54C1408.58 2138.06 1408.19 2137.67 1407.71 2137.67Z" fill="white"/>
<path opacity="0.35" d="M1294.5 1981.01C1294.02 1981.01 1293.63 1981.4 1293.63 1981.88C1293.63 1982.36 1294.02 1982.75 1294.5 1982.75C1294.98 1982.75 1295.37 1982.36 1295.37 1981.88C1295.37 1981.4 1294.98 1981.01 1294.5 1981.01Z" fill="white"/>
<path opacity="0.35" d="M1155.17 2633.78C1154.69 2633.78 1154.3 2634.17 1154.3 2634.65C1154.3 2635.14 1154.69 2635.52 1155.17 2635.52C1155.65 2635.52 1156.04 2635.14 1156.04 2634.65C1156.04 2634.17 1155.65 2633.78 1155.17 2633.78Z" fill="white"/>
<path opacity="0.35" d="M1033.25 2346.56C1032.77 2346.56 1032.38 2346.95 1032.38 2347.43C1032.38 2347.91 1032.77 2348.3 1033.25 2348.3C1033.73 2348.3 1034.12 2347.91 1034.12 2347.43C1034.12 2346.95 1033.73 2346.56 1033.25 2346.56Z" fill="white"/>
<path opacity="0.35" d="M928.75 2050.64C928.269 2050.64 927.879 2051.03 927.879 2051.51C927.879 2051.99 928.269 2052.38 928.75 2052.38C929.231 2052.38 929.621 2051.99 929.621 2051.51C929.621 2051.03 929.231 2050.64 928.75 2050.64Z" fill="white"/>
<path opacity="0.35" d="M702.333 2033.23C701.852 2033.23 701.462 2033.62 701.462 2034.1C701.462 2034.58 701.852 2034.97 702.333 2034.97C702.814 2034.97 703.204 2034.58 703.204 2034.1C703.204 2033.62 702.814 2033.23 702.333 2033.23Z" fill="white"/>
<path opacity="0.35" d="M580.416 2607.67C579.935 2607.67 579.546 2608.06 579.546 2608.54C579.546 2609.02 579.935 2609.41 580.416 2609.41C580.897 2609.41 581.287 2609.02 581.287 2608.54C581.287 2608.06 580.897 2607.67 580.416 2607.67Z" fill="white"/>
<path opacity="0.35" d="M441.083 2207.3C440.602 2207.3 440.212 2207.69 440.212 2208.17C440.212 2208.65 440.602 2209.04 441.083 2209.04C441.564 2209.04 441.954 2208.65 441.954 2208.17C441.954 2207.69 441.564 2207.3 441.083 2207.3Z" fill="white"/>
<path opacity="0.35" d="M284.333 2442.3C283.852 2442.3 283.462 2442.69 283.462 2443.17C283.462 2443.65 283.852 2444.04 284.333 2444.04C284.814 2444.04 285.204 2443.65 285.204 2443.17C285.204 2442.69 284.814 2442.3 284.333 2442.3Z" fill="white"/>
<path opacity="0.35" d="M197.25 2102.86C196.769 2102.86 196.379 2103.25 196.379 2103.73C196.379 2104.21 196.769 2104.6 197.25 2104.6C197.731 2104.6 198.121 2104.21 198.121 2103.73C198.121 2103.25 197.731 2102.86 197.25 2102.86Z" fill="white"/>
<path opacity="0.6" d="M1304.83 2389.77C1303.87 2389.77 1303.09 2390.54 1303.09 2391.51C1303.09 2392.47 1303.87 2393.25 1304.83 2393.25C1305.79 2393.25 1306.57 2392.47 1306.57 2391.51C1306.57 2390.54 1305.79 2389.77 1304.83 2389.77Z" fill="white"/>
<path opacity="0.6" d="M677.833 2494.21C676.871 2494.21 676.091 2494.99 676.091 2495.95C676.091 2496.91 676.871 2497.69 677.833 2497.69C678.795 2497.69 679.575 2496.91 679.575 2495.95C679.575 2494.99 678.795 2494.21 677.833 2494.21Z" fill="white"/>
<path opacity="0.9" d="M646.899 2678.74C647.53 2676.8 646.951 2674.06 645.605 2672.6C644.259 2671.14 642.656 2671.52 642.025 2673.45C641.394 2675.38 641.973 2678.13 643.319 2679.59C644.665 2681.05 646.268 2680.67 646.899 2678.74Z" fill="white"/>
<path d="M588.182 2410.22C588.813 2408.28 588.234 2405.54 586.888 2404.08C585.542 2402.62 583.939 2403 583.308 2404.93C582.676 2406.86 583.256 2409.61 584.602 2411.07C585.948 2412.53 587.55 2412.15 588.182 2410.22Z" fill="#00F0FF"/>
<path opacity="0.35" d="M1675.42 2032.12C1674.94 2032.12 1674.55 2032.51 1674.55 2032.99C1674.55 2033.47 1674.94 2033.86 1675.42 2033.86C1675.9 2033.86 1676.29 2033.47 1676.29 2032.99C1676.29 2032.51 1675.9 2032.12 1675.42 2032.12Z" fill="white"/>
<path opacity="0.35" d="M1570.92 1840.64C1570.44 1840.64 1570.05 1841.03 1570.05 1841.51C1570.05 1841.99 1570.44 1842.38 1570.92 1842.38C1571.4 1842.38 1571.79 1841.99 1571.79 1841.51C1571.79 1841.03 1571.4 1840.64 1570.92 1840.64Z" fill="white"/>
<path opacity="0.35" d="M1457.71 1457.67C1457.23 1457.67 1456.84 1458.06 1456.84 1458.54C1456.84 1459.02 1457.23 1459.41 1457.71 1459.41C1458.19 1459.41 1458.58 1459.02 1458.58 1458.54C1458.58 1458.06 1458.19 1457.67 1457.71 1457.67Z" fill="white"/>
<path opacity="0.35" d="M1344.5 1301.01C1344.02 1301.01 1343.63 1301.4 1343.63 1301.88C1343.63 1302.36 1344.02 1302.75 1344.5 1302.75C1344.98 1302.75 1345.37 1302.36 1345.37 1301.88C1345.37 1301.4 1344.98 1301.01 1344.5 1301.01Z" fill="white"/>
<path opacity="0.35" d="M1205.17 1953.78C1204.69 1953.78 1204.3 1954.17 1204.3 1954.65C1204.3 1955.13 1204.69 1955.52 1205.17 1955.52C1205.65 1955.52 1206.04 1955.13 1206.04 1954.65C1206.04 1954.17 1205.65 1953.78 1205.17 1953.78Z" fill="white"/>
<path opacity="0.35" d="M1083.25 1666.56C1082.77 1666.56 1082.38 1666.95 1082.38 1667.43C1082.38 1667.91 1082.77 1668.3 1083.25 1668.3C1083.73 1668.3 1084.12 1667.91 1084.12 1667.43C1084.12 1666.95 1083.73 1666.56 1083.25 1666.56Z" fill="white"/>
<path opacity="0.35" d="M978.75 1370.64C978.269 1370.64 977.879 1371.03 977.879 1371.51C977.879 1371.99 978.269 1372.38 978.75 1372.38C979.231 1372.38 979.621 1371.99 979.621 1371.51C979.621 1371.03 979.231 1370.64 978.75 1370.64Z" fill="white"/>
<path opacity="0.35" d="M891.666 2014.71C891.185 2014.71 890.796 2015.1 890.796 2015.58C890.796 2016.06 891.185 2016.45 891.666 2016.45C892.147 2016.45 892.537 2016.06 892.537 2015.58C892.537 2015.1 892.147 2014.71 891.666 2014.71Z" fill="white"/>
<path opacity="0.35" d="M752.333 1353.23C751.852 1353.23 751.462 1353.62 751.462 1354.1C751.462 1354.58 751.852 1354.97 752.333 1354.97C752.814 1354.97 753.204 1354.58 753.204 1354.1C753.204 1353.62 752.814 1353.23 752.333 1353.23Z" fill="white"/>
<path opacity="0.35" d="M630.416 1927.67C629.935 1927.67 629.546 1928.06 629.546 1928.54C629.546 1929.02 629.935 1929.41 630.416 1929.41C630.897 1929.41 631.287 1929.02 631.287 1928.54C631.287 1928.06 630.897 1927.67 630.416 1927.67Z" fill="white"/>
<path opacity="0.35" d="M491.083 1527.3C490.602 1527.3 490.212 1527.69 490.212 1528.17C490.212 1528.65 490.602 1529.04 491.083 1529.04C491.564 1529.04 491.954 1528.65 491.954 1528.17C491.954 1527.69 491.564 1527.3 491.083 1527.3Z" fill="white"/>
<path opacity="0.35" d="M334.333 1762.3C333.852 1762.3 333.462 1762.69 333.462 1763.17C333.462 1763.65 333.852 1764.04 334.333 1764.04C334.814 1764.04 335.204 1763.65 335.204 1763.17C335.204 1762.69 334.814 1762.3 334.333 1762.3Z" fill="white"/>
<path opacity="0.35" d="M247.25 1422.86C246.769 1422.86 246.379 1423.25 246.379 1423.73C246.379 1424.21 246.769 1424.6 247.25 1424.6C247.731 1424.6 248.121 1424.21 248.121 1423.73C248.121 1423.25 247.731 1422.86 247.25 1422.86Z" fill="white"/>
<path opacity="0.6" d="M1626.35 2501.3C1625.65 2500.64 1624.55 2500.66 1623.88 2501.35C1623.22 2502.04 1623.24 2503.14 1623.93 2503.81C1624.62 2504.48 1625.73 2504.46 1626.39 2503.77C1627.06 2503.07 1627.04 2501.97 1626.35 2501.3Z" fill="white"/>
<path opacity="0.6" d="M1260.43 2027.66C1259.74 2026.99 1258.63 2027.01 1257.97 2027.7C1257.3 2028.39 1257.32 2029.5 1258.01 2030.16C1258.7 2030.83 1259.81 2030.81 1260.47 2030.12C1261.14 2029.43 1261.12 2028.33 1260.43 2027.66Z" fill="white"/>
<path opacity="0.6" d="M1325.14 1533.92C1324.44 1533.25 1323.34 1533.27 1322.67 1533.97C1322.01 1534.66 1322.03 1535.76 1322.72 1536.43C1323.41 1537.1 1324.51 1537.08 1325.18 1536.38C1325.85 1535.69 1325.83 1534.59 1325.14 1533.92Z" fill="white"/>
<path opacity="0.6" d="M736.536 1667.69C735.844 1667.02 734.741 1667.04 734.074 1667.74C733.407 1668.43 733.427 1669.53 734.12 1670.2C734.812 1670.87 735.915 1670.85 736.582 1670.15C737.249 1669.46 737.229 1668.36 736.536 1667.69Z" fill="white"/>
<path opacity="0.35" d="M1657.92 1844.64C1657.44 1844.64 1657.05 1845.03 1657.05 1845.51C1657.05 1845.99 1657.44 1846.38 1657.92 1846.38C1658.4 1846.38 1658.79 1845.99 1658.79 1845.51C1658.79 1845.03 1658.4 1844.64 1657.92 1844.64Z" fill="white"/>
<path opacity="0.35" d="M1544.71 1461.67C1544.23 1461.67 1543.84 1462.06 1543.84 1462.54C1543.84 1463.02 1544.23 1463.41 1544.71 1463.41C1545.19 1463.41 1545.58 1463.02 1545.58 1462.54C1545.58 1462.06 1545.19 1461.67 1544.71 1461.67Z" fill="white"/>
<path opacity="0.35" d="M1431.5 1305.01C1431.02 1305.01 1430.63 1305.4 1430.63 1305.88C1430.63 1306.36 1431.02 1306.75 1431.5 1306.75C1431.98 1306.75 1432.37 1306.36 1432.37 1305.88C1432.37 1305.4 1431.98 1305.01 1431.5 1305.01Z" fill="white"/>
<path opacity="0.35" d="M1292.17 1957.78C1291.69 1957.78 1291.3 1958.17 1291.3 1958.65C1291.3 1959.13 1291.69 1959.52 1292.17 1959.52C1292.65 1959.52 1293.04 1959.13 1293.04 1958.65C1293.04 1958.17 1292.65 1957.78 1292.17 1957.78Z" fill="white"/>
<path opacity="0.35" d="M1170.25 1670.56C1169.77 1670.56 1169.38 1670.95 1169.38 1671.43C1169.38 1671.91 1169.77 1672.3 1170.25 1672.3C1170.73 1672.3 1171.12 1671.91 1171.12 1671.43C1171.12 1670.95 1170.73 1670.56 1170.25 1670.56Z" fill="white"/>
<path opacity="0.35" d="M1065.75 1374.64C1065.27 1374.64 1064.88 1375.03 1064.88 1375.51C1064.88 1375.99 1065.27 1376.38 1065.75 1376.38C1066.23 1376.38 1066.62 1375.99 1066.62 1375.51C1066.62 1375.03 1066.23 1374.64 1065.75 1374.64Z" fill="white"/>
<path opacity="0.35" d="M978.666 2018.71C978.185 2018.71 977.795 2019.1 977.795 2019.58C977.795 2020.06 978.185 2020.45 978.666 2020.45C979.147 2020.45 979.537 2020.06 979.537 2019.58C979.537 2019.1 979.147 2018.71 978.666 2018.71Z" fill="white"/>
<path opacity="0.35" d="M839.333 1357.23C838.852 1357.23 838.462 1357.62 838.462 1358.1C838.462 1358.58 838.852 1358.97 839.333 1358.97C839.814 1358.97 840.204 1358.58 840.204 1358.1C840.204 1357.62 839.814 1357.23 839.333 1357.23Z" fill="white"/>
<path opacity="0.35" d="M717.416 1931.67C716.935 1931.67 716.545 1932.06 716.545 1932.54C716.545 1933.02 716.935 1933.41 717.416 1933.41C717.897 1933.41 718.287 1933.02 718.287 1932.54C718.287 1932.06 717.897 1931.67 717.416 1931.67Z" fill="white"/>
<path opacity="0.35" d="M578.083 1531.3C577.602 1531.3 577.212 1531.69 577.212 1532.17C577.212 1532.65 577.602 1533.04 578.083 1533.04C578.564 1533.04 578.954 1532.65 578.954 1532.17C578.954 1531.69 578.564 1531.3 578.083 1531.3Z" fill="white"/>
<path opacity="0.35" d="M421.333 1766.3C420.852 1766.3 420.462 1766.69 420.462 1767.17C420.462 1767.65 420.852 1768.04 421.333 1768.04C421.814 1768.04 422.204 1767.65 422.204 1767.17C422.204 1766.69 421.814 1766.3 421.333 1766.3Z" fill="white"/>
<path opacity="0.35" d="M334.25 1426.86C333.769 1426.86 333.379 1427.25 333.379 1427.73C333.379 1428.21 333.769 1428.6 334.25 1428.6C334.731 1428.6 335.12 1428.21 335.12 1427.73C335.12 1427.25 334.731 1426.86 334.25 1426.86Z" fill="white"/>
<path opacity="0.35" d="M1682.42 1696.12C1681.94 1696.12 1681.55 1696.51 1681.55 1696.99C1681.55 1697.47 1681.94 1697.86 1682.42 1697.86C1682.9 1697.86 1683.29 1697.47 1683.29 1696.99C1683.29 1696.51 1682.9 1696.12 1682.42 1696.12Z" fill="white"/>
<path opacity="0.35" d="M1577.92 1504.64C1577.44 1504.64 1577.05 1505.03 1577.05 1505.51C1577.05 1505.99 1577.44 1506.38 1577.92 1506.38C1578.4 1506.38 1578.79 1505.99 1578.79 1505.51C1578.79 1505.03 1578.4 1504.64 1577.92 1504.64Z" fill="white"/>
<path opacity="0.35" d="M1464.71 1121.67C1464.23 1121.67 1463.84 1122.06 1463.84 1122.54C1463.84 1123.02 1464.23 1123.41 1464.71 1123.41C1465.19 1123.41 1465.58 1123.02 1465.58 1122.54C1465.58 1122.06 1465.19 1121.67 1464.71 1121.67Z" fill="white"/>
<path opacity="0.35" d="M1351.5 965.006C1351.02 965.006 1350.63 965.396 1350.63 965.876C1350.63 966.357 1351.02 966.747 1351.5 966.747C1351.98 966.747 1352.37 966.357 1352.37 965.876C1352.37 965.396 1351.98 965.006 1351.5 965.006Z" fill="white"/>
<path opacity="0.35" d="M1212.17 1617.78C1211.69 1617.78 1211.3 1618.17 1211.3 1618.65C1211.3 1619.13 1211.69 1619.52 1212.17 1619.52C1212.65 1619.52 1213.04 1619.13 1213.04 1618.65C1213.04 1618.17 1212.65 1617.78 1212.17 1617.78Z" fill="white"/>
<path opacity="0.35" d="M1090.25 1330.56C1089.77 1330.56 1089.38 1330.95 1089.38 1331.43C1089.38 1331.91 1089.77 1332.3 1090.25 1332.3C1090.73 1332.3 1091.12 1331.91 1091.12 1331.43C1091.12 1330.95 1090.73 1330.56 1090.25 1330.56Z" fill="white"/>
<path opacity="0.35" d="M985.75 1034.64C985.269 1034.64 984.879 1035.03 984.879 1035.51C984.879 1035.99 985.269 1036.38 985.75 1036.38C986.231 1036.38 986.62 1035.99 986.62 1035.51C986.62 1035.03 986.231 1034.64 985.75 1034.64Z" fill="white"/>
<path opacity="0.35" d="M898.666 1678.71C898.185 1678.71 897.795 1679.1 897.795 1679.58C897.795 1680.06 898.185 1680.45 898.666 1680.45C899.147 1680.45 899.537 1680.06 899.537 1679.58C899.537 1679.1 899.147 1678.71 898.666 1678.71Z" fill="white"/>
<path opacity="0.35" d="M759.333 1017.23C758.852 1017.23 758.462 1017.62 758.462 1018.1C758.462 1018.58 758.852 1018.97 759.333 1018.97C759.814 1018.97 760.204 1018.58 760.204 1018.1C760.204 1017.62 759.814 1017.23 759.333 1017.23Z" fill="white"/>
<path opacity="0.35" d="M637.416 1591.67C636.935 1591.67 636.545 1592.06 636.545 1592.54C636.545 1593.02 636.935 1593.41 637.416 1593.41C637.897 1593.41 638.287 1593.02 638.287 1592.54C638.287 1592.06 637.897 1591.67 637.416 1591.67Z" fill="white"/>
<path opacity="0.35" d="M498.083 1191.3C497.602 1191.3 497.212 1191.69 497.212 1192.17C497.212 1192.65 497.602 1193.04 498.083 1193.04C498.564 1193.04 498.954 1192.65 498.954 1192.17C498.954 1191.69 498.564 1191.3 498.083 1191.3Z" fill="white"/>
<path opacity="0.35" d="M341.333 1426.3C340.852 1426.3 340.462 1426.69 340.462 1427.17C340.462 1427.65 340.852 1428.04 341.333 1428.04C341.814 1428.04 342.204 1427.65 342.204 1427.17C342.204 1426.69 341.814 1426.3 341.333 1426.3Z" fill="white"/>
<path opacity="0.35" d="M254.25 1086.86C253.769 1086.86 253.379 1087.25 253.379 1087.73C253.379 1088.21 253.769 1088.6 254.25 1088.6C254.731 1088.6 255.12 1088.21 255.12 1087.73C255.12 1087.25 254.731 1086.86 254.25 1086.86Z" fill="white"/>
<path opacity="0.6" d="M1623.08 1965.62C1622.12 1965.62 1621.34 1966.4 1621.34 1967.36C1621.34 1968.32 1622.12 1969.1 1623.08 1969.1C1624.04 1969.1 1624.82 1968.32 1624.82 1967.36C1624.82 1966.4 1624.04 1965.62 1623.08 1965.62Z" fill="white"/>
<path opacity="0.6" d="M1361.83 1373.76C1360.87 1373.76 1360.09 1374.54 1360.09 1375.51C1360.09 1376.47 1360.87 1377.25 1361.83 1377.25C1362.79 1377.25 1363.57 1376.47 1363.57 1375.51C1363.57 1374.54 1362.79 1373.76 1361.83 1373.76Z" fill="white"/>
<path opacity="0.6" d="M1030.92 1878.58C1029.95 1878.58 1029.17 1879.36 1029.17 1880.32C1029.17 1881.28 1029.95 1882.06 1030.92 1882.06C1031.88 1882.06 1032.66 1881.28 1032.66 1880.32C1032.66 1879.36 1031.88 1878.58 1030.92 1878.58Z" fill="white"/>
<path opacity="0.6" d="M734.833 1478.21C733.871 1478.21 733.091 1478.99 733.091 1479.95C733.091 1480.91 733.871 1481.69 734.833 1481.69C735.795 1481.69 736.575 1480.91 736.575 1479.95C736.575 1478.99 735.795 1478.21 734.833 1478.21Z" fill="white"/>
<path opacity="0.6" d="M403.916 1983.02C402.955 1983.02 402.175 1983.8 402.175 1984.77C402.175 1985.73 402.955 1986.51 403.916 1986.51C404.878 1986.51 405.658 1985.73 405.658 1984.77C405.658 1983.8 404.878 1983.02 403.916 1983.02Z" fill="white"/>
<path opacity="0.9" d="M838.025 2514.54C836.589 2514.4 835.312 2515.45 835.173 2516.89C835.034 2518.32 836.086 2519.6 837.522 2519.74C838.958 2519.88 840.235 2518.82 840.374 2517.39C840.513 2515.95 839.461 2514.68 838.025 2514.54Z" fill="white"/>
<path opacity="0.9" d="M1367.54 2286.39C1366.35 2286.28 1365.28 2287.15 1365.17 2288.35C1365.05 2289.55 1365.93 2290.61 1367.12 2290.73C1368.32 2290.84 1369.39 2289.97 1369.5 2288.77C1369.62 2287.57 1368.74 2286.51 1367.54 2286.39Z" fill="white"/>
<path d="M721.437 2634.42C720.001 2634.28 718.724 2635.33 718.585 2636.77C718.446 2638.21 719.498 2639.48 720.934 2639.62C722.37 2639.76 723.647 2638.71 723.786 2637.27C723.924 2635.84 722.873 2634.56 721.437 2634.42Z" fill="#00F0FF"/>
<path opacity="0.9" d="M703.899 1662.74C704.53 1660.8 703.951 1658.06 702.605 1656.6C701.259 1655.14 699.656 1655.52 699.025 1657.45C698.394 1659.38 698.973 1662.13 700.319 1663.59C701.665 1665.05 703.268 1664.67 703.899 1662.74Z" fill="white"/>
<path opacity="0.9" d="M684.413 2650.89C684.939 2649.28 684.456 2646.99 683.335 2645.77C682.213 2644.56 680.877 2644.87 680.351 2646.48C679.825 2648.09 680.308 2650.38 681.43 2651.6C682.551 2652.82 683.887 2652.5 684.413 2650.89Z" fill="white"/>
<path d="M645.182 1394.22C645.813 1392.28 645.234 1389.53 643.888 1388.07C642.542 1386.62 640.939 1387 640.308 1388.93C639.676 1390.86 640.256 1393.61 641.602 1395.07C642.948 1396.53 644.55 1396.15 645.182 1394.22Z" fill="#00F0FF"/>
<path opacity="0.35" d="M1627.92 824.636C1627.44 824.636 1627.05 825.025 1627.05 825.506C1627.05 825.987 1627.44 826.376 1627.92 826.376C1628.4 826.376 1628.79 825.987 1628.79 825.506C1628.79 825.025 1628.4 824.636 1627.92 824.636Z" fill="white"/>
<path opacity="0.35" d="M1514.71 441.673C1514.23 441.673 1513.84 442.062 1513.84 442.543C1513.84 443.024 1514.23 443.413 1514.71 443.413C1515.19 443.413 1515.58 443.024 1515.58 442.543C1515.58 442.062 1515.19 441.673 1514.71 441.673Z" fill="white"/>
<path opacity="0.35" d="M1401.5 285.006C1401.02 285.006 1400.63 285.396 1400.63 285.876C1400.63 286.357 1401.02 286.747 1401.5 286.747C1401.98 286.747 1402.37 286.357 1402.37 285.876C1402.37 285.396 1401.98 285.006 1401.5 285.006Z" fill="white"/>
<path opacity="0.35" d="M1262.17 937.784C1261.69 937.784 1261.3 938.173 1261.3 938.654C1261.3 939.135 1261.69 939.524 1262.17 939.524C1262.65 939.524 1263.04 939.135 1263.04 938.654C1263.04 938.173 1262.65 937.784 1262.17 937.784Z" fill="white"/>
<path opacity="0.35" d="M1140.25 650.561C1139.77 650.561 1139.38 650.951 1139.38 651.432C1139.38 651.912 1139.77 652.302 1140.25 652.302C1140.73 652.302 1141.12 651.912 1141.12 651.432C1141.12 650.951 1140.73 650.561 1140.25 650.561Z" fill="white"/>
<path opacity="0.35" d="M1035.75 354.636C1035.27 354.636 1034.88 355.025 1034.88 355.506C1034.88 355.987 1035.27 356.376 1035.75 356.376C1036.23 356.376 1036.62 355.987 1036.62 355.506C1036.62 355.025 1036.23 354.636 1035.75 354.636Z" fill="white"/>
<path opacity="0.35" d="M948.666 998.71C948.185 998.71 947.795 999.099 947.795 999.58C947.795 1000.06 948.185 1000.45 948.666 1000.45C949.147 1000.45 949.537 1000.06 949.537 999.58C949.537 999.099 949.147 998.71 948.666 998.71Z" fill="white"/>
<path opacity="0.35" d="M809.333 337.228C808.852 337.228 808.462 337.618 808.462 338.098C808.462 338.579 808.852 338.969 809.333 338.969C809.814 338.969 810.204 338.579 810.204 338.098C810.204 337.618 809.814 337.228 809.333 337.228Z" fill="white"/>
<path opacity="0.35" d="M687.416 911.672C686.935 911.672 686.545 912.062 686.545 912.543C686.545 913.024 686.935 913.413 687.416 913.413C687.897 913.413 688.287 913.024 688.287 912.543C688.287 912.062 687.897 911.672 687.416 911.672Z" fill="white"/>
<path opacity="0.35" d="M548.083 511.302C547.602 511.302 547.212 511.692 547.212 512.173C547.212 512.653 547.602 513.043 548.083 513.043C548.564 513.043 548.954 512.653 548.954 512.173C548.954 511.692 548.564 511.302 548.083 511.302Z" fill="white"/>
<path opacity="0.35" d="M391.333 746.302C390.852 746.302 390.462 746.692 390.462 747.172C390.462 747.653 390.852 748.043 391.333 748.043C391.814 748.043 392.204 747.653 392.204 747.172C392.204 746.692 391.814 746.302 391.333 746.302Z" fill="white"/>
<path opacity="0.35" d="M304.25 406.858C303.769 406.858 303.379 407.247 303.379 407.728C303.379 408.209 303.769 408.598 304.25 408.598C304.731 408.598 305.12 408.209 305.12 407.728C305.12 407.247 304.731 406.858 304.25 406.858Z" fill="white"/>
<path opacity="0.6" d="M1590.35 1829.3C1589.65 1828.63 1588.55 1828.65 1587.88 1829.34C1587.22 1830.03 1587.24 1831.14 1587.93 1831.8C1588.62 1832.47 1589.73 1832.45 1590.39 1831.76C1591.06 1831.07 1591.04 1829.97 1590.35 1829.3Z" fill="white"/>
<path opacity="0.6" d="M1224.43 1355.65C1223.74 1354.98 1222.63 1355 1221.97 1355.7C1221.3 1356.39 1221.32 1357.49 1222.01 1358.16C1222.7 1358.83 1223.81 1358.81 1224.47 1358.11C1225.14 1357.42 1225.12 1356.32 1224.43 1355.65Z" fill="white"/>
<path opacity="0.6" d="M1289.14 861.916C1288.44 861.249 1287.34 861.269 1286.67 861.961C1286.01 862.653 1286.03 863.755 1286.72 864.423C1287.41 865.09 1288.51 865.07 1289.18 864.378C1289.85 863.686 1289.83 862.584 1289.14 861.916Z" fill="white"/>
<path opacity="0.6" d="M700.536 995.686C699.844 995.019 698.741 995.038 698.074 995.731C697.407 996.423 697.427 997.525 698.12 998.193C698.812 998.86 699.915 998.84 700.582 998.148C701.249 997.456 701.229 996.354 700.536 995.686Z" fill="white"/>
<path opacity="0.35" d="M1621.92 1172.63C1621.44 1172.63 1621.05 1173.02 1621.05 1173.5C1621.05 1173.98 1621.44 1174.37 1621.92 1174.37C1622.4 1174.37 1622.79 1173.98 1622.79 1173.5C1622.79 1173.02 1622.4 1172.63 1621.92 1172.63Z" fill="white"/>
<path opacity="0.35" d="M1508.71 789.666C1508.23 789.666 1507.84 790.056 1507.84 790.537C1507.84 791.018 1508.23 791.407 1508.71 791.407C1509.19 791.407 1509.58 791.018 1509.58 790.537C1509.58 790.056 1509.19 789.666 1508.71 789.666Z" fill="white"/>
<path opacity="0.35" d="M1395.5 633C1395.02 633 1394.63 633.39 1394.63 633.87C1394.63 634.351 1395.02 634.741 1395.5 634.741C1395.98 634.741 1396.37 634.351 1396.37 633.87C1396.37 633.39 1395.98 633 1395.5 633Z" fill="white"/>
<path opacity="0.35" d="M1256.17 1285.78C1255.69 1285.78 1255.3 1286.17 1255.3 1286.65C1255.3 1287.13 1255.69 1287.52 1256.17 1287.52C1256.65 1287.52 1257.04 1287.13 1257.04 1286.65C1257.04 1286.17 1256.65 1285.78 1256.17 1285.78Z" fill="white"/>
<path opacity="0.35" d="M1134.25 998.555C1133.77 998.555 1133.38 998.945 1133.38 999.426C1133.38 999.906 1133.77 1000.3 1134.25 1000.3C1134.73 1000.3 1135.12 999.906 1135.12 999.426C1135.12 998.945 1134.73 998.555 1134.25 998.555Z" fill="white"/>
<path opacity="0.35" d="M1029.75 702.63C1029.27 702.63 1028.88 703.019 1028.88 703.5C1028.88 703.981 1029.27 704.37 1029.75 704.37C1030.23 704.37 1030.62 703.981 1030.62 703.5C1030.62 703.019 1030.23 702.63 1029.75 702.63Z" fill="white"/>
<path opacity="0.35" d="M942.666 1346.7C942.185 1346.7 941.795 1347.09 941.795 1347.57C941.795 1348.05 942.185 1348.44 942.666 1348.44C943.147 1348.44 943.537 1348.05 943.537 1347.57C943.537 1347.09 943.147 1346.7 942.666 1346.7Z" fill="white"/>
<path opacity="0.35" d="M803.333 685.222C802.852 685.222 802.462 685.612 802.462 686.092C802.462 686.573 802.852 686.963 803.333 686.963C803.814 686.963 804.204 686.573 804.204 686.092C804.204 685.612 803.814 685.222 803.333 685.222Z" fill="white"/>
<path opacity="0.35" d="M681.416 1259.67C680.935 1259.67 680.545 1260.06 680.545 1260.54C680.545 1261.02 680.935 1261.41 681.416 1261.41C681.897 1261.41 682.287 1261.02 682.287 1260.54C682.287 1260.06 681.897 1259.67 681.416 1259.67Z" fill="white"/>
<path opacity="0.35" d="M542.083 859.296C541.602 859.296 541.212 859.686 541.212 860.167C541.212 860.647 541.602 861.037 542.083 861.037C542.564 861.037 542.954 860.647 542.954 860.167C542.954 859.686 542.564 859.296 542.083 859.296Z" fill="white"/>
<path opacity="0.35" d="M385.333 1094.3C384.852 1094.3 384.462 1094.69 384.462 1095.17C384.462 1095.65 384.852 1096.04 385.333 1096.04C385.814 1096.04 386.204 1095.65 386.204 1095.17C386.204 1094.69 385.814 1094.3 385.333 1094.3Z" fill="white"/>
<path opacity="0.35" d="M298.25 754.852C297.769 754.852 297.379 755.241 297.379 755.722C297.379 756.203 297.769 756.592 298.25 756.592C298.731 756.592 299.12 756.203 299.12 755.722C299.12 755.241 298.731 754.852 298.25 754.852Z" fill="white"/>
<path opacity="0.35" d="M1646.42 1024.11C1645.94 1024.11 1645.55 1024.5 1645.55 1024.98C1645.55 1025.46 1645.94 1025.85 1646.42 1025.85C1646.9 1025.85 1647.29 1025.46 1647.29 1024.98C1647.29 1024.5 1646.9 1024.11 1646.42 1024.11Z" fill="white"/>
<path opacity="0.35" d="M1541.92 832.63C1541.44 832.63 1541.05 833.019 1541.05 833.5C1541.05 833.981 1541.44 834.37 1541.92 834.37C1542.4 834.37 1542.79 833.981 1542.79 833.5C1542.79 833.019 1542.4 832.63 1541.92 832.63Z" fill="white"/>
<path opacity="0.35" d="M1428.71 449.667C1428.23 449.667 1427.84 450.056 1427.84 450.537C1427.84 451.018 1428.23 451.407 1428.71 451.407C1429.19 451.407 1429.58 451.018 1429.58 450.537C1429.58 450.056 1429.19 449.667 1428.71 449.667Z" fill="white"/>
<path opacity="0.35" d="M1315.5 293C1315.02 293 1314.63 293.39 1314.63 293.87C1314.63 294.351 1315.02 294.741 1315.5 294.741C1315.98 294.741 1316.37 294.351 1316.37 293.87C1316.37 293.39 1315.98 293 1315.5 293Z" fill="white"/>
<path opacity="0.35" d="M1176.17 945.778C1175.69 945.778 1175.3 946.167 1175.3 946.648C1175.3 947.129 1175.69 947.518 1176.17 947.518C1176.65 947.518 1177.04 947.129 1177.04 946.648C1177.04 946.167 1176.65 945.778 1176.17 945.778Z" fill="white"/>
<path opacity="0.35" d="M1054.25 658.555C1053.77 658.555 1053.38 658.945 1053.38 659.426C1053.38 659.906 1053.77 660.296 1054.25 660.296C1054.73 660.296 1055.12 659.906 1055.12 659.426C1055.12 658.945 1054.73 658.555 1054.25 658.555Z" fill="white"/>
<path opacity="0.35" d="M949.75 362.63C949.269 362.63 948.879 363.019 948.879 363.5C948.879 363.981 949.269 364.37 949.75 364.37C950.231 364.37 950.62 363.981 950.62 363.5C950.62 363.019 950.231 362.63 949.75 362.63Z" fill="white"/>
<path opacity="0.35" d="M862.666 1006.7C862.185 1006.7 861.795 1007.09 861.795 1007.57C861.795 1008.05 862.185 1008.44 862.666 1008.44C863.147 1008.44 863.537 1008.05 863.537 1007.57C863.537 1007.09 863.147 1006.7 862.666 1006.7Z" fill="white"/>
<path opacity="0.35" d="M723.333 345.222C722.852 345.222 722.462 345.612 722.462 346.092C722.462 346.573 722.852 346.963 723.333 346.963C723.814 346.963 724.204 346.573 724.204 346.092C724.204 345.612 723.814 345.222 723.333 345.222Z" fill="white"/>
<path opacity="0.35" d="M601.416 919.666C600.935 919.666 600.545 920.056 600.545 920.537C600.545 921.018 600.935 921.407 601.416 921.407C601.897 921.407 602.287 921.018 602.287 920.537C602.287 920.056 601.897 919.666 601.416 919.666Z" fill="white"/>
<path opacity="0.35" d="M462.083 519.296C461.602 519.296 461.212 519.686 461.212 520.167C461.212 520.647 461.602 521.037 462.083 521.037C462.564 521.037 462.954 520.647 462.954 520.167C462.954 519.686 462.564 519.296 462.083 519.296Z" fill="white"/>
<path opacity="0.35" d="M305.333 754.296C304.852 754.296 304.462 754.686 304.462 755.166C304.462 755.647 304.852 756.037 305.333 756.037C305.814 756.037 306.204 755.647 306.204 755.166C306.204 754.686 305.814 754.296 305.333 754.296Z" fill="white"/>
<path opacity="0.35" d="M218.25 414.852C217.769 414.852 217.379 415.241 217.379 415.722C217.379 416.203 217.769 416.592 218.25 416.592C218.731 416.592 219.12 416.203 219.12 415.722C219.12 415.241 218.731 414.852 218.25 414.852Z" fill="white"/>
<path opacity="0.6" d="M1587.08 1293.61C1586.12 1293.61 1585.34 1294.39 1585.34 1295.35C1585.34 1296.31 1586.12 1297.09 1587.08 1297.09C1588.04 1297.09 1588.82 1296.31 1588.82 1295.35C1588.82 1294.39 1588.04 1293.61 1587.08 1293.61Z" fill="white"/>
<path opacity="0.6" d="M1325.83 701.759C1324.87 701.759 1324.09 702.539 1324.09 703.5C1324.09 704.461 1324.87 705.241 1325.83 705.241C1326.79 705.241 1327.57 704.461 1327.57 703.5C1327.57 702.539 1326.79 701.759 1325.83 701.759Z" fill="white"/>
<path opacity="0.6" d="M994.916 1206.57C993.955 1206.57 993.175 1207.35 993.175 1208.31C993.175 1209.28 993.955 1210.06 994.916 1210.06C995.878 1210.06 996.658 1209.28 996.658 1208.31C996.658 1207.35 995.878 1206.57 994.916 1206.57Z" fill="white"/>
<path opacity="0.6" d="M698.833 806.204C697.871 806.204 697.091 806.983 697.091 807.944C697.091 808.906 697.871 809.685 698.833 809.685C699.795 809.685 700.575 808.906 700.575 807.944C700.575 806.983 699.795 806.204 698.833 806.204Z" fill="white"/>
<path opacity="0.6" d="M367.916 1311.02C366.955 1311.02 366.175 1311.8 366.175 1312.76C366.175 1313.72 366.955 1314.5 367.916 1314.5C368.878 1314.5 369.658 1313.72 369.658 1312.76C369.658 1311.8 368.878 1311.02 367.916 1311.02Z" fill="white"/>
<path opacity="0.9" d="M802.025 1842.53C800.589 1842.39 799.312 1843.45 799.173 1844.88C799.034 1846.32 800.086 1847.59 801.522 1847.73C802.958 1847.87 804.235 1846.82 804.374 1845.38C804.513 1843.95 803.461 1842.67 802.025 1842.53Z" fill="white"/>
<path opacity="0.9" d="M1331.54 1614.39C1330.35 1614.27 1329.28 1615.15 1329.17 1616.34C1329.05 1617.54 1329.93 1618.6 1331.12 1618.72C1332.32 1618.84 1333.39 1617.96 1333.5 1616.76C1333.62 1615.57 1332.74 1614.5 1331.54 1614.39Z" fill="white"/>
<path d="M685.437 1962.42C684.001 1962.28 682.724 1963.33 682.585 1964.76C682.446 1966.2 683.498 1967.48 684.934 1967.61C686.37 1967.75 687.647 1966.7 687.786 1965.27C687.924 1963.83 686.873 1962.56 685.437 1962.42Z" fill="#00F0FF"/>
<path opacity="0.9" d="M667.899 990.73C668.53 988.799 667.951 986.05 666.605 984.59C665.259 983.13 663.656 983.512 663.025 985.444C662.394 987.375 662.973 990.124 664.319 991.584C665.665 993.044 667.268 992.662 667.899 990.73Z" fill="white"/>
<path opacity="0.9" d="M648.413 1978.88C648.939 1977.27 648.456 1974.98 647.335 1973.77C646.213 1972.55 644.877 1972.87 644.351 1974.48C643.825 1976.09 644.308 1978.38 645.43 1979.6C646.551 1980.81 647.887 1980.49 648.413 1978.88Z" fill="white"/>
<path d="M609.182 722.209C609.813 720.278 609.234 717.529 607.888 716.069C606.542 714.609 604.939 714.992 604.308 716.923C603.676 718.854 604.256 721.603 605.602 723.063C606.948 724.523 608.55 724.141 609.182 722.209Z" fill="#00F0FF"/>
<path opacity="0.35" d="M1696.42 344.111C1695.94 344.111 1695.55 344.501 1695.55 344.981C1695.55 345.462 1695.94 345.852 1696.42 345.852C1696.9 345.852 1697.29 345.462 1697.29 344.981C1697.29 344.501 1696.9 344.111 1696.42 344.111Z" fill="white"/>
<path opacity="0.35" d="M1591.92 152.63C1591.44 152.63 1591.05 153.019 1591.05 153.5C1591.05 153.981 1591.44 154.37 1591.92 154.37C1592.4 154.37 1592.79 153.981 1592.79 153.5C1592.79 153.019 1592.4 152.63 1591.92 152.63Z" fill="white"/>
<path opacity="0.35" d="M1226.17 265.778C1225.69 265.778 1225.3 266.167 1225.3 266.648C1225.3 267.129 1225.69 267.518 1226.17 267.518C1226.65 267.518 1227.04 267.129 1227.04 266.648C1227.04 266.167 1226.65 265.778 1226.17 265.778Z" fill="white"/>
<path opacity="0.35" d="M912.666 326.704C912.185 326.704 911.795 327.093 911.795 327.574C911.795 328.055 912.185 328.444 912.666 328.444C913.147 328.444 913.537 328.055 913.537 327.574C913.537 327.093 913.147 326.704 912.666 326.704Z" fill="white"/>
<path opacity="0.35" d="M651.416 239.666C650.935 239.666 650.545 240.056 650.545 240.537C650.545 241.018 650.935 241.407 651.416 241.407C651.897 241.407 652.287 241.018 652.287 240.537C652.287 240.056 651.897 239.666 651.416 239.666Z" fill="white"/>
<path opacity="0.35" d="M355.333 74.2961C354.852 74.2961 354.462 74.6858 354.462 75.1665C354.462 75.6472 354.852 76.0369 355.333 76.0369C355.814 76.0369 356.204 75.6472 356.204 75.1665C356.204 74.6858 355.814 74.2961 355.333 74.2961Z" fill="white"/>
<path opacity="0.6" d="M1236.25 685.881C1235.29 685.923 1234.55 686.737 1234.59 687.697C1234.63 688.658 1235.45 689.402 1236.41 689.359C1237.37 689.316 1238.11 688.503 1238.07 687.543C1238.03 686.582 1237.21 685.838 1236.25 685.881Z" fill="white"/>
<path opacity="0.6" d="M949.03 106.189C948.069 106.231 947.324 107.044 947.367 108.005C947.409 108.965 948.223 109.709 949.184 109.667C950.145 109.624 950.889 108.811 950.847 107.85C950.804 106.89 949.991 106.146 949.03 106.189Z" fill="white"/>
<path opacity="0.6" d="M640.81 625.173C639.849 625.215 639.105 626.029 639.148 626.989C639.19 627.95 640.004 628.694 640.965 628.651C641.926 628.608 642.67 627.795 642.627 626.835C642.585 625.874 641.771 625.13 640.81 625.173Z" fill="white"/>
<path opacity="0.6" d="M327.274 238.318C326.313 238.36 325.569 239.173 325.612 240.134C325.654 241.094 326.468 241.838 327.429 241.796C328.39 241.753 329.134 240.94 329.091 239.979C329.049 239.019 328.235 238.275 327.274 238.318Z" fill="white"/>
<path opacity="0.6" d="M19.0552 757.302C18.0943 757.345 17.3498 758.158 17.3924 759.118C17.435 760.079 18.2486 760.823 19.2095 760.78C20.1705 760.737 20.9149 759.924 20.8723 758.964C20.8297 758.003 20.0162 757.259 19.0552 757.302Z" fill="white"/>
<path opacity="0.6" d="M1405.35 1536.3C1404.65 1535.63 1403.55 1535.65 1402.88 1536.34C1402.22 1537.03 1402.24 1538.14 1402.93 1538.8C1403.62 1539.47 1404.73 1539.45 1405.39 1538.76C1406.06 1538.07 1406.04 1536.96 1405.35 1536.3Z" fill="white"/>
<path opacity="0.6" d="M1628.03 928.882C1627.33 928.214 1626.23 928.234 1625.57 928.926C1624.9 929.618 1624.92 930.721 1625.61 931.388C1626.3 932.056 1627.41 932.036 1628.07 931.344C1628.74 930.652 1628.72 929.549 1628.03 928.882Z" fill="white"/>
<path opacity="0.6" d="M1039.43 1062.65C1038.74 1061.98 1037.63 1062 1036.97 1062.7C1036.3 1063.39 1036.32 1064.49 1037.01 1065.16C1037.7 1065.83 1038.81 1065.81 1039.47 1065.11C1040.14 1064.42 1040.12 1063.32 1039.43 1062.65Z" fill="white"/>
<path opacity="0.6" d="M1104.14 568.916C1103.44 568.249 1102.34 568.268 1101.67 568.961C1101.01 569.653 1101.03 570.755 1101.72 571.423C1102.41 572.09 1103.51 572.07 1104.18 571.378C1104.85 570.686 1104.83 569.584 1104.14 568.916Z" fill="white"/>
<path opacity="0.6" d="M515.536 702.686C514.844 702.018 513.741 702.038 513.074 702.73C512.407 703.423 512.427 704.525 513.12 705.192C513.812 705.86 514.915 705.84 515.582 705.148C516.249 704.456 516.229 703.354 515.536 702.686Z" fill="white"/>
<path opacity="0.35" d="M1541.42 1071.11C1540.94 1071.11 1540.55 1071.5 1540.55 1071.98C1540.55 1072.46 1540.94 1072.85 1541.42 1072.85C1541.9 1072.85 1542.29 1072.46 1542.29 1071.98C1542.29 1071.5 1541.9 1071.11 1541.42 1071.11Z" fill="white"/>
<path opacity="0.35" d="M1436.92 879.63C1436.44 879.63 1436.05 880.019 1436.05 880.5C1436.05 880.981 1436.44 881.37 1436.92 881.37C1437.4 881.37 1437.79 880.981 1437.79 880.5C1437.79 880.019 1437.4 879.63 1436.92 879.63Z" fill="white"/>
<path opacity="0.35" d="M1323.71 496.667C1323.23 496.667 1322.84 497.056 1322.84 497.537C1322.84 498.018 1323.23 498.407 1323.71 498.407C1324.19 498.407 1324.58 498.018 1324.58 497.537C1324.58 497.056 1324.19 496.667 1323.71 496.667Z" fill="white"/>
<path opacity="0.35" d="M1210.5 340C1210.02 340 1209.63 340.39 1209.63 340.87C1209.63 341.351 1210.02 341.741 1210.5 341.741C1210.98 341.741 1211.37 341.351 1211.37 340.87C1211.37 340.39 1210.98 340 1210.5 340Z" fill="white"/>
<path opacity="0.35" d="M1071.17 992.778C1070.69 992.778 1070.3 993.167 1070.3 993.648C1070.3 994.129 1070.69 994.518 1071.17 994.518C1071.65 994.518 1072.04 994.129 1072.04 993.648C1072.04 993.167 1071.65 992.778 1071.17 992.778Z" fill="white"/>
<path opacity="0.35" d="M949.25 705.555C948.769 705.555 948.379 705.945 948.379 706.426C948.379 706.906 948.769 707.296 949.25 707.296C949.731 707.296 950.12 706.906 950.12 706.426C950.12 705.945 949.731 705.555 949.25 705.555Z" fill="white"/>
<path opacity="0.35" d="M844.75 409.63C844.269 409.63 843.879 410.019 843.879 410.5C843.879 410.981 844.269 411.37 844.75 411.37C845.231 411.37 845.62 410.981 845.62 410.5C845.62 410.019 845.231 409.63 844.75 409.63Z" fill="white"/>
<path opacity="0.35" d="M757.666 1053.7C757.185 1053.7 756.795 1054.09 756.795 1054.57C756.795 1055.05 757.185 1055.44 757.666 1055.44C758.147 1055.44 758.537 1055.05 758.537 1054.57C758.537 1054.09 758.147 1053.7 757.666 1053.7Z" fill="white"/>
<path opacity="0.35" d="M618.333 392.222C617.852 392.222 617.462 392.612 617.462 393.092C617.462 393.573 617.852 393.963 618.333 393.963C618.814 393.963 619.204 393.573 619.204 393.092C619.204 392.612 618.814 392.222 618.333 392.222Z" fill="white"/>
<path opacity="0.35" d="M496.416 966.666C495.935 966.666 495.545 967.056 495.545 967.537C495.545 968.018 495.935 968.407 496.416 968.407C496.897 968.407 497.287 968.018 497.287 967.537C497.287 967.056 496.897 966.666 496.416 966.666Z" fill="white"/>
<path opacity="0.35" d="M357.083 566.296C356.602 566.296 356.212 566.686 356.212 567.167C356.212 567.647 356.602 568.037 357.083 568.037C357.564 568.037 357.954 567.647 357.954 567.167C357.954 566.686 357.564 566.296 357.083 566.296Z" fill="white"/>
<path opacity="0.35" d="M200.333 801.296C199.852 801.296 199.462 801.686 199.462 802.166C199.462 802.647 199.852 803.037 200.333 803.037C200.814 803.037 201.204 802.647 201.204 802.166C201.204 801.686 200.814 801.296 200.333 801.296Z" fill="white"/>
<path opacity="0.35" d="M113.25 461.852C112.769 461.852 112.379 462.241 112.379 462.722C112.379 463.203 112.769 463.592 113.25 463.592C113.731 463.592 114.12 463.203 114.12 462.722C114.12 462.241 113.731 461.852 113.25 461.852Z" fill="white"/>
<path opacity="0.35" d="M1461.42 731.111C1460.94 731.111 1460.55 731.501 1460.55 731.981C1460.55 732.462 1460.94 732.852 1461.42 732.852C1461.9 732.852 1462.29 732.462 1462.29 731.981C1462.29 731.501 1461.9 731.111 1461.42 731.111Z" fill="white"/>
<path opacity="0.35" d="M1356.92 539.63C1356.44 539.63 1356.05 540.019 1356.05 540.5C1356.05 540.981 1356.44 541.37 1356.92 541.37C1357.4 541.37 1357.79 540.981 1357.79 540.5C1357.79 540.019 1357.4 539.63 1356.92 539.63Z" fill="white"/>
<path opacity="0.35" d="M1243.71 156.666C1243.23 156.666 1242.84 157.056 1242.84 157.537C1242.84 158.018 1243.23 158.407 1243.71 158.407C1244.19 158.407 1244.58 158.018 1244.58 157.537C1244.58 157.056 1244.19 156.666 1243.71 156.666Z" fill="white"/>
<path opacity="0.35" d="M1130.5 -1.80767e-05C1130.02 -1.81188e-05 1129.63 0.38966 1129.63 0.870352C1129.63 1.35104 1130.02 1.74072 1130.5 1.74072C1130.98 1.74072 1131.37 1.35104 1131.37 0.870352C1131.37 0.38966 1130.98 -1.80347e-05 1130.5 -1.80767e-05Z" fill="white"/>
<path opacity="0.35" d="M991.166 652.778C990.685 652.778 990.295 653.167 990.295 653.648C990.295 654.129 990.685 654.518 991.166 654.518C991.647 654.518 992.037 654.129 992.037 653.648C992.037 653.167 991.647 652.778 991.166 652.778Z" fill="white"/>
<path opacity="0.35" d="M869.25 365.555C868.769 365.555 868.379 365.945 868.379 366.426C868.379 366.907 868.769 367.296 869.25 367.296C869.731 367.296 870.12 366.907 870.12 366.426C870.12 365.945 869.731 365.555 869.25 365.555Z" fill="white"/>
<path opacity="0.35" d="M764.75 69.6296C764.269 69.6296 763.879 70.0192 763.879 70.4999C763.879 70.9806 764.269 71.3703 764.75 71.3703C765.231 71.3703 765.62 70.9806 765.62 70.4999C765.62 70.0192 765.231 69.6296 764.75 69.6296Z" fill="white"/>
<path opacity="0.35" d="M677.666 713.704C677.185 713.704 676.795 714.093 676.795 714.574C676.795 715.055 677.185 715.444 677.666 715.444C678.147 715.444 678.537 715.055 678.537 714.574C678.537 714.093 678.147 713.704 677.666 713.704Z" fill="white"/>
<path opacity="0.35" d="M538.333 52.222C537.852 52.222 537.462 52.6117 537.462 53.0924C537.462 53.5731 537.852 53.9628 538.333 53.9628C538.814 53.9628 539.204 53.5731 539.204 53.0924C539.204 52.6117 538.814 52.222 538.333 52.222Z" fill="white"/>
<path opacity="0.35" d="M416.416 626.666C415.935 626.666 415.545 627.056 415.545 627.537C415.545 628.018 415.935 628.407 416.416 628.407C416.897 628.407 417.287 628.018 417.287 627.537C417.287 627.056 416.897 626.666 416.416 626.666Z" fill="white"/>
<path opacity="0.35" d="M277.083 226.296C276.602 226.296 276.212 226.686 276.212 227.167C276.212 227.647 276.602 228.037 277.083 228.037C277.564 228.037 277.954 227.647 277.954 227.167C277.954 226.686 277.564 226.296 277.083 226.296Z" fill="white"/>
<path opacity="0.35" d="M120.333 461.296C119.852 461.296 119.462 461.686 119.462 462.167C119.462 462.647 119.852 463.037 120.333 463.037C120.814 463.037 121.204 462.647 121.204 462.167C121.204 461.686 120.814 461.296 120.333 461.296Z" fill="white"/>
<path opacity="0.35" d="M33.2497 121.852C32.7688 121.852 32.3789 122.241 32.3789 122.722C32.3789 123.203 32.7688 123.592 33.2497 123.592C33.7307 123.592 34.1205 123.203 34.1205 122.722C34.1205 122.241 33.7307 121.852 33.2497 121.852Z" fill="white"/>
<path opacity="0.6" d="M1402.08 1000.61C1401.12 1000.61 1400.34 1001.39 1400.34 1002.35C1400.34 1003.31 1401.12 1004.09 1402.08 1004.09C1403.04 1004.09 1403.82 1003.31 1403.82 1002.35C1403.82 1001.39 1403.04 1000.61 1402.08 1000.61Z" fill="white"/>
<path opacity="0.6" d="M1140.83 408.759C1139.87 408.759 1139.09 409.539 1139.09 410.5C1139.09 411.461 1139.87 412.241 1140.83 412.241C1141.79 412.241 1142.57 411.461 1142.57 410.5C1142.57 409.539 1141.79 408.759 1140.83 408.759Z" fill="white"/>
<path opacity="0.6" d="M809.916 913.574C808.955 913.574 808.175 914.353 808.175 915.315C808.175 916.276 808.955 917.056 809.916 917.056C810.878 917.056 811.658 916.276 811.658 915.315C811.658 914.353 810.878 913.574 809.916 913.574Z" fill="white"/>
<path opacity="0.6" d="M513.833 513.204C512.871 513.204 512.091 513.983 512.091 514.944C512.091 515.906 512.871 516.685 513.833 516.685C514.795 516.685 515.575 515.906 515.575 514.944C515.575 513.983 514.795 513.204 513.833 513.204Z" fill="white"/>
<path opacity="0.6" d="M182.916 1018.02C181.955 1018.02 181.175 1018.8 181.175 1019.76C181.175 1020.72 181.955 1021.5 182.916 1021.5C183.878 1021.5 184.658 1020.72 184.658 1019.76C184.658 1018.8 183.878 1018.02 182.916 1018.02Z" fill="white"/>
<path opacity="0.9" d="M617.025 1549.53C615.589 1549.39 614.312 1550.44 614.173 1551.88C614.034 1553.32 615.086 1554.59 616.522 1554.73C617.958 1554.87 619.235 1553.82 619.374 1552.38C619.513 1550.95 618.461 1549.67 617.025 1549.53Z" fill="white"/>
<path opacity="0.9" d="M1146.54 1321.39C1145.35 1321.27 1144.28 1322.15 1144.17 1323.35C1144.05 1324.54 1144.93 1325.6 1146.12 1325.72C1147.32 1325.84 1148.39 1324.96 1148.5 1323.76C1148.62 1322.57 1147.74 1321.5 1146.54 1321.39Z" fill="white"/>
<path d="M500.437 1669.42C499 1669.28 497.724 1670.33 497.585 1671.76C497.446 1673.2 498.497 1674.48 499.934 1674.61C501.37 1674.75 502.647 1673.7 502.785 1672.27C502.924 1670.83 501.873 1669.56 500.437 1669.42Z" fill="#00F0FF"/>
<path opacity="0.9" d="M482.899 697.73C483.53 695.799 482.951 693.05 481.605 691.59C480.259 690.13 478.656 690.512 478.025 692.444C477.394 694.375 477.973 697.124 479.319 698.584C480.665 700.044 482.268 699.662 482.899 697.73Z" fill="white"/>
<path opacity="0.9" d="M463.413 1685.88C463.939 1684.27 463.456 1681.98 462.335 1680.77C461.213 1679.55 459.877 1679.87 459.351 1681.48C458.825 1683.09 459.308 1685.38 460.43 1686.6C461.551 1687.81 462.887 1687.49 463.413 1685.88Z" fill="white"/>
<path d="M424.182 429.21C424.813 427.278 424.234 424.529 422.888 423.069C421.542 421.609 419.939 421.992 419.308 423.923C418.676 425.854 419.256 428.603 420.602 430.063C421.948 431.523 423.55 431.141 424.182 429.21Z" fill="#00F0FF"/>
<path opacity="0.6" d="M2.63631 1108.07C3.56071 1107.8 4.09462 1106.83 3.82883 1105.91C3.56303 1104.99 2.59818 1104.45 1.67378 1104.72C0.749377 1104.99 0.215469 1105.95 0.481264 1106.87C0.747059 1107.8 1.71191 1108.33 2.63631 1108.07Z" fill="white"/>
<path opacity="0.6" d="M417.333 1604.62C418.258 1604.35 418.792 1603.39 418.526 1602.47C418.26 1601.54 417.295 1601.01 416.371 1601.27C415.446 1601.54 414.912 1602.5 415.178 1603.43C415.444 1604.35 416.409 1604.89 417.333 1604.62Z" fill="white"/>
<path opacity="0.6" d="M595.785 1027.99C596.709 1027.73 597.243 1026.76 596.977 1025.84C596.712 1024.91 595.747 1024.38 594.822 1024.65C593.898 1024.91 593.364 1025.88 593.63 1026.8C593.896 1027.73 594.86 1028.26 595.785 1027.99Z" fill="white"/>
<path opacity="0.6" d="M991.018 1330.9C991.943 1330.63 992.477 1329.67 992.211 1328.74C991.945 1327.82 990.98 1327.29 990.056 1327.55C989.131 1327.82 988.598 1328.78 988.863 1329.71C989.129 1330.63 990.094 1331.16 991.018 1330.9Z" fill="white"/>
<path opacity="0.6" d="M1169.47 754.272C1170.39 754.006 1170.93 753.041 1170.66 752.118C1170.4 751.194 1169.43 750.66 1168.51 750.926C1167.58 751.192 1167.05 752.157 1167.32 753.081C1167.58 754.005 1168.55 754.538 1169.47 754.272Z" fill="white"/>
<path opacity="0.35" d="M337.464 1458.5C337.705 1458.08 337.562 1457.55 337.146 1457.31C336.73 1457.07 336.197 1457.21 335.957 1457.63C335.716 1458.04 335.859 1458.58 336.275 1458.82C336.692 1459.06 337.224 1458.91 337.464 1458.5Z" fill="white"/>
<path opacity="0.35" d="M555.542 1463.74C555.783 1463.32 555.64 1462.79 555.224 1462.55C554.808 1462.31 554.275 1462.45 554.035 1462.87C553.794 1463.28 553.937 1463.82 554.353 1464.06C554.769 1464.3 555.302 1464.16 555.542 1463.74Z" fill="white"/>
<path opacity="0.35" d="M943.802 1557.18C944.043 1556.76 943.9 1556.23 943.484 1555.99C943.068 1555.75 942.535 1555.89 942.295 1556.31C942.054 1556.73 942.197 1557.26 942.613 1557.5C943.029 1557.74 943.562 1557.6 943.802 1557.18Z" fill="white"/>
<path opacity="0.35" d="M1136.08 1537.47C1136.32 1537.05 1136.18 1536.52 1135.77 1536.28C1135.35 1536.04 1134.82 1536.18 1134.58 1536.6C1134.34 1537.02 1134.48 1537.55 1134.89 1537.79C1135.31 1538.03 1135.84 1537.89 1136.08 1537.47Z" fill="white"/>
<path opacity="0.35" d="M640.428 1090.42C640.669 1090 640.526 1089.47 640.11 1089.23C639.693 1088.99 639.161 1089.13 638.921 1089.55C638.68 1089.96 638.823 1090.49 639.239 1090.73C639.655 1090.98 640.188 1090.83 640.428 1090.42Z" fill="white"/>
<path opacity="0.35" d="M950.128 1128.44C950.369 1128.03 950.226 1127.5 949.81 1127.25C949.393 1127.01 948.861 1127.16 948.621 1127.57C948.38 1127.99 948.523 1128.52 948.939 1128.76C949.355 1129 949.888 1128.86 950.128 1128.44Z" fill="white"/>
<path opacity="0.35" d="M1258.66 1185.91C1258.9 1185.49 1258.76 1184.96 1258.34 1184.72C1257.92 1184.48 1257.39 1184.62 1257.15 1185.04C1256.91 1185.45 1257.05 1185.99 1257.47 1186.23C1257.88 1186.47 1258.42 1186.32 1258.66 1185.91Z" fill="white"/>
<path opacity="0.35" d="M744.415 788.454C744.655 788.037 744.513 787.505 744.096 787.265C743.68 787.024 743.148 787.167 742.907 787.584C742.667 788 742.809 788.533 743.225 788.773C743.642 789.013 744.174 788.87 744.415 788.454Z" fill="white"/>
<path opacity="0.35" d="M1386.94 998.528C1387.18 998.112 1387.04 997.579 1386.62 997.339C1386.21 997.099 1385.67 997.242 1385.43 997.658C1385.19 998.075 1385.34 998.607 1385.75 998.847C1386.17 999.088 1386.7 998.945 1386.94 998.528Z" fill="white"/>
<path opacity="0.35" d="M950.416 605.723C950.656 605.307 950.514 604.774 950.098 604.534C949.681 604.294 949.149 604.436 948.908 604.853C948.668 605.269 948.81 605.802 949.227 606.042C949.643 606.283 950.175 606.14 950.416 605.723Z" fill="white"/>
<path opacity="0.35" d="M1366.81 685.242C1367.05 684.826 1366.91 684.293 1366.49 684.053C1366.08 683.813 1365.55 683.955 1365.31 684.372C1365.07 684.788 1365.21 685.321 1365.62 685.561C1366.04 685.802 1366.57 685.659 1366.81 685.242Z" fill="white"/>
<path opacity="0.35" d="M1241.67 431.993C1241.91 431.576 1241.77 431.044 1241.35 430.803C1240.94 430.563 1240.41 430.706 1240.17 431.122C1239.92 431.539 1240.07 432.071 1240.48 432.312C1240.9 432.552 1241.43 432.409 1241.67 431.993Z" fill="white"/>
<path opacity="0.35" d="M1579.18 526.299C1579.42 525.882 1579.28 525.35 1578.86 525.109C1578.45 524.869 1577.91 525.012 1577.67 525.428C1577.43 525.845 1577.58 526.377 1577.99 526.618C1578.41 526.858 1578.94 526.715 1579.18 526.299Z" fill="white"/>
<path opacity="0.35" d="M671.913 1559.22C672.154 1558.8 672.011 1558.27 671.595 1558.03C671.179 1557.79 670.646 1557.93 670.406 1558.35C670.165 1558.76 670.308 1559.29 670.724 1559.53C671.14 1559.78 671.673 1559.63 671.913 1559.22Z" fill="white"/>
<path opacity="0.35" d="M889.991 1564.46C890.231 1564.04 890.089 1563.51 889.673 1563.27C889.256 1563.03 888.724 1563.17 888.483 1563.59C888.243 1564 888.385 1564.54 888.802 1564.78C889.218 1565.02 889.75 1564.87 889.991 1564.46Z" fill="white"/>
<path opacity="0.35" d="M1278.25 1657.9C1278.49 1657.48 1278.35 1656.95 1277.93 1656.71C1277.52 1656.47 1276.98 1656.61 1276.74 1657.03C1276.5 1657.44 1276.65 1657.98 1277.06 1658.22C1277.48 1658.46 1278.01 1658.31 1278.25 1657.9Z" fill="white"/>
<path opacity="0.35" d="M1470.53 1638.19C1470.77 1637.77 1470.63 1637.24 1470.21 1637C1469.8 1636.76 1469.27 1636.9 1469.02 1637.32C1468.78 1637.74 1468.93 1638.27 1469.34 1638.51C1469.76 1638.75 1470.29 1638.61 1470.53 1638.19Z" fill="white"/>
<path opacity="0.35" d="M974.877 1191.13C975.117 1190.72 974.975 1190.18 974.558 1189.94C974.142 1189.7 973.61 1189.85 973.369 1190.26C973.129 1190.68 973.271 1191.21 973.688 1191.45C974.104 1191.69 974.636 1191.55 974.877 1191.13Z" fill="white"/>
<path opacity="0.35" d="M1284.58 1229.16C1284.82 1228.75 1284.67 1228.21 1284.26 1227.97C1283.84 1227.73 1283.31 1227.88 1283.07 1228.29C1282.83 1228.71 1282.97 1229.24 1283.39 1229.48C1283.8 1229.72 1284.34 1229.58 1284.58 1229.16Z" fill="white"/>
<path opacity="0.35" d="M1593.11 1286.63C1593.35 1286.21 1593.2 1285.68 1592.79 1285.44C1592.37 1285.2 1591.84 1285.34 1591.6 1285.75C1591.36 1286.17 1591.5 1286.7 1591.92 1286.94C1592.33 1287.18 1592.87 1287.04 1593.11 1286.63Z" fill="white"/>
<path opacity="0.35" d="M1078.86 889.172C1079.1 888.755 1078.96 888.223 1078.55 887.983C1078.13 887.742 1077.6 887.885 1077.36 888.302C1077.12 888.718 1077.26 889.251 1077.67 889.491C1078.09 889.731 1078.62 889.589 1078.86 889.172Z" fill="white"/>
<path opacity="0.35" d="M1721.39 1099.25C1721.63 1098.83 1721.49 1098.3 1721.07 1098.06C1720.66 1097.82 1720.12 1097.96 1719.88 1098.38C1719.64 1098.79 1719.78 1099.33 1720.2 1099.57C1720.62 1099.81 1721.15 1099.66 1721.39 1099.25Z" fill="white"/>
<path opacity="0.35" d="M1284.86 706.441C1285.11 706.025 1284.96 705.492 1284.55 705.252C1284.13 705.012 1283.6 705.154 1283.36 705.571C1283.12 705.987 1283.26 706.52 1283.68 706.76C1284.09 707.001 1284.62 706.858 1284.86 706.441Z" fill="white"/>
<path opacity="0.35" d="M1701.26 785.96C1701.5 785.544 1701.36 785.011 1700.94 784.771C1700.53 784.531 1699.99 784.673 1699.75 785.09C1699.51 785.506 1699.66 786.039 1700.07 786.279C1700.49 786.52 1701.02 786.377 1701.26 785.96Z" fill="white"/>
<path opacity="0.35" d="M1576.12 532.711C1576.36 532.294 1576.22 531.762 1575.8 531.521C1575.39 531.281 1574.85 531.424 1574.61 531.84C1574.37 532.257 1574.52 532.789 1574.93 533.03C1575.35 533.27 1575.88 533.127 1576.12 532.711Z" fill="white"/>
<path opacity="0.6" d="M468.186 1373.08C468.667 1372.25 468.382 1371.18 467.549 1370.7C466.717 1370.22 465.652 1370.51 465.171 1371.34C464.69 1372.17 464.975 1373.24 465.808 1373.72C466.64 1374.2 467.705 1373.91 468.186 1373.08Z" fill="white"/>
<path opacity="0.6" d="M1111.37 1442.76C1111.85 1441.93 1111.57 1440.86 1110.73 1440.38C1109.9 1439.9 1108.84 1440.18 1108.35 1441.02C1107.87 1441.85 1108.16 1442.92 1108.99 1443.4C1109.82 1443.88 1110.89 1443.59 1111.37 1442.76Z" fill="white"/>
<path opacity="0.6" d="M839.646 903.769C840.126 902.936 839.841 901.871 839.009 901.39C838.176 900.909 837.111 901.195 836.63 902.028C836.15 902.861 836.435 903.926 837.267 904.407C838.1 904.887 839.165 904.602 839.646 903.769Z" fill="white"/>
<path opacity="0.6" d="M1334.42 847.538C1334.9 846.705 1334.61 845.64 1333.78 845.159C1332.95 844.679 1331.88 844.964 1331.4 845.797C1330.92 846.63 1331.21 847.695 1332.04 848.176C1332.87 848.657 1333.94 848.371 1334.42 847.538Z" fill="white"/>
<path opacity="0.6" d="M1062.69 308.548C1063.17 307.715 1062.89 306.65 1062.06 306.17C1061.22 305.689 1060.16 305.975 1059.68 306.808C1059.2 307.641 1059.48 308.706 1060.32 309.186C1061.15 309.667 1062.21 309.381 1062.69 308.548Z" fill="white"/>
<path opacity="0.9" d="M385.335 418.74C386.173 417.566 385.901 415.935 384.728 415.097C383.554 414.259 381.923 414.532 381.085 415.706C380.246 416.88 380.518 418.511 381.692 419.349C382.865 420.187 384.496 419.915 385.335 418.74Z" fill="white"/>
<path opacity="0.9" d="M318.154 991.389C318.853 990.41 318.626 989.051 317.648 988.353C316.67 987.654 315.311 987.882 314.612 988.86C313.914 989.839 314.14 991.198 315.118 991.896C316.096 992.595 317.456 992.367 318.154 991.389Z" fill="white"/>
<path d="M339.806 257.83C340.645 256.656 340.373 255.024 339.2 254.186C338.026 253.348 336.395 253.621 335.556 254.795C334.718 255.97 334.99 257.601 336.163 258.439C337.337 259.277 338.968 259.004 339.806 257.83Z" fill="#00F0FF"/>
<path opacity="0.9" d="M1190.08 728.485C1191.44 729.997 1194.11 730.87 1196.05 730.434C1197.98 729.999 1198.45 728.42 1197.1 726.907C1195.74 725.395 1193.07 724.522 1191.13 724.958C1189.19 725.393 1188.72 726.973 1190.08 728.485Z" fill="white"/>
<path opacity="0.9" d="M344.057 217.533C345.188 218.793 347.413 219.521 349.028 219.157C350.642 218.794 351.034 217.478 349.903 216.218C348.773 214.958 346.547 214.23 344.933 214.593C343.318 214.957 342.926 216.273 344.057 217.533Z" fill="white"/>
<path d="M1451.98 811.895C1453.34 813.407 1456.01 814.28 1457.95 813.844C1459.89 813.408 1460.36 811.829 1459 810.317C1457.64 808.804 1454.97 807.932 1453.04 808.367C1451.1 808.803 1450.63 810.382 1451.98 811.895Z" fill="#00F0FF"/>
<path opacity="0.35" d="M1235.81 1942.52C1236.05 1942.1 1235.91 1941.57 1235.49 1941.33C1235.08 1941.09 1234.54 1941.23 1234.3 1941.65C1234.06 1942.06 1234.21 1942.6 1234.62 1942.84C1235.04 1943.08 1235.57 1942.93 1235.81 1942.52Z" fill="white"/>
<path opacity="0.35" d="M1453.89 1947.76C1454.13 1947.34 1453.99 1946.81 1453.57 1946.57C1453.15 1946.33 1452.62 1946.47 1452.38 1946.89C1452.14 1947.3 1452.28 1947.84 1452.7 1948.08C1453.12 1948.32 1453.65 1948.17 1453.89 1947.76Z" fill="white"/>
<path opacity="0.35" d="M1538.77 1574.44C1539.01 1574.02 1538.87 1573.49 1538.46 1573.25C1538.04 1573.01 1537.51 1573.15 1537.27 1573.56C1537.03 1573.98 1537.17 1574.51 1537.59 1574.75C1538 1574.99 1538.53 1574.85 1538.77 1574.44Z" fill="white"/>
<path opacity="0.35" d="M1642.76 1272.47C1643 1272.06 1642.86 1271.52 1642.44 1271.28C1642.03 1271.04 1641.49 1271.19 1641.25 1271.6C1641.01 1272.02 1641.16 1272.55 1641.57 1272.79C1641.99 1273.03 1642.52 1272.89 1642.76 1272.47Z" fill="white"/>
<path opacity="0.6" d="M283.668 1047.06C284.593 1046.8 285.127 1045.83 284.861 1044.91C284.595 1043.98 283.63 1043.45 282.706 1043.72C281.781 1043.98 281.248 1044.95 281.513 1045.87C281.779 1046.79 282.744 1047.33 283.668 1047.06Z" fill="white"/>
<path opacity="0.6" d="M698.365 1543.62C699.29 1543.35 699.824 1542.39 699.558 1541.46C699.292 1540.54 698.327 1540.01 697.403 1540.27C696.479 1540.54 695.945 1541.5 696.21 1542.43C696.476 1543.35 697.441 1543.88 698.365 1543.62Z" fill="white"/>
<path opacity="0.6" d="M876.817 966.99C877.741 966.724 878.275 965.759 878.009 964.835C877.744 963.911 876.779 963.378 875.854 963.644C874.93 963.91 874.396 964.874 874.662 965.798C874.928 966.722 875.893 967.256 876.817 966.99Z" fill="white"/>
<path opacity="0.6" d="M1272.05 1269.9C1272.98 1269.63 1273.51 1268.67 1273.24 1267.74C1272.98 1266.82 1272.01 1266.28 1271.09 1266.55C1270.16 1266.82 1269.63 1267.78 1269.9 1268.7C1270.16 1269.63 1271.13 1270.16 1272.05 1269.9Z" fill="white"/>
<path opacity="0.6" d="M1450.5 693.269C1451.43 693.003 1451.96 692.039 1451.69 691.115C1451.43 690.191 1450.46 689.657 1449.54 689.923C1448.62 690.189 1448.08 691.154 1448.35 692.078C1448.61 693.002 1449.58 693.535 1450.5 693.269Z" fill="white"/>
<path opacity="0.35" d="M618.497 1397.49C618.737 1397.08 618.595 1396.55 618.178 1396.31C617.762 1396.07 617.23 1396.21 616.989 1396.62C616.749 1397.04 616.891 1397.57 617.307 1397.81C617.724 1398.05 618.256 1397.91 618.497 1397.49Z" fill="white"/>
<path opacity="0.35" d="M836.574 1402.74C836.815 1402.32 836.672 1401.79 836.256 1401.55C835.84 1401.31 835.307 1401.45 835.067 1401.87C834.826 1402.28 834.969 1402.81 835.385 1403.05C835.802 1403.3 836.334 1403.15 836.574 1402.74Z" fill="white"/>
<path opacity="0.35" d="M1224.83 1496.18C1225.07 1495.76 1224.93 1495.23 1224.52 1494.99C1224.1 1494.75 1223.57 1494.89 1223.33 1495.31C1223.09 1495.72 1223.23 1496.25 1223.65 1496.49C1224.06 1496.74 1224.59 1496.59 1224.83 1496.18Z" fill="white"/>
<path opacity="0.35" d="M1417.12 1476.47C1417.36 1476.05 1417.21 1475.52 1416.8 1475.28C1416.38 1475.04 1415.85 1475.18 1415.61 1475.6C1415.37 1476.01 1415.51 1476.55 1415.93 1476.79C1416.34 1477.03 1416.88 1476.88 1417.12 1476.47Z" fill="white"/>
<path opacity="0.35" d="M921.46 1029.41C921.701 1029 921.558 1028.46 921.142 1028.22C920.726 1027.98 920.193 1028.13 919.953 1028.54C919.712 1028.96 919.855 1029.49 920.271 1029.73C920.687 1029.97 921.22 1029.83 921.46 1029.41Z" fill="white"/>
<path opacity="0.35" d="M1231.16 1067.44C1231.4 1067.02 1231.26 1066.49 1230.84 1066.25C1230.43 1066.01 1229.89 1066.15 1229.65 1066.57C1229.41 1066.99 1229.56 1067.52 1229.97 1067.76C1230.39 1068 1230.92 1067.86 1231.16 1067.44Z" fill="white"/>
<path opacity="0.35" d="M1539.69 1124.9C1539.93 1124.49 1539.79 1123.96 1539.37 1123.72C1538.96 1123.47 1538.42 1123.62 1538.18 1124.03C1537.94 1124.45 1538.08 1124.98 1538.5 1125.22C1538.92 1125.46 1539.45 1125.32 1539.69 1124.9Z" fill="white"/>
<path opacity="0.35" d="M1025.45 727.451C1025.69 727.035 1025.54 726.502 1025.13 726.262C1024.71 726.021 1024.18 726.164 1023.94 726.581C1023.7 726.997 1023.84 727.53 1024.26 727.77C1024.67 728.01 1025.21 727.868 1025.45 727.451Z" fill="white"/>
<path opacity="0.35" d="M1667.97 937.526C1668.21 937.109 1668.07 936.577 1667.66 936.336C1667.24 936.096 1666.71 936.239 1666.47 936.655C1666.23 937.072 1666.37 937.604 1666.78 937.844C1667.2 938.085 1667.73 937.942 1667.97 937.526Z" fill="white"/>
<path opacity="0.35" d="M1231.45 544.72C1231.69 544.304 1231.55 543.771 1231.13 543.531C1230.71 543.291 1230.18 543.433 1229.94 543.85C1229.7 544.266 1229.84 544.799 1230.26 545.039C1230.68 545.28 1231.21 545.137 1231.45 544.72Z" fill="white"/>
<path opacity="0.35" d="M1647.85 624.239C1648.09 623.823 1647.94 623.29 1647.53 623.05C1647.11 622.81 1646.58 622.952 1646.34 623.369C1646.1 623.786 1646.24 624.318 1646.66 624.558C1647.07 624.799 1647.61 624.656 1647.85 624.239Z" fill="white"/>
<path opacity="0.35" d="M1522.7 370.99C1522.95 370.573 1522.8 370.041 1522.39 369.8C1521.97 369.56 1521.44 369.703 1521.2 370.119C1520.96 370.536 1521.1 371.068 1521.52 371.309C1521.93 371.549 1522.46 371.406 1522.7 370.99Z" fill="white"/>
<path opacity="0.35" d="M952.945 1498.21C953.186 1497.8 953.043 1497.26 952.627 1497.02C952.211 1496.78 951.678 1496.93 951.438 1497.34C951.197 1497.76 951.34 1498.29 951.756 1498.53C952.172 1498.77 952.705 1498.63 952.945 1498.21Z" fill="white"/>
<path opacity="0.35" d="M1171.02 1503.45C1171.26 1503.04 1171.12 1502.5 1170.7 1502.26C1170.29 1502.02 1169.76 1502.17 1169.52 1502.58C1169.28 1503 1169.42 1503.53 1169.83 1503.77C1170.25 1504.01 1170.78 1503.87 1171.02 1503.45Z" fill="white"/>
<path opacity="0.35" d="M1559.28 1596.89C1559.52 1596.48 1559.38 1595.95 1558.96 1595.7C1558.55 1595.46 1558.02 1595.61 1557.78 1596.02C1557.54 1596.44 1557.68 1596.97 1558.09 1597.21C1558.51 1597.45 1559.04 1597.31 1559.28 1596.89Z" fill="white"/>
<path opacity="0.35" d="M1255.91 1130.13C1256.15 1129.71 1256.01 1129.18 1255.59 1128.94C1255.17 1128.7 1254.64 1128.84 1254.4 1129.26C1254.16 1129.68 1254.3 1130.21 1254.72 1130.45C1255.14 1130.69 1255.67 1130.55 1255.91 1130.13Z" fill="white"/>
<path opacity="0.35" d="M1565.61 1168.16C1565.85 1167.74 1565.71 1167.21 1565.29 1166.97C1564.87 1166.73 1564.34 1166.87 1564.1 1167.29C1563.86 1167.71 1564 1168.24 1564.42 1168.48C1564.84 1168.72 1565.37 1168.58 1565.61 1168.16Z" fill="white"/>
<path opacity="0.35" d="M1359.9 828.169C1360.14 827.753 1359.99 827.22 1359.58 826.98C1359.16 826.739 1358.63 826.882 1358.39 827.299C1358.15 827.715 1358.29 828.248 1358.71 828.488C1359.12 828.728 1359.66 828.586 1359.9 828.169Z" fill="white"/>
<path opacity="0.35" d="M1565.9 645.438C1566.14 645.022 1565.99 644.489 1565.58 644.249C1565.16 644.009 1564.63 644.151 1564.39 644.568C1564.15 644.984 1564.29 645.517 1564.71 645.757C1565.12 645.998 1565.66 645.855 1565.9 645.438Z" fill="white"/>
<path opacity="0.6" d="M749.218 1312.08C749.699 1311.25 749.414 1310.18 748.581 1309.7C747.749 1309.22 746.684 1309.5 746.203 1310.34C745.722 1311.17 746.007 1312.24 746.84 1312.72C747.672 1313.2 748.737 1312.91 749.218 1312.08Z" fill="white"/>
<path opacity="0.6" d="M1392.4 1381.76C1392.88 1380.92 1392.6 1379.86 1391.77 1379.38C1390.93 1378.9 1389.87 1379.18 1389.39 1380.01C1388.91 1380.85 1389.19 1381.91 1390.02 1382.39C1390.86 1382.87 1391.92 1382.59 1392.4 1381.76Z" fill="white"/>
<path opacity="0.6" d="M1120.68 842.766C1121.16 841.933 1120.87 840.868 1120.04 840.387C1119.21 839.906 1118.14 840.192 1117.66 841.025C1117.18 841.858 1117.47 842.923 1118.3 843.404C1119.13 843.884 1120.2 843.599 1120.68 842.766Z" fill="white"/>
<path opacity="0.6" d="M1615.45 786.535C1615.93 785.702 1615.65 784.637 1614.81 784.156C1613.98 783.676 1612.92 783.961 1612.44 784.794C1611.95 785.627 1612.24 786.692 1613.07 787.173C1613.9 787.654 1614.97 787.368 1615.45 786.535Z" fill="white"/>
<path opacity="0.6" d="M1343.73 247.546C1344.21 246.712 1343.92 245.648 1343.09 245.167C1342.26 244.686 1341.19 244.972 1340.71 245.805C1340.23 246.638 1340.52 247.703 1341.35 248.183C1342.18 248.664 1343.25 248.379 1343.73 247.546Z" fill="white"/>
<path opacity="0.9" d="M666.367 357.737C667.205 356.563 666.933 354.932 665.76 354.094C664.586 353.256 662.955 353.529 662.117 354.703C661.278 355.877 661.55 357.508 662.724 358.346C663.897 359.184 665.528 358.912 666.367 357.737Z" fill="white"/>
<path opacity="0.9" d="M599.186 930.386C599.885 929.407 599.659 928.048 598.681 927.35C597.703 926.652 596.343 926.879 595.645 927.857C594.946 928.836 595.172 930.195 596.15 930.893C597.128 931.592 598.488 931.365 599.186 930.386Z" fill="white"/>
<path d="M620.839 196.827C621.677 195.653 621.405 194.021 620.232 193.184C619.058 192.346 617.427 192.618 616.589 193.792C615.75 194.967 616.022 196.598 617.195 197.436C618.369 198.274 620 198.001 620.839 196.827Z" fill="#00F0FF"/>
<path opacity="0.9" d="M1471.11 667.482C1472.47 668.994 1475.14 669.867 1477.08 669.432C1479.01 668.996 1479.48 667.417 1478.13 665.904C1476.77 664.392 1474.1 663.519 1472.16 663.955C1470.23 664.391 1469.76 665.97 1471.11 667.482Z" fill="white"/>
<path opacity="0.9" d="M625.089 156.53C626.22 157.79 628.446 158.518 630.06 158.154C631.674 157.791 632.066 156.475 630.935 155.215C629.805 153.955 627.579 153.227 625.965 153.591C624.35 153.954 623.958 155.27 625.089 156.53Z" fill="white"/>
<path opacity="0.35" d="M1516.84 1881.51C1517.08 1881.1 1516.94 1880.57 1516.52 1880.32C1516.11 1880.08 1515.58 1880.23 1515.34 1880.64C1515.09 1881.06 1515.24 1881.59 1515.65 1881.83C1516.07 1882.07 1516.6 1881.93 1516.84 1881.51Z" fill="white"/>
<path opacity="0.6" d="M347.365 1073.62C348.29 1073.36 348.824 1072.39 348.558 1071.47C348.292 1070.54 347.327 1070.01 346.403 1070.28C345.479 1070.54 344.945 1071.51 345.21 1072.43C345.476 1073.36 346.441 1073.89 347.365 1073.62Z" fill="white"/>
<path opacity="0.6" d="M525.817 496.996C526.741 496.73 527.275 495.765 527.009 494.841C526.744 493.917 525.779 493.384 524.854 493.65C523.93 493.916 523.396 494.88 523.662 495.804C523.928 496.728 524.893 497.262 525.817 496.996Z" fill="white"/>
<path opacity="0.6" d="M921.05 799.902C921.975 799.636 922.509 798.671 922.243 797.748C921.977 796.824 921.012 796.29 920.088 796.556C919.164 796.822 918.63 797.787 918.895 798.711C919.161 799.635 920.126 800.168 921.05 799.902Z" fill="white"/>
<path opacity="0.6" d="M1099.5 223.275C1100.43 223.009 1100.96 222.044 1100.69 221.12C1100.43 220.196 1099.46 219.663 1098.54 219.929C1097.62 220.195 1097.08 221.16 1097.35 222.083C1097.61 223.007 1098.58 223.541 1099.5 223.275Z" fill="white"/>
<path opacity="0.35" d="M267.497 927.501C267.737 927.084 267.595 926.552 267.178 926.311C266.762 926.071 266.23 926.214 265.989 926.63C265.749 927.047 265.891 927.579 266.307 927.82C266.724 928.06 267.256 927.917 267.497 927.501Z" fill="white"/>
<path opacity="0.35" d="M485.574 932.742C485.815 932.325 485.672 931.793 485.256 931.552C484.84 931.312 484.307 931.455 484.067 931.871C483.826 932.288 483.969 932.82 484.385 933.061C484.802 933.301 485.334 933.158 485.574 932.742Z" fill="white"/>
<path opacity="0.35" d="M873.834 1026.18C874.075 1025.77 873.932 1025.23 873.516 1024.99C873.1 1024.75 872.567 1024.89 872.327 1025.31C872.086 1025.73 872.229 1026.26 872.645 1026.5C873.062 1026.74 873.594 1026.6 873.834 1026.18Z" fill="white"/>
<path opacity="0.35" d="M1066.12 1006.47C1066.36 1006.06 1066.21 1005.52 1065.8 1005.28C1065.38 1005.04 1064.85 1005.19 1064.61 1005.6C1064.37 1006.02 1064.51 1006.55 1064.93 1006.79C1065.34 1007.03 1065.88 1006.89 1066.12 1006.47Z" fill="white"/>
<path opacity="0.35" d="M570.46 559.419C570.701 559.002 570.558 558.47 570.142 558.229C569.726 557.989 569.193 558.132 568.953 558.548C568.712 558.965 568.855 559.497 569.271 559.738C569.687 559.978 570.22 559.835 570.46 559.419Z" fill="white"/>
<path opacity="0.35" d="M880.16 597.447C880.401 597.031 880.258 596.498 879.842 596.258C879.426 596.017 878.893 596.16 878.653 596.577C878.412 596.993 878.555 597.526 878.971 597.766C879.387 598.006 879.92 597.864 880.16 597.447Z" fill="white"/>
<path opacity="0.35" d="M1188.69 654.91C1188.93 654.494 1188.79 653.961 1188.37 653.721C1187.96 653.481 1187.42 653.623 1187.18 654.04C1186.94 654.456 1187.08 654.989 1187.5 655.229C1187.92 655.47 1188.45 655.327 1188.69 654.91Z" fill="white"/>
<path opacity="0.35" d="M674.447 257.457C674.687 257.04 674.545 256.508 674.129 256.267C673.712 256.027 673.18 256.17 672.939 256.586C672.699 257.003 672.841 257.535 673.258 257.776C673.674 258.016 674.206 257.873 674.447 257.457Z" fill="white"/>
<path opacity="0.35" d="M1316.97 467.531C1317.21 467.115 1317.07 466.582 1316.66 466.342C1316.24 466.102 1315.71 466.245 1315.47 466.661C1315.23 467.078 1315.37 467.61 1315.78 467.85C1316.2 468.091 1316.73 467.948 1316.97 467.531Z" fill="white"/>
<path opacity="0.35" d="M880.448 74.7263C880.689 74.3097 880.546 73.7772 880.13 73.5369C879.714 73.2966 879.181 73.4394 878.941 73.8559C878.7 74.2724 878.843 74.8049 879.259 75.0452C879.675 75.2856 880.208 75.1428 880.448 74.7263Z" fill="white"/>
<path opacity="0.35" d="M1296.85 154.245C1297.09 153.829 1296.94 153.296 1296.53 153.056C1296.11 152.816 1295.58 152.958 1295.34 153.375C1295.1 153.791 1295.24 154.324 1295.66 154.564C1296.07 154.805 1296.61 154.662 1296.85 154.245Z" fill="white"/>
<path opacity="0.35" d="M601.945 1028.22C602.186 1027.8 602.043 1027.27 601.627 1027.03C601.211 1026.79 600.678 1026.93 600.438 1027.35C600.197 1027.76 600.34 1028.3 600.756 1028.54C601.172 1028.78 601.705 1028.64 601.945 1028.22Z" fill="white"/>
<path opacity="0.35" d="M820.023 1033.46C820.264 1033.04 820.121 1032.51 819.705 1032.27C819.289 1032.03 818.756 1032.17 818.516 1032.59C818.275 1033.01 818.418 1033.54 818.834 1033.78C819.25 1034.02 819.783 1033.88 820.023 1033.46Z" fill="white"/>
<path opacity="0.35" d="M1208.28 1126.9C1208.52 1126.48 1208.38 1125.95 1207.96 1125.71C1207.55 1125.47 1207.02 1125.61 1206.78 1126.03C1206.54 1126.45 1206.68 1126.98 1207.09 1127.22C1207.51 1127.46 1208.04 1127.32 1208.28 1126.9Z" fill="white"/>
<path opacity="0.35" d="M1400.56 1107.19C1400.8 1106.78 1400.66 1106.24 1400.25 1106C1399.83 1105.76 1399.3 1105.91 1399.06 1106.32C1398.82 1106.74 1398.96 1107.27 1399.38 1107.51C1399.79 1107.75 1400.32 1107.61 1400.56 1107.19Z" fill="white"/>
<path opacity="0.35" d="M904.909 660.137C905.149 659.72 905.007 659.188 904.591 658.947C904.174 658.707 903.642 658.85 903.401 659.266C903.161 659.683 903.304 660.215 903.72 660.456C904.136 660.696 904.669 660.553 904.909 660.137Z" fill="white"/>
<path opacity="0.35" d="M1214.61 698.165C1214.85 697.749 1214.71 697.216 1214.29 696.976C1213.87 696.735 1213.34 696.878 1213.1 697.295C1212.86 697.711 1213 698.244 1213.42 698.484C1213.84 698.724 1214.37 698.582 1214.61 698.165Z" fill="white"/>
<path opacity="0.35" d="M1523.14 755.628C1523.38 755.212 1523.24 754.679 1522.82 754.439C1522.4 754.199 1521.87 754.341 1521.63 754.758C1521.39 755.174 1521.53 755.707 1521.95 755.947C1522.37 756.188 1522.9 756.045 1523.14 755.628Z" fill="white"/>
<path opacity="0.35" d="M1008.9 358.175C1009.14 357.758 1008.99 357.226 1008.58 356.986C1008.16 356.745 1007.63 356.888 1007.39 357.304C1007.15 357.721 1007.29 358.253 1007.71 358.494C1008.12 358.734 1008.66 358.591 1008.9 358.175Z" fill="white"/>
<path opacity="0.35" d="M1651.42 568.249C1651.66 567.833 1651.52 567.3 1651.1 567.06C1650.69 566.82 1650.16 566.963 1649.91 567.379C1649.67 567.796 1649.82 568.328 1650.23 568.568C1650.65 568.809 1651.18 568.666 1651.42 568.249Z" fill="white"/>
<path opacity="0.35" d="M1214.9 175.444C1215.14 175.028 1214.99 174.495 1214.58 174.255C1214.16 174.015 1213.63 174.157 1213.39 174.574C1213.15 174.99 1213.29 175.523 1213.71 175.763C1214.12 176.004 1214.66 175.861 1214.9 175.444Z" fill="white"/>
<path opacity="0.35" d="M1631.29 254.963C1631.53 254.547 1631.39 254.014 1630.98 253.774C1630.56 253.534 1630.03 253.676 1629.79 254.093C1629.55 254.509 1629.69 255.042 1630.11 255.282C1630.52 255.523 1631.05 255.38 1631.29 254.963Z" fill="white"/>
<path opacity="0.6" d="M398.218 842.084C398.699 841.251 398.414 840.186 397.581 839.706C396.749 839.225 395.684 839.511 395.203 840.344C394.722 841.177 395.007 842.242 395.84 842.722C396.672 843.203 397.737 842.917 398.218 842.084Z" fill="white"/>
<path opacity="0.6" d="M1041.4 911.761C1041.88 910.928 1041.6 909.863 1040.77 909.383C1039.93 908.902 1038.87 909.187 1038.39 910.02C1037.91 910.854 1038.19 911.918 1039.02 912.399C1039.86 912.88 1040.92 912.594 1041.4 911.761Z" fill="white"/>
<path opacity="0.6" d="M769.678 372.772C770.159 371.939 769.874 370.874 769.041 370.393C768.208 369.912 767.144 370.198 766.663 371.031C766.182 371.864 766.467 372.929 767.299 373.41C768.132 373.89 769.197 373.605 769.678 372.772Z" fill="white"/>
<path opacity="0.6" d="M1264.45 316.541C1264.93 315.708 1264.65 314.643 1263.81 314.162C1262.98 313.682 1261.92 313.967 1261.44 314.8C1260.95 315.633 1261.24 316.698 1262.07 317.179C1262.9 317.66 1263.97 317.374 1264.45 316.541Z" fill="white"/>
<path opacity="0.9" d="M248.186 460.392C248.885 459.413 248.659 458.054 247.681 457.356C246.703 456.657 245.343 456.885 244.645 457.863C243.946 458.842 244.172 460.201 245.151 460.899C246.129 461.598 247.488 461.37 248.186 460.392Z" fill="white"/>
<path opacity="0.9" d="M1120.11 197.488C1121.47 199 1124.14 199.873 1126.08 199.437C1128.01 199.002 1128.48 197.422 1127.13 195.91C1125.77 194.398 1123.1 193.525 1121.16 193.961C1119.23 194.396 1118.76 195.976 1120.11 197.488Z" fill="white"/>
<path d="M1382.02 280.898C1383.37 282.41 1386.04 283.283 1387.98 282.847C1389.92 282.411 1390.39 280.832 1389.03 279.32C1387.68 277.807 1385 276.935 1383.07 277.37C1381.13 277.806 1380.66 279.385 1382.02 280.898Z" fill="#00F0FF"/>
<path opacity="0.35" d="M1165.84 1411.52C1166.08 1411.1 1165.94 1410.57 1165.52 1410.33C1165.11 1410.09 1164.58 1410.23 1164.34 1410.65C1164.09 1411.07 1164.24 1411.6 1164.65 1411.84C1165.07 1412.08 1165.6 1411.94 1165.84 1411.52Z" fill="white"/>
<path opacity="0.35" d="M1383.92 1416.76C1384.16 1416.34 1384.02 1415.81 1383.6 1415.57C1383.19 1415.33 1382.65 1415.47 1382.41 1415.89C1382.17 1416.31 1382.32 1416.84 1382.73 1417.08C1383.15 1417.32 1383.68 1417.18 1383.92 1416.76Z" fill="white"/>
<path opacity="0.35" d="M1468.81 1043.44C1469.05 1043.02 1468.9 1042.49 1468.49 1042.25C1468.07 1042.01 1467.54 1042.15 1467.3 1042.57C1467.06 1042.98 1467.2 1043.52 1467.62 1043.76C1468.03 1044 1468.57 1043.85 1468.81 1043.44Z" fill="white"/>
<path opacity="0.35" d="M1572.79 741.476C1573.03 741.06 1572.89 740.527 1572.47 740.287C1572.06 740.046 1571.53 740.189 1571.29 740.606C1571.05 741.022 1571.19 741.555 1571.6 741.795C1572.02 742.035 1572.55 741.893 1572.79 741.476Z" fill="white"/>
<path opacity="0.35" d="M1778.79 558.745C1779.03 558.329 1778.89 557.796 1778.48 557.556C1778.06 557.316 1777.53 557.458 1777.29 557.875C1777.05 558.291 1777.19 558.824 1777.61 559.064C1778.02 559.305 1778.55 559.162 1778.79 558.745Z" fill="white"/>
<path opacity="0.6" d="M119.365 1158.62C120.29 1158.36 120.824 1157.39 120.558 1156.47C120.292 1155.54 119.327 1155.01 118.403 1155.28C117.479 1155.54 116.945 1156.51 117.21 1157.43C117.476 1158.35 118.441 1158.89 119.365 1158.62Z" fill="white"/>
<path opacity="0.6" d="M297.817 581.994C298.741 581.728 299.275 580.764 299.009 579.84C298.744 578.916 297.779 578.382 296.854 578.648C295.93 578.914 295.396 579.879 295.662 580.803C295.928 581.727 296.893 582.26 297.817 581.994Z" fill="white"/>
<path opacity="0.6" d="M693.05 884.901C693.975 884.635 694.509 883.67 694.243 882.746C693.977 881.822 693.012 881.289 692.088 881.555C691.164 881.821 690.63 882.785 690.895 883.709C691.161 884.633 692.126 885.166 693.05 884.901Z" fill="white"/>
<path opacity="0.6" d="M871.502 308.273C872.427 308.007 872.96 307.043 872.695 306.119C872.429 305.195 871.464 304.662 870.54 304.928C869.615 305.194 869.081 306.158 869.347 307.082C869.613 308.006 870.578 308.539 871.502 308.273Z" fill="white"/>
<path opacity="0.35" d="M39.4967 1012.5C39.7371 1012.08 39.5946 1011.55 39.1783 1011.31C38.762 1011.07 38.2296 1011.21 37.9891 1011.63C37.7487 1012.05 37.8912 1012.58 38.3075 1012.82C38.7238 1013.06 39.2562 1012.92 39.4967 1012.5Z" fill="white"/>
<path opacity="0.35" d="M257.574 1017.74C257.815 1017.32 257.672 1016.79 257.256 1016.55C256.84 1016.31 256.307 1016.45 256.067 1016.87C255.826 1017.29 255.969 1017.82 256.385 1018.06C256.802 1018.3 257.334 1018.16 257.574 1017.74Z" fill="white"/>
<path opacity="0.35" d="M645.834 1111.18C646.075 1110.76 645.932 1110.23 645.516 1109.99C645.1 1109.75 644.567 1109.89 644.327 1110.31C644.086 1110.73 644.229 1111.26 644.645 1111.5C645.062 1111.74 645.594 1111.6 645.834 1111.18Z" fill="white"/>
<path opacity="0.35" d="M838.116 1091.47C838.356 1091.06 838.214 1090.52 837.797 1090.28C837.381 1090.04 836.849 1090.19 836.608 1090.6C836.368 1091.02 836.51 1091.55 836.927 1091.79C837.343 1092.03 837.875 1091.89 838.116 1091.47Z" fill="white"/>
<path opacity="0.35" d="M342.46 644.417C342.701 644.001 342.558 643.468 342.142 643.228C341.726 642.988 341.193 643.13 340.953 643.547C340.712 643.963 340.855 644.496 341.271 644.736C341.687 644.977 342.22 644.834 342.46 644.417Z" fill="white"/>
<path opacity="0.35" d="M652.16 682.446C652.401 682.029 652.258 681.497 651.842 681.256C651.426 681.016 650.893 681.159 650.653 681.575C650.412 681.992 650.555 682.524 650.971 682.765C651.387 683.005 651.92 682.862 652.16 682.446Z" fill="white"/>
<path opacity="0.35" d="M960.69 739.909C960.93 739.492 960.788 738.96 960.371 738.719C959.955 738.479 959.423 738.622 959.182 739.038C958.942 739.455 959.084 739.987 959.501 740.228C959.917 740.468 960.449 740.325 960.69 739.909Z" fill="white"/>
<path opacity="0.35" d="M446.447 342.455C446.687 342.039 446.545 341.506 446.129 341.266C445.712 341.026 445.18 341.168 444.939 341.585C444.699 342.002 444.841 342.534 445.258 342.774C445.674 343.015 446.206 342.872 446.447 342.455Z" fill="white"/>
<path opacity="0.35" d="M1088.97 552.53C1089.21 552.113 1089.07 551.581 1088.65 551.341C1088.24 551.1 1087.71 551.243 1087.47 551.66C1087.23 552.076 1087.37 552.609 1087.78 552.849C1088.2 553.089 1088.73 552.946 1088.97 552.53Z" fill="white"/>
<path opacity="0.35" d="M652.448 159.725C652.689 159.308 652.546 158.776 652.13 158.535C651.714 158.295 651.181 158.438 650.941 158.854C650.7 159.271 650.843 159.803 651.259 160.044C651.675 160.284 652.208 160.141 652.448 159.725Z" fill="white"/>
<path opacity="0.35" d="M1068.85 239.244C1069.09 238.827 1068.94 238.295 1068.53 238.054C1068.11 237.814 1067.58 237.957 1067.34 238.373C1067.1 238.79 1067.24 239.322 1067.66 239.563C1068.07 239.803 1068.61 239.66 1068.85 239.244Z" fill="white"/>
<path opacity="0.35" d="M1281.21 80.3001C1281.45 79.8836 1281.31 79.3511 1280.9 79.1108C1280.48 78.8704 1279.95 79.0132 1279.71 79.4297C1279.47 79.8462 1279.61 80.3787 1280.02 80.6191C1280.44 80.8594 1280.97 80.7166 1281.21 80.3001Z" fill="white"/>
<path opacity="0.35" d="M373.945 1113.22C374.186 1112.8 374.043 1112.27 373.627 1112.03C373.211 1111.79 372.678 1111.93 372.438 1112.35C372.197 1112.76 372.34 1113.3 372.756 1113.54C373.172 1113.78 373.705 1113.63 373.945 1113.22Z" fill="white"/>
<path opacity="0.35" d="M592.023 1118.46C592.263 1118.04 592.121 1117.51 591.705 1117.27C591.288 1117.03 590.756 1117.17 590.515 1117.59C590.275 1118 590.418 1118.54 590.834 1118.78C591.25 1119.02 591.783 1118.87 592.023 1118.46Z" fill="white"/>
<path opacity="0.35" d="M980.283 1211.9C980.524 1211.48 980.381 1210.95 979.965 1210.71C979.548 1210.47 979.016 1210.61 978.776 1211.03C978.535 1211.44 978.678 1211.98 979.094 1212.22C979.51 1212.46 980.043 1212.31 980.283 1211.9Z" fill="white"/>
<path opacity="0.35" d="M1172.56 1192.19C1172.8 1191.77 1172.66 1191.24 1172.25 1191C1171.83 1190.76 1171.3 1190.9 1171.06 1191.32C1170.82 1191.74 1170.96 1192.27 1171.38 1192.51C1171.79 1192.75 1172.32 1192.61 1172.56 1192.19Z" fill="white"/>
<path opacity="0.35" d="M676.909 745.135C677.149 744.719 677.007 744.186 676.591 743.946C676.174 743.706 675.642 743.848 675.401 744.265C675.161 744.682 675.303 745.214 675.72 745.454C676.136 745.695 676.668 745.552 676.909 745.135Z" fill="white"/>
<path opacity="0.35" d="M986.609 783.164C986.849 782.747 986.707 782.215 986.291 781.974C985.874 781.734 985.342 781.877 985.101 782.293C984.861 782.71 985.003 783.242 985.42 783.483C985.836 783.723 986.368 783.58 986.609 783.164Z" fill="white"/>
<path opacity="0.35" d="M1295.14 840.627C1295.38 840.21 1295.24 839.678 1294.82 839.437C1294.4 839.197 1293.87 839.34 1293.63 839.756C1293.39 840.173 1293.53 840.705 1293.95 840.946C1294.37 841.186 1294.9 841.043 1295.14 840.627Z" fill="white"/>
<path opacity="0.35" d="M780.895 443.173C781.136 442.757 780.993 442.224 780.577 441.984C780.161 441.744 779.628 441.887 779.388 442.303C779.147 442.72 779.29 443.252 779.706 443.492C780.123 443.733 780.655 443.59 780.895 443.173Z" fill="white"/>
<path opacity="0.35" d="M1423.42 653.248C1423.66 652.831 1423.52 652.299 1423.1 652.059C1422.69 651.818 1422.15 651.961 1421.91 652.378C1421.67 652.794 1421.82 653.327 1422.23 653.567C1422.65 653.807 1423.18 653.664 1423.42 653.248Z" fill="white"/>
<path opacity="0.35" d="M986.897 260.443C987.137 260.026 986.995 259.494 986.578 259.253C986.162 259.013 985.63 259.156 985.389 259.572C985.149 259.989 985.291 260.521 985.708 260.762C986.124 261.002 986.656 260.859 986.897 260.443Z" fill="white"/>
<path opacity="0.35" d="M1403.29 339.962C1403.53 339.545 1403.39 339.013 1402.98 338.772C1402.56 338.532 1402.03 338.675 1401.79 339.091C1401.55 339.508 1401.69 340.04 1402.11 340.281C1402.52 340.521 1403.05 340.378 1403.29 339.962Z" fill="white"/>
<path opacity="0.35" d="M1278.15 86.7122C1278.39 86.2957 1278.25 85.7632 1277.84 85.5229C1277.42 85.2825 1276.89 85.4253 1276.65 85.8418C1276.41 86.2584 1276.55 86.7908 1276.96 87.0312C1277.38 87.2715 1277.91 87.1287 1278.15 86.7122Z" fill="white"/>
<path opacity="0.35" d="M1615.66 181.018C1615.9 180.602 1615.76 180.069 1615.34 179.829C1614.93 179.588 1614.4 179.731 1614.15 180.148C1613.91 180.564 1614.06 181.097 1614.47 181.337C1614.89 181.577 1615.42 181.435 1615.66 181.018Z" fill="white"/>
<path opacity="0.6" d="M170.218 927.083C170.699 926.25 170.414 925.185 169.581 924.704C168.749 924.223 167.684 924.509 167.203 925.342C166.722 926.175 167.007 927.24 167.84 927.721C168.672 928.202 169.737 927.916 170.218 927.083Z" fill="white"/>
<path opacity="0.6" d="M813.402 996.76C813.883 995.927 813.598 994.862 812.765 994.381C811.932 993.9 810.868 994.186 810.387 995.019C809.906 995.852 810.191 996.917 811.023 997.398C811.856 997.878 812.921 997.593 813.402 996.76Z" fill="white"/>
<path opacity="0.6" d="M541.678 457.77C542.158 456.937 541.873 455.872 541.041 455.391C540.208 454.911 539.143 455.196 538.662 456.029C538.182 456.862 538.467 457.927 539.299 458.408C540.132 458.889 541.197 458.603 541.678 457.77Z" fill="white"/>
<path opacity="0.6" d="M1036.45 401.54C1036.93 400.707 1036.65 399.642 1035.81 399.161C1034.98 398.68 1033.92 398.966 1033.44 399.799C1032.95 400.632 1033.24 401.697 1034.07 402.177C1034.9 402.658 1035.97 402.373 1036.45 401.54Z" fill="white"/>
<path opacity="0.9" d="M20.1864 545.39C20.8851 544.412 20.6586 543.053 19.6806 542.354C18.7026 541.656 17.3433 541.883 16.6446 542.862C15.946 543.84 16.1724 545.2 17.1504 545.898C18.1285 546.596 19.4877 546.369 20.1864 545.39Z" fill="white"/>
<path opacity="0.9" d="M892.113 282.487C893.47 283.999 896.14 284.872 898.077 284.436C900.015 284 900.485 282.421 899.128 280.909C897.771 279.396 895.1 278.524 893.163 278.959C891.226 279.395 890.756 280.974 892.113 282.487Z" fill="white"/>
<path d="M1154.02 365.896C1155.37 367.408 1158.04 368.281 1159.98 367.846C1161.92 367.41 1162.39 365.831 1161.03 364.318C1159.68 362.806 1157 361.933 1155.07 362.369C1153.13 362.805 1152.66 364.384 1154.02 365.896Z" fill="#00F0FF"/>
<path opacity="0.35" d="M937.843 1496.52C938.083 1496.1 937.941 1495.57 937.524 1495.33C937.108 1495.09 936.576 1495.23 936.335 1495.65C936.095 1496.06 936.237 1496.6 936.653 1496.84C937.07 1497.08 937.602 1496.93 937.843 1496.52Z" fill="white"/>
<path opacity="0.35" d="M1155.92 1501.76C1156.16 1501.34 1156.02 1500.81 1155.6 1500.57C1155.19 1500.33 1154.65 1500.47 1154.41 1500.89C1154.17 1501.31 1154.32 1501.84 1154.73 1502.08C1155.15 1502.32 1155.68 1502.18 1155.92 1501.76Z" fill="white"/>
<path opacity="0.35" d="M1544.18 1595.2C1544.42 1594.78 1544.28 1594.25 1543.86 1594.01C1543.45 1593.77 1542.91 1593.91 1542.67 1594.33C1542.43 1594.75 1542.57 1595.28 1542.99 1595.52C1543.41 1595.76 1543.94 1595.62 1544.18 1595.2Z" fill="white"/>
<path opacity="0.35" d="M1240.81 1128.44C1241.05 1128.02 1240.9 1127.49 1240.49 1127.25C1240.07 1127.01 1239.54 1127.15 1239.3 1127.57C1239.06 1127.98 1239.2 1128.52 1239.62 1128.76C1240.03 1129 1240.57 1128.85 1240.81 1128.44Z" fill="white"/>
<path opacity="0.35" d="M1550.51 1166.46C1550.75 1166.05 1550.6 1165.52 1550.19 1165.28C1549.77 1165.04 1549.24 1165.18 1549 1165.59C1548.76 1166.01 1548.9 1166.54 1549.32 1166.78C1549.73 1167.02 1550.27 1166.88 1550.51 1166.46Z" fill="white"/>
<path opacity="0.35" d="M1344.79 826.475C1345.03 826.058 1344.89 825.526 1344.47 825.285C1344.06 825.045 1343.53 825.188 1343.29 825.604C1343.04 826.021 1343.19 826.553 1343.6 826.794C1344.02 827.034 1344.55 826.891 1344.79 826.475Z" fill="white"/>
<path opacity="0.35" d="M1550.79 643.744C1551.03 643.327 1550.89 642.795 1550.48 642.555C1550.06 642.314 1549.53 642.457 1549.29 642.874C1549.05 643.29 1549.19 643.823 1549.6 644.063C1550.02 644.303 1550.55 644.16 1550.79 643.744Z" fill="white"/>
<path opacity="0.35" d="M1842.05 470.013C1842.29 469.597 1842.15 469.064 1841.73 468.824C1841.32 468.584 1840.78 468.726 1840.54 469.143C1840.3 469.559 1840.45 470.092 1840.86 470.332C1841.28 470.573 1841.81 470.43 1842.05 470.013Z" fill="white"/>
<path opacity="0.6" d="M1095.67 1531.07C1096.59 1530.8 1097.13 1529.84 1096.86 1528.91C1096.6 1527.99 1095.63 1527.46 1094.71 1527.72C1093.78 1527.99 1093.25 1528.95 1093.51 1529.88C1093.78 1530.8 1094.74 1531.33 1095.67 1531.07Z" fill="white"/>
<path opacity="0.6" d="M1510.37 2027.62C1511.29 2027.36 1511.82 2026.39 1511.56 2025.47C1511.29 2024.54 1510.33 2024.01 1509.4 2024.28C1508.48 2024.54 1507.94 2025.51 1508.21 2026.43C1508.48 2027.36 1509.44 2027.89 1510.37 2027.62Z" fill="white"/>
<path opacity="0.6" d="M1688.82 1451C1689.74 1450.73 1690.28 1449.76 1690.01 1448.84C1689.74 1447.92 1688.78 1447.38 1687.85 1447.65C1686.93 1447.92 1686.4 1448.88 1686.66 1449.8C1686.93 1450.73 1687.89 1451.26 1688.82 1451Z" fill="white"/>
<path opacity="0.35" d="M1430.5 1881.5C1430.74 1881.08 1430.59 1880.55 1430.18 1880.31C1429.76 1880.07 1429.23 1880.21 1428.99 1880.63C1428.75 1881.05 1428.89 1881.58 1429.31 1881.82C1429.72 1882.06 1430.26 1881.92 1430.5 1881.5Z" fill="white"/>
<path opacity="0.35" d="M1648.57 1886.74C1648.82 1886.32 1648.67 1885.79 1648.26 1885.55C1647.84 1885.31 1647.31 1885.45 1647.07 1885.87C1646.83 1886.29 1646.97 1886.82 1647.39 1887.06C1647.8 1887.3 1648.33 1887.16 1648.57 1886.74Z" fill="white"/>
<path opacity="0.6" d="M1561.22 1796.08C1561.7 1795.25 1561.41 1794.19 1560.58 1793.71C1559.75 1793.23 1558.68 1793.51 1558.2 1794.34C1557.72 1795.18 1558.01 1796.24 1558.84 1796.72C1559.67 1797.2 1560.74 1796.92 1561.22 1796.08Z" fill="white"/>
<path opacity="0.9" d="M1478.37 841.743C1479.21 840.569 1478.93 838.938 1477.76 838.1C1476.59 837.262 1474.96 837.534 1474.12 838.709C1473.28 839.883 1473.55 841.514 1474.72 842.352C1475.9 843.19 1477.53 842.917 1478.37 841.743Z" fill="white"/>
<path opacity="0.9" d="M1411.19 1414.39C1411.89 1413.41 1411.66 1412.05 1410.68 1411.36C1409.7 1410.66 1408.34 1410.88 1407.64 1411.86C1406.95 1412.84 1407.17 1414.2 1408.15 1414.9C1409.13 1415.6 1410.49 1415.37 1411.19 1414.39Z" fill="white"/>
<path d="M1432.84 680.833C1433.68 679.658 1433.41 678.027 1432.23 677.189C1431.06 676.351 1429.43 676.624 1428.59 677.798C1427.75 678.972 1428.02 680.604 1429.2 681.442C1430.37 682.28 1432 682.007 1432.84 680.833Z" fill="#00F0FF"/>
<path opacity="0.9" d="M1437.09 640.536C1438.22 641.796 1440.45 642.523 1442.06 642.16C1443.67 641.797 1444.07 640.481 1442.94 639.221C1441.8 637.961 1439.58 637.233 1437.96 637.596C1436.35 637.96 1435.96 639.276 1437.09 640.536Z" fill="white"/>
<path opacity="0.35" d="M944.608 1495.03C944.299 1494.73 943.77 1494.78 943.428 1495.13C943.085 1495.49 943.058 1496.02 943.368 1496.33C943.677 1496.63 944.205 1496.58 944.548 1496.22C944.89 1495.86 944.917 1495.33 944.608 1495.03Z" fill="white"/>
<path opacity="0.35" d="M1013.82 1287.41C1013.51 1287.11 1012.98 1287.15 1012.64 1287.51C1012.3 1287.87 1012.27 1288.4 1012.58 1288.7C1012.89 1289 1013.42 1288.96 1013.76 1288.6C1014.1 1288.24 1014.13 1287.71 1013.82 1287.41Z" fill="white"/>
<path opacity="0.35" d="M1213.78 931.909C1213.47 931.609 1212.95 931.656 1212.6 932.014C1212.26 932.371 1212.23 932.905 1212.54 933.205C1212.85 933.505 1213.38 933.458 1213.72 933.101C1214.07 932.743 1214.09 932.21 1213.78 931.909Z" fill="white"/>
<path opacity="0.35" d="M1252.61 744.755C1252.3 744.454 1251.77 744.501 1251.43 744.859C1251.09 745.217 1251.06 745.75 1251.37 746.05C1251.68 746.35 1252.21 746.304 1252.55 745.946C1252.89 745.588 1252.92 745.055 1252.61 744.755Z" fill="white"/>
<path opacity="0.35" d="M698.29 1143.45C697.98 1143.15 697.452 1143.2 697.11 1143.56C696.767 1143.92 696.74 1144.45 697.05 1144.75C697.359 1145.05 697.887 1145 698.229 1144.65C698.572 1144.29 698.599 1143.75 698.29 1143.45Z" fill="white"/>
<path opacity="0.35" d="M824.486 853.747C824.176 853.446 823.648 853.493 823.306 853.851C822.963 854.209 822.936 854.742 823.245 855.042C823.555 855.342 824.083 855.296 824.425 854.938C824.768 854.58 824.795 854.047 824.486 853.747Z" fill="white"/>
<path opacity="0.35" d="M968.068 568.428C967.758 568.127 967.23 568.174 966.888 568.532C966.545 568.89 966.518 569.423 966.828 569.723C967.137 570.023 967.665 569.977 968.007 569.619C968.35 569.261 968.377 568.728 968.068 568.428Z" fill="white"/>
<path opacity="0.35" d="M453.51 993.242C453.201 992.941 452.673 992.988 452.33 993.346C451.988 993.704 451.961 994.237 452.27 994.537C452.579 994.837 453.107 994.791 453.45 994.433C453.792 994.075 453.819 993.542 453.51 993.242Z" fill="white"/>
<path opacity="0.35" d="M835.009 414.258C834.7 413.958 834.172 414.005 833.829 414.362C833.487 414.72 833.46 415.253 833.769 415.554C834.078 415.854 834.607 415.807 834.949 415.449C835.292 415.092 835.319 414.558 835.009 414.258Z" fill="white"/>
<path opacity="0.35" d="M347.654 765.548C347.345 765.248 346.817 765.295 346.474 765.652C346.132 766.01 346.105 766.544 346.414 766.844C346.723 767.144 347.251 767.097 347.594 766.74C347.936 766.382 347.963 765.848 347.654 765.548Z" fill="white"/>
<path opacity="0.35" d="M543.229 380.806C542.919 380.506 542.391 380.553 542.049 380.911C541.706 381.268 541.679 381.802 541.989 382.102C542.298 382.402 542.826 382.355 543.168 381.998C543.511 381.64 543.538 381.107 543.229 380.806Z" fill="white"/>
<path opacity="0.35" d="M275.198 457.856C274.889 457.556 274.36 457.603 274.018 457.96C273.676 458.318 273.649 458.851 273.958 459.152C274.267 459.452 274.795 459.405 275.138 459.047C275.48 458.69 275.507 458.156 275.198 457.856Z" fill="white"/>
<path opacity="0.35" d="M460.956 151.027C460.647 150.727 460.119 150.773 459.776 151.131C459.434 151.489 459.407 152.022 459.716 152.322C460.025 152.622 460.554 152.576 460.896 152.218C461.239 151.86 461.266 151.327 460.956 151.027Z" fill="white"/>
<path opacity="0.35" d="M1112.37 2462.02C1112.02 2461.68 1111.47 2461.69 1111.13 2462.04C1110.8 2462.39 1110.81 2462.95 1111.16 2463.28C1111.5 2463.62 1112.05 2463.61 1112.39 2463.26C1112.72 2462.91 1112.71 2462.36 1112.37 2462.02Z" fill="white"/>
<path opacity="0.35" d="M1170.03 2250.14C1169.68 2249.8 1169.13 2249.81 1168.79 2250.16C1168.46 2250.51 1168.47 2251.06 1168.82 2251.4C1169.16 2251.74 1169.72 2251.73 1170.05 2251.38C1170.38 2251.03 1170.37 2250.47 1170.03 2250.14Z" fill="white"/>
<path opacity="0.35" d="M1354.31 1893.33C1353.97 1892.99 1353.41 1893 1353.08 1893.35C1352.75 1893.7 1352.76 1894.25 1353.1 1894.59C1353.45 1894.93 1354 1894.92 1354.34 1894.57C1354.67 1894.22 1354.66 1893.66 1354.31 1893.33Z" fill="white"/>
<path opacity="0.35" d="M1381.54 1700.6C1381.19 1700.26 1380.64 1700.27 1380.31 1700.62C1379.98 1700.97 1379.99 1701.53 1380.33 1701.86C1380.68 1702.2 1381.23 1702.19 1381.56 1701.84C1381.9 1701.49 1381.89 1700.94 1381.54 1700.6Z" fill="white"/>
<path opacity="0.35" d="M828.178 2076.52C827.832 2076.19 827.281 2076.2 826.947 2076.55C826.613 2076.89 826.623 2077.45 826.97 2077.79C827.316 2078.12 827.868 2078.11 828.201 2077.76C828.535 2077.42 828.525 2076.86 828.178 2076.52Z" fill="white"/>
<path opacity="0.35" d="M939.748 1783.05C939.401 1782.71 938.85 1782.72 938.516 1783.07C938.182 1783.42 938.193 1783.97 938.539 1784.31C938.886 1784.64 939.437 1784.63 939.771 1784.29C940.104 1783.94 940.094 1783.38 939.748 1783.05Z" fill="white"/>
<path opacity="0.35" d="M1069.9 1495.43C1069.55 1495.1 1069 1495.1 1068.66 1495.45C1068.33 1495.8 1068.34 1496.36 1068.69 1496.69C1069.03 1497.03 1069.59 1497.02 1069.92 1496.67C1070.25 1496.32 1070.24 1495.77 1069.9 1495.43Z" fill="white"/>
<path opacity="0.35" d="M560.192 1901.57C559.846 1901.23 559.294 1901.24 558.961 1901.59C558.627 1901.94 558.637 1902.49 558.984 1902.83C559.33 1903.17 559.881 1903.16 560.215 1902.81C560.549 1902.46 560.538 1901.9 560.192 1901.57Z" fill="white"/>
<path opacity="0.35" d="M918.971 1324.55C918.625 1324.21 918.073 1324.22 917.739 1324.57C917.406 1324.92 917.416 1325.47 917.763 1325.81C918.109 1326.15 918.66 1326.14 918.994 1325.79C919.328 1325.44 919.317 1324.88 918.971 1324.55Z" fill="white"/>
<path opacity="0.35" d="M432.514 1655.85C432.167 1655.51 431.616 1655.52 431.282 1655.87C430.949 1656.22 430.959 1656.77 431.305 1657.11C431.652 1657.45 432.203 1657.44 432.537 1657.09C432.871 1656.74 432.86 1656.18 432.514 1655.85Z" fill="white"/>
<path opacity="0.35" d="M610.073 1268.15C609.726 1267.82 609.175 1267.83 608.841 1268.18C608.507 1268.52 608.518 1269.08 608.864 1269.42C609.211 1269.75 609.762 1269.74 610.096 1269.39C610.429 1269.05 610.419 1268.49 610.073 1268.15Z" fill="white"/>
<path opacity="0.35" d="M334.124 1328.98C333.777 1328.65 333.226 1328.66 332.892 1329C332.558 1329.35 332.569 1329.91 332.915 1330.24C333.262 1330.58 333.813 1330.57 334.147 1330.22C334.48 1329.87 334.47 1329.32 334.124 1328.98Z" fill="white"/>
<path opacity="0.35" d="M507.015 1021.99C506.668 1021.65 506.117 1021.66 505.783 1022.01C505.45 1022.36 505.46 1022.91 505.806 1023.25C506.153 1023.59 506.704 1023.58 507.038 1023.23C507.372 1022.88 507.361 1022.32 507.015 1021.99Z" fill="white"/>
<path opacity="0.9" d="M1490.72 2262.26C1491.89 2261.41 1492.72 2259.57 1492.56 2258.15C1492.39 2256.74 1491.31 2256.29 1490.14 2257.14C1488.96 2258 1488.14 2259.84 1488.3 2261.25C1488.46 2262.66 1489.54 2263.12 1490.72 2262.26Z" fill="white"/>
<path d="M1569.78 2081.79C1570.95 2080.93 1571.78 2079.09 1571.62 2077.68C1571.46 2076.27 1570.37 2075.81 1569.2 2076.67C1568.02 2077.52 1567.2 2079.36 1567.36 2080.77C1567.52 2082.19 1568.6 2082.64 1569.78 2081.79Z" fill="#00F0FF"/>
</svg>
