<svg width="1938" height="2736" viewBox="0 0 1938 2736" fill="none" xmlns="http://www.w3.org/2000/svg">
<path opacity="0.6" d="M1268.14 2602.88C1267.44 2602.22 1266.34 2602.24 1265.67 2602.93C1265.01 2603.62 1265.03 2604.72 1265.72 2605.39C1266.41 2606.06 1267.51 2606.04 1268.18 2605.35C1268.85 2604.65 1268.83 2603.55 1268.14 2602.88Z" fill="white"/>
<path opacity="0.35" d="M1487.71 2530.63C1487.23 2530.63 1486.84 2531.02 1486.84 2531.5C1486.84 2531.98 1487.23 2532.37 1487.71 2532.37C1488.19 2532.37 1488.58 2531.98 1488.58 2531.5C1488.58 2531.02 1488.19 2530.63 1487.71 2530.63Z" fill="white"/>
<path opacity="0.35" d="M1374.5 2373.97C1374.02 2373.97 1373.63 2374.36 1373.63 2374.84C1373.63 2375.32 1374.02 2375.71 1374.5 2375.71C1374.98 2375.71 1375.37 2375.32 1375.37 2374.84C1375.37 2374.36 1374.98 2373.97 1374.5 2373.97Z" fill="white"/>
<path opacity="0.35" d="M1008.75 2443.6C1008.27 2443.6 1007.88 2443.99 1007.88 2444.47C1007.88 2444.95 1008.27 2445.34 1008.75 2445.34C1009.23 2445.34 1009.62 2444.95 1009.62 2444.47C1009.62 2443.99 1009.23 2443.6 1008.75 2443.6Z" fill="white"/>
<path opacity="0.35" d="M782.333 2426.19C781.852 2426.19 781.462 2426.58 781.462 2427.06C781.462 2427.54 781.852 2427.93 782.333 2427.93C782.814 2427.93 783.204 2427.54 783.204 2427.06C783.204 2426.58 782.814 2426.19 782.333 2426.19Z" fill="white"/>
<path opacity="0.35" d="M521.083 2600.26C520.602 2600.26 520.212 2600.65 520.212 2601.13C520.212 2601.61 520.602 2602 521.083 2602C521.564 2602 521.954 2601.61 521.954 2601.13C521.954 2600.65 521.564 2600.26 521.083 2600.26Z" fill="white"/>
<path opacity="0.35" d="M277.25 2495.82C276.769 2495.82 276.379 2496.21 276.379 2496.69C276.379 2497.17 276.769 2497.56 277.25 2497.56C277.731 2497.56 278.121 2497.17 278.121 2496.69C278.121 2496.21 277.731 2495.82 277.25 2495.82Z" fill="white"/>
<path opacity="0.35" d="M1520.92 2573.6C1520.44 2573.6 1520.05 2573.99 1520.05 2574.47C1520.05 2574.95 1520.44 2575.34 1520.92 2575.34C1521.4 2575.34 1521.79 2574.95 1521.79 2574.47C1521.79 2573.99 1521.4 2573.6 1520.92 2573.6Z" fill="white"/>
<path opacity="0.35" d="M1407.71 2190.63C1407.23 2190.63 1406.84 2191.02 1406.84 2191.5C1406.84 2191.98 1407.23 2192.37 1407.71 2192.37C1408.19 2192.37 1408.58 2191.98 1408.58 2191.5C1408.58 2191.02 1408.19 2190.63 1407.71 2190.63Z" fill="white"/>
<path opacity="0.35" d="M1294.5 2033.97C1294.02 2033.97 1293.63 2034.36 1293.63 2034.84C1293.63 2035.32 1294.02 2035.71 1294.5 2035.71C1294.98 2035.71 1295.37 2035.32 1295.37 2034.84C1295.37 2034.36 1294.98 2033.97 1294.5 2033.97Z" fill="white"/>
<path opacity="0.35" d="M1155.17 2686.75C1154.69 2686.75 1154.3 2687.13 1154.3 2687.62C1154.3 2688.1 1154.69 2688.49 1155.17 2688.49C1155.65 2688.49 1156.04 2688.1 1156.04 2687.62C1156.04 2687.13 1155.65 2686.75 1155.17 2686.75Z" fill="white"/>
<path opacity="0.35" d="M1033.25 2399.52C1032.77 2399.52 1032.38 2399.91 1032.38 2400.39C1032.38 2400.87 1032.77 2401.26 1033.25 2401.26C1033.73 2401.26 1034.12 2400.87 1034.12 2400.39C1034.12 2399.91 1033.73 2399.52 1033.25 2399.52Z" fill="white"/>
<path opacity="0.35" d="M928.75 2103.6C928.269 2103.6 927.879 2103.99 927.879 2104.47C927.879 2104.95 928.269 2105.34 928.75 2105.34C929.231 2105.34 929.621 2104.95 929.621 2104.47C929.621 2103.99 929.231 2103.6 928.75 2103.6Z" fill="white"/>
<path opacity="0.35" d="M702.333 2086.19C701.852 2086.19 701.462 2086.58 701.462 2087.06C701.462 2087.54 701.852 2087.93 702.333 2087.93C702.814 2087.93 703.204 2087.54 703.204 2087.06C703.204 2086.58 702.814 2086.19 702.333 2086.19Z" fill="white"/>
<path opacity="0.35" d="M580.416 2660.63C579.935 2660.63 579.546 2661.02 579.546 2661.5C579.546 2661.98 579.935 2662.37 580.416 2662.37C580.897 2662.37 581.287 2661.98 581.287 2661.5C581.287 2661.02 580.897 2660.63 580.416 2660.63Z" fill="white"/>
<path opacity="0.35" d="M441.083 2260.26C440.602 2260.26 440.212 2260.65 440.212 2261.13C440.212 2261.61 440.602 2262 441.083 2262C441.564 2262 441.954 2261.61 441.954 2261.13C441.954 2260.65 441.564 2260.26 441.083 2260.26Z" fill="white"/>
<path opacity="0.35" d="M284.333 2495.26C283.852 2495.26 283.462 2495.65 283.462 2496.13C283.462 2496.61 283.852 2497 284.333 2497C284.814 2497 285.204 2496.61 285.204 2496.13C285.204 2495.65 284.814 2495.26 284.333 2495.26Z" fill="white"/>
<path opacity="0.35" d="M197.25 2155.82C196.769 2155.82 196.379 2156.21 196.379 2156.69C196.379 2157.17 196.769 2157.56 197.25 2157.56C197.731 2157.56 198.121 2157.17 198.121 2156.69C198.121 2156.21 197.731 2155.82 197.25 2155.82Z" fill="white"/>
<path opacity="0.6" d="M1304.83 2442.73C1303.87 2442.73 1303.09 2443.51 1303.09 2444.47C1303.09 2445.43 1303.87 2446.21 1304.83 2446.21C1305.79 2446.21 1306.57 2445.43 1306.57 2444.47C1306.57 2443.51 1305.79 2442.73 1304.83 2442.73Z" fill="white"/>
<path opacity="0.6" d="M677.833 2547.17C676.871 2547.17 676.091 2547.95 676.091 2548.91C676.091 2549.87 676.871 2550.65 677.833 2550.65C678.795 2550.65 679.575 2549.87 679.575 2548.91C679.575 2547.95 678.795 2547.17 677.833 2547.17Z" fill="white"/>
<path opacity="0.9" d="M646.899 2731.7C647.53 2729.77 646.951 2727.02 645.605 2725.56C644.259 2724.1 642.656 2724.48 642.025 2726.41C641.394 2728.34 641.973 2731.09 643.319 2732.55C644.665 2734.01 646.268 2733.63 646.899 2731.7Z" fill="white"/>
<path d="M588.182 2463.18C588.813 2461.25 588.234 2458.5 586.888 2457.04C585.542 2455.58 583.939 2455.96 583.308 2457.89C582.676 2459.82 583.256 2462.57 584.602 2464.03C585.948 2465.49 587.55 2465.11 588.182 2463.18Z" fill="#00F0FF"/>
<path opacity="0.35" d="M1675.42 2085.08C1674.94 2085.08 1674.55 2085.47 1674.55 2085.95C1674.55 2086.43 1674.94 2086.82 1675.42 2086.82C1675.9 2086.82 1676.29 2086.43 1676.29 2085.95C1676.29 2085.47 1675.9 2085.08 1675.42 2085.08Z" fill="white"/>
<path opacity="0.35" d="M1570.92 1893.6C1570.44 1893.6 1570.05 1893.99 1570.05 1894.47C1570.05 1894.95 1570.44 1895.34 1570.92 1895.34C1571.4 1895.34 1571.79 1894.95 1571.79 1894.47C1571.79 1893.99 1571.4 1893.6 1570.92 1893.6Z" fill="white"/>
<path opacity="0.35" d="M1457.71 1510.63C1457.23 1510.63 1456.84 1511.02 1456.84 1511.5C1456.84 1511.98 1457.23 1512.37 1457.71 1512.37C1458.19 1512.37 1458.58 1511.98 1458.58 1511.5C1458.58 1511.02 1458.19 1510.63 1457.71 1510.63Z" fill="white"/>
<path opacity="0.35" d="M1344.5 1353.97C1344.02 1353.97 1343.63 1354.36 1343.63 1354.84C1343.63 1355.32 1344.02 1355.71 1344.5 1355.71C1344.98 1355.71 1345.37 1355.32 1345.37 1354.84C1345.37 1354.36 1344.98 1353.97 1344.5 1353.97Z" fill="white"/>
<path opacity="0.35" d="M1205.17 2006.74C1204.69 2006.74 1204.3 2007.13 1204.3 2007.61C1204.3 2008.1 1204.69 2008.49 1205.17 2008.49C1205.65 2008.49 1206.04 2008.1 1206.04 2007.61C1206.04 2007.13 1205.65 2006.74 1205.17 2006.74Z" fill="white"/>
<path opacity="0.35" d="M1083.25 1719.52C1082.77 1719.52 1082.38 1719.91 1082.38 1720.39C1082.38 1720.87 1082.77 1721.26 1083.25 1721.26C1083.73 1721.26 1084.12 1720.87 1084.12 1720.39C1084.12 1719.91 1083.73 1719.52 1083.25 1719.52Z" fill="white"/>
<path opacity="0.35" d="M978.75 1423.6C978.269 1423.6 977.879 1423.99 977.879 1424.47C977.879 1424.95 978.269 1425.34 978.75 1425.34C979.231 1425.34 979.621 1424.95 979.621 1424.47C979.621 1423.99 979.231 1423.6 978.75 1423.6Z" fill="white"/>
<path opacity="0.35" d="M891.666 2067.67C891.185 2067.67 890.796 2068.06 890.796 2068.54C890.796 2069.02 891.185 2069.41 891.666 2069.41C892.147 2069.41 892.537 2069.02 892.537 2068.54C892.537 2068.06 892.147 2067.67 891.666 2067.67Z" fill="white"/>
<path opacity="0.35" d="M752.333 1406.19C751.852 1406.19 751.462 1406.58 751.462 1407.06C751.462 1407.54 751.852 1407.93 752.333 1407.93C752.814 1407.93 753.204 1407.54 753.204 1407.06C753.204 1406.58 752.814 1406.19 752.333 1406.19Z" fill="white"/>
<path opacity="0.35" d="M630.416 1980.63C629.935 1980.63 629.546 1981.02 629.546 1981.5C629.546 1981.98 629.935 1982.37 630.416 1982.37C630.897 1982.37 631.287 1981.98 631.287 1981.5C631.287 1981.02 630.897 1980.63 630.416 1980.63Z" fill="white"/>
<path opacity="0.35" d="M491.083 1580.26C490.602 1580.26 490.212 1580.65 490.212 1581.13C490.212 1581.61 490.602 1582 491.083 1582C491.564 1582 491.954 1581.61 491.954 1581.13C491.954 1580.65 491.564 1580.26 491.083 1580.26Z" fill="white"/>
<path opacity="0.35" d="M334.333 1815.26C333.852 1815.26 333.462 1815.65 333.462 1816.13C333.462 1816.61 333.852 1817 334.333 1817C334.814 1817 335.204 1816.61 335.204 1816.13C335.204 1815.65 334.814 1815.26 334.333 1815.26Z" fill="white"/>
<path opacity="0.35" d="M247.25 1475.82C246.769 1475.82 246.379 1476.21 246.379 1476.69C246.379 1477.17 246.769 1477.56 247.25 1477.56C247.731 1477.56 248.121 1477.17 248.121 1476.69C248.121 1476.21 247.731 1475.82 247.25 1475.82Z" fill="white"/>
<path opacity="0.6" d="M1626.35 2554.26C1625.65 2553.6 1624.55 2553.62 1623.88 2554.31C1623.22 2555 1623.24 2556.1 1623.93 2556.77C1624.62 2557.44 1625.73 2557.42 1626.39 2556.73C1627.06 2556.03 1627.04 2554.93 1626.35 2554.26Z" fill="white"/>
<path opacity="0.6" d="M1260.43 2080.62C1259.74 2079.95 1258.63 2079.97 1257.97 2080.66C1257.3 2081.36 1257.32 2082.46 1258.01 2083.12C1258.7 2083.79 1259.81 2083.77 1260.47 2083.08C1261.14 2082.39 1261.12 2081.29 1260.43 2080.62Z" fill="white"/>
<path opacity="0.6" d="M1325.14 1586.88C1324.44 1586.22 1323.34 1586.24 1322.67 1586.93C1322.01 1587.62 1322.03 1588.72 1322.72 1589.39C1323.41 1590.06 1324.51 1590.04 1325.18 1589.35C1325.85 1588.65 1325.83 1587.55 1325.14 1586.88Z" fill="white"/>
<path opacity="0.6" d="M736.536 1720.65C735.844 1719.99 734.741 1720.01 734.074 1720.7C733.407 1721.39 733.427 1722.49 734.12 1723.16C734.812 1723.83 735.915 1723.81 736.582 1723.12C737.249 1722.42 737.229 1721.32 736.536 1720.65Z" fill="white"/>
<path opacity="0.35" d="M1657.92 1897.6C1657.44 1897.6 1657.05 1897.99 1657.05 1898.47C1657.05 1898.95 1657.44 1899.34 1657.92 1899.34C1658.4 1899.34 1658.79 1898.95 1658.79 1898.47C1658.79 1897.99 1658.4 1897.6 1657.92 1897.6Z" fill="white"/>
<path opacity="0.35" d="M1544.71 1514.63C1544.23 1514.63 1543.84 1515.02 1543.84 1515.5C1543.84 1515.98 1544.23 1516.37 1544.71 1516.37C1545.19 1516.37 1545.58 1515.98 1545.58 1515.5C1545.58 1515.02 1545.19 1514.63 1544.71 1514.63Z" fill="white"/>
<path opacity="0.35" d="M1431.5 1357.97C1431.02 1357.97 1430.63 1358.36 1430.63 1358.84C1430.63 1359.32 1431.02 1359.71 1431.5 1359.71C1431.98 1359.71 1432.37 1359.32 1432.37 1358.84C1432.37 1358.36 1431.98 1357.97 1431.5 1357.97Z" fill="white"/>
<path opacity="0.35" d="M1292.17 2010.74C1291.69 2010.74 1291.3 2011.13 1291.3 2011.61C1291.3 2012.1 1291.69 2012.49 1292.17 2012.49C1292.65 2012.49 1293.04 2012.1 1293.04 2011.61C1293.04 2011.13 1292.65 2010.74 1292.17 2010.74Z" fill="white"/>
<path opacity="0.35" d="M1170.25 1723.52C1169.77 1723.52 1169.38 1723.91 1169.38 1724.39C1169.38 1724.87 1169.77 1725.26 1170.25 1725.26C1170.73 1725.26 1171.12 1724.87 1171.12 1724.39C1171.12 1723.91 1170.73 1723.52 1170.25 1723.52Z" fill="white"/>
<path opacity="0.35" d="M1065.75 1427.6C1065.27 1427.6 1064.88 1427.99 1064.88 1428.47C1064.88 1428.95 1065.27 1429.34 1065.75 1429.34C1066.23 1429.34 1066.62 1428.95 1066.62 1428.47C1066.62 1427.99 1066.23 1427.6 1065.75 1427.6Z" fill="white"/>
<path opacity="0.35" d="M978.666 2071.67C978.185 2071.67 977.795 2072.06 977.795 2072.54C977.795 2073.02 978.185 2073.41 978.666 2073.41C979.147 2073.41 979.537 2073.02 979.537 2072.54C979.537 2072.06 979.147 2071.67 978.666 2071.67Z" fill="white"/>
<path opacity="0.35" d="M839.333 1410.19C838.852 1410.19 838.462 1410.58 838.462 1411.06C838.462 1411.54 838.852 1411.93 839.333 1411.93C839.814 1411.93 840.204 1411.54 840.204 1411.06C840.204 1410.58 839.814 1410.19 839.333 1410.19Z" fill="white"/>
<path opacity="0.35" d="M717.416 1984.63C716.935 1984.63 716.545 1985.02 716.545 1985.5C716.545 1985.98 716.935 1986.37 717.416 1986.37C717.897 1986.37 718.287 1985.98 718.287 1985.5C718.287 1985.02 717.897 1984.63 717.416 1984.63Z" fill="white"/>
<path opacity="0.35" d="M578.083 1584.26C577.602 1584.26 577.212 1584.65 577.212 1585.13C577.212 1585.61 577.602 1586 578.083 1586C578.564 1586 578.954 1585.61 578.954 1585.13C578.954 1584.65 578.564 1584.26 578.083 1584.26Z" fill="white"/>
<path opacity="0.35" d="M421.333 1819.26C420.852 1819.26 420.462 1819.65 420.462 1820.13C420.462 1820.61 420.852 1821 421.333 1821C421.814 1821 422.204 1820.61 422.204 1820.13C422.204 1819.65 421.814 1819.26 421.333 1819.26Z" fill="white"/>
<path opacity="0.35" d="M334.25 1479.82C333.769 1479.82 333.379 1480.21 333.379 1480.69C333.379 1481.17 333.769 1481.56 334.25 1481.56C334.731 1481.56 335.12 1481.17 335.12 1480.69C335.12 1480.21 334.731 1479.82 334.25 1479.82Z" fill="white"/>
<path opacity="0.35" d="M1682.42 1749.08C1681.94 1749.08 1681.55 1749.47 1681.55 1749.95C1681.55 1750.43 1681.94 1750.82 1682.42 1750.82C1682.9 1750.82 1683.29 1750.43 1683.29 1749.95C1683.29 1749.47 1682.9 1749.08 1682.42 1749.08Z" fill="white"/>
<path opacity="0.35" d="M1577.92 1557.6C1577.44 1557.6 1577.05 1557.99 1577.05 1558.47C1577.05 1558.95 1577.44 1559.34 1577.92 1559.34C1578.4 1559.34 1578.79 1558.95 1578.79 1558.47C1578.79 1557.99 1578.4 1557.6 1577.92 1557.6Z" fill="white"/>
<path opacity="0.35" d="M1464.71 1174.63C1464.23 1174.63 1463.84 1175.02 1463.84 1175.5C1463.84 1175.98 1464.23 1176.37 1464.71 1176.37C1465.19 1176.37 1465.58 1175.98 1465.58 1175.5C1465.58 1175.02 1465.19 1174.63 1464.71 1174.63Z" fill="white"/>
<path opacity="0.35" d="M1351.5 1017.97C1351.02 1017.97 1350.63 1018.36 1350.63 1018.84C1350.63 1019.32 1351.02 1019.71 1351.5 1019.71C1351.98 1019.71 1352.37 1019.32 1352.37 1018.84C1352.37 1018.36 1351.98 1017.97 1351.5 1017.97Z" fill="white"/>
<path opacity="0.35" d="M1212.17 1670.74C1211.69 1670.74 1211.3 1671.13 1211.3 1671.61C1211.3 1672.1 1211.69 1672.49 1212.17 1672.49C1212.65 1672.49 1213.04 1672.1 1213.04 1671.61C1213.04 1671.13 1212.65 1670.74 1212.17 1670.74Z" fill="white"/>
<path opacity="0.35" d="M1090.25 1383.52C1089.77 1383.52 1089.38 1383.91 1089.38 1384.39C1089.38 1384.87 1089.77 1385.26 1090.25 1385.26C1090.73 1385.26 1091.12 1384.87 1091.12 1384.39C1091.12 1383.91 1090.73 1383.52 1090.25 1383.52Z" fill="white"/>
<path opacity="0.35" d="M985.75 1087.6C985.269 1087.6 984.879 1087.99 984.879 1088.47C984.879 1088.95 985.269 1089.34 985.75 1089.34C986.231 1089.34 986.62 1088.95 986.62 1088.47C986.62 1087.99 986.231 1087.6 985.75 1087.6Z" fill="white"/>
<path opacity="0.35" d="M898.666 1731.67C898.185 1731.67 897.795 1732.06 897.795 1732.54C897.795 1733.02 898.185 1733.41 898.666 1733.41C899.147 1733.41 899.537 1733.02 899.537 1732.54C899.537 1732.06 899.147 1731.67 898.666 1731.67Z" fill="white"/>
<path opacity="0.35" d="M759.333 1070.19C758.852 1070.19 758.462 1070.58 758.462 1071.06C758.462 1071.54 758.852 1071.93 759.333 1071.93C759.814 1071.93 760.204 1071.54 760.204 1071.06C760.204 1070.58 759.814 1070.19 759.333 1070.19Z" fill="white"/>
<path opacity="0.35" d="M637.416 1644.63C636.935 1644.63 636.545 1645.02 636.545 1645.5C636.545 1645.98 636.935 1646.37 637.416 1646.37C637.897 1646.37 638.287 1645.98 638.287 1645.5C638.287 1645.02 637.897 1644.63 637.416 1644.63Z" fill="white"/>
<path opacity="0.35" d="M498.083 1244.26C497.602 1244.26 497.212 1244.65 497.212 1245.13C497.212 1245.61 497.602 1246 498.083 1246C498.564 1246 498.954 1245.61 498.954 1245.13C498.954 1244.65 498.564 1244.26 498.083 1244.26Z" fill="white"/>
<path opacity="0.35" d="M341.333 1479.26C340.852 1479.26 340.462 1479.65 340.462 1480.13C340.462 1480.61 340.852 1481 341.333 1481C341.814 1481 342.204 1480.61 342.204 1480.13C342.204 1479.65 341.814 1479.26 341.333 1479.26Z" fill="white"/>
<path opacity="0.35" d="M254.25 1139.82C253.769 1139.82 253.379 1140.21 253.379 1140.69C253.379 1141.17 253.769 1141.56 254.25 1141.56C254.731 1141.56 255.12 1141.17 255.12 1140.69C255.12 1140.21 254.731 1139.82 254.25 1139.82Z" fill="white"/>
<path opacity="0.6" d="M1623.08 2018.58C1622.12 2018.58 1621.34 2019.36 1621.34 2020.32C1621.34 2021.28 1622.12 2022.06 1623.08 2022.06C1624.04 2022.06 1624.82 2021.28 1624.82 2020.32C1624.82 2019.36 1624.04 2018.58 1623.08 2018.58Z" fill="white"/>
<path opacity="0.6" d="M1361.83 1426.73C1360.87 1426.73 1360.09 1427.51 1360.09 1428.47C1360.09 1429.43 1360.87 1430.21 1361.83 1430.21C1362.79 1430.21 1363.57 1429.43 1363.57 1428.47C1363.57 1427.51 1362.79 1426.73 1361.83 1426.73Z" fill="white"/>
<path opacity="0.6" d="M1030.92 1931.54C1029.95 1931.54 1029.17 1932.32 1029.17 1933.28C1029.17 1934.24 1029.95 1935.02 1030.92 1935.02C1031.88 1935.02 1032.66 1934.24 1032.66 1933.28C1032.66 1932.32 1031.88 1931.54 1030.92 1931.54Z" fill="white"/>
<path opacity="0.6" d="M734.833 1531.17C733.871 1531.17 733.091 1531.95 733.091 1532.91C733.091 1533.87 733.871 1534.65 734.833 1534.65C735.795 1534.65 736.575 1533.87 736.575 1532.91C736.575 1531.95 735.795 1531.17 734.833 1531.17Z" fill="white"/>
<path opacity="0.6" d="M403.916 2035.99C402.955 2035.99 402.175 2036.76 402.175 2037.73C402.175 2038.69 402.955 2039.47 403.916 2039.47C404.878 2039.47 405.658 2038.69 405.658 2037.73C405.658 2036.76 404.878 2035.99 403.916 2035.99Z" fill="white"/>
<path opacity="0.9" d="M838.025 2567.5C836.589 2567.36 835.312 2568.41 835.173 2569.85C835.034 2571.28 836.086 2572.56 837.522 2572.7C838.958 2572.84 840.235 2571.79 840.374 2570.35C840.513 2568.92 839.461 2567.64 838.025 2567.5Z" fill="white"/>
<path opacity="0.9" d="M1367.54 2339.36C1366.35 2339.24 1365.28 2340.12 1365.17 2341.31C1365.05 2342.51 1365.93 2343.57 1367.12 2343.69C1368.32 2343.8 1369.39 2342.93 1369.5 2341.73C1369.62 2340.54 1368.74 2339.47 1367.54 2339.36Z" fill="white"/>
<path d="M721.437 2687.38C720.001 2687.24 718.724 2688.3 718.585 2689.73C718.446 2691.17 719.498 2692.44 720.934 2692.58C722.37 2692.72 723.647 2691.67 723.786 2690.23C723.924 2688.8 722.873 2687.52 721.437 2687.38Z" fill="#00F0FF"/>
<path opacity="0.9" d="M703.899 1715.7C704.53 1713.77 703.951 1711.02 702.605 1709.56C701.259 1708.1 699.656 1708.48 699.025 1710.41C698.394 1712.34 698.973 1715.09 700.319 1716.55C701.665 1718.01 703.268 1717.63 703.899 1715.7Z" fill="white"/>
<path opacity="0.9" d="M684.413 2703.85C684.939 2702.24 684.456 2699.95 683.335 2698.73C682.213 2697.52 680.877 2697.84 680.351 2699.45C679.825 2701.05 680.308 2703.35 681.43 2704.56C682.551 2705.78 683.887 2705.46 684.413 2703.85Z" fill="white"/>
<path d="M645.182 1447.18C645.813 1445.24 645.234 1442.5 643.888 1441.04C642.542 1439.58 640.939 1439.96 640.308 1441.89C639.676 1443.82 640.256 1446.57 641.602 1448.03C642.948 1449.49 644.55 1449.11 645.182 1447.18Z" fill="#00F0FF"/>
<path opacity="0.35" d="M1627.92 877.597C1627.44 877.597 1627.05 877.986 1627.05 878.467C1627.05 878.948 1627.44 879.337 1627.92 879.337C1628.4 879.337 1628.79 878.948 1628.79 878.467C1628.79 877.986 1628.4 877.597 1627.92 877.597Z" fill="white"/>
<path opacity="0.35" d="M1514.71 494.633C1514.23 494.633 1513.84 495.023 1513.84 495.504C1513.84 495.984 1514.23 496.374 1514.71 496.374C1515.19 496.374 1515.58 495.984 1515.58 495.504C1515.58 495.023 1515.19 494.633 1514.71 494.633Z" fill="white"/>
<path opacity="0.35" d="M1401.5 337.967C1401.02 337.967 1400.63 338.357 1400.63 338.837C1400.63 339.318 1401.02 339.708 1401.5 339.708C1401.98 339.708 1402.37 339.318 1402.37 338.837C1402.37 338.357 1401.98 337.967 1401.5 337.967Z" fill="white"/>
<path opacity="0.35" d="M1262.17 990.745C1261.69 990.745 1261.3 991.134 1261.3 991.615C1261.3 992.096 1261.69 992.485 1262.17 992.485C1262.65 992.485 1263.04 992.096 1263.04 991.615C1263.04 991.134 1262.65 990.745 1262.17 990.745Z" fill="white"/>
<path opacity="0.35" d="M1140.25 703.522C1139.77 703.522 1139.38 703.912 1139.38 704.393C1139.38 704.873 1139.77 705.263 1140.25 705.263C1140.73 705.263 1141.12 704.873 1141.12 704.393C1141.12 703.912 1140.73 703.522 1140.25 703.522Z" fill="white"/>
<path opacity="0.35" d="M1035.75 407.596C1035.27 407.596 1034.88 407.986 1034.88 408.467C1034.88 408.948 1035.27 409.337 1035.75 409.337C1036.23 409.337 1036.62 408.948 1036.62 408.467C1036.62 407.986 1036.23 407.596 1035.75 407.596Z" fill="white"/>
<path opacity="0.35" d="M948.666 1051.67C948.185 1051.67 947.795 1052.06 947.795 1052.54C947.795 1053.02 948.185 1053.41 948.666 1053.41C949.147 1053.41 949.537 1053.02 949.537 1052.54C949.537 1052.06 949.147 1051.67 948.666 1051.67Z" fill="white"/>
<path opacity="0.35" d="M809.333 390.189C808.852 390.189 808.462 390.579 808.462 391.059C808.462 391.54 808.852 391.93 809.333 391.93C809.814 391.93 810.204 391.54 810.204 391.059C810.204 390.579 809.814 390.189 809.333 390.189Z" fill="white"/>
<path opacity="0.35" d="M687.416 964.633C686.935 964.633 686.545 965.023 686.545 965.504C686.545 965.984 686.935 966.374 687.416 966.374C687.897 966.374 688.287 965.984 688.287 965.504C688.287 965.023 687.897 964.633 687.416 964.633Z" fill="white"/>
<path opacity="0.35" d="M548.083 564.263C547.602 564.263 547.212 564.653 547.212 565.134C547.212 565.614 547.602 566.004 548.083 566.004C548.564 566.004 548.954 565.614 548.954 565.134C548.954 564.653 548.564 564.263 548.083 564.263Z" fill="white"/>
<path opacity="0.35" d="M391.333 799.263C390.852 799.263 390.462 799.653 390.462 800.133C390.462 800.614 390.852 801.004 391.333 801.004C391.814 801.004 392.204 800.614 392.204 800.133C392.204 799.653 391.814 799.263 391.333 799.263Z" fill="white"/>
<path opacity="0.35" d="M304.25 459.819C303.769 459.819 303.379 460.208 303.379 460.689C303.379 461.17 303.769 461.559 304.25 461.559C304.731 461.559 305.12 461.17 305.12 460.689C305.12 460.208 304.731 459.819 304.25 459.819Z" fill="white"/>
<path opacity="0.6" d="M1590.35 1882.26C1589.65 1881.59 1588.55 1881.61 1587.88 1882.3C1587.22 1882.99 1587.24 1884.1 1587.93 1884.76C1588.62 1885.43 1589.73 1885.41 1590.39 1884.72C1591.06 1884.03 1591.04 1882.93 1590.35 1882.26Z" fill="white"/>
<path opacity="0.6" d="M1224.43 1408.61C1223.74 1407.95 1222.63 1407.96 1221.97 1408.66C1221.3 1409.35 1221.32 1410.45 1222.01 1411.12C1222.7 1411.79 1223.81 1411.77 1224.47 1411.07C1225.14 1410.38 1225.12 1409.28 1224.43 1408.61Z" fill="white"/>
<path opacity="0.6" d="M1289.14 914.877C1288.44 914.21 1287.34 914.229 1286.67 914.922C1286.01 915.614 1286.03 916.716 1286.72 917.384C1287.41 918.051 1288.51 918.031 1289.18 917.339C1289.85 916.647 1289.83 915.545 1289.14 914.877Z" fill="white"/>
<path opacity="0.6" d="M700.536 1048.65C699.844 1047.98 698.741 1048 698.074 1048.69C697.407 1049.38 697.427 1050.49 698.12 1051.15C698.812 1051.82 699.915 1051.8 700.582 1051.11C701.249 1050.42 701.229 1049.31 700.536 1048.65Z" fill="white"/>
<path opacity="0.35" d="M1621.92 1225.59C1621.44 1225.59 1621.05 1225.98 1621.05 1226.46C1621.05 1226.94 1621.44 1227.33 1621.92 1227.33C1622.4 1227.33 1622.79 1226.94 1622.79 1226.46C1622.79 1225.98 1622.4 1225.59 1621.92 1225.59Z" fill="white"/>
<path opacity="0.35" d="M1508.71 842.627C1508.23 842.627 1507.84 843.017 1507.84 843.498C1507.84 843.978 1508.23 844.368 1508.71 844.368C1509.19 844.368 1509.58 843.978 1509.58 843.498C1509.58 843.017 1509.19 842.627 1508.71 842.627Z" fill="white"/>
<path opacity="0.35" d="M1395.5 685.961C1395.02 685.961 1394.63 686.351 1394.63 686.831C1394.63 687.312 1395.02 687.702 1395.5 687.702C1395.98 687.702 1396.37 687.312 1396.37 686.831C1396.37 686.351 1395.98 685.961 1395.5 685.961Z" fill="white"/>
<path opacity="0.35" d="M1256.17 1338.74C1255.69 1338.74 1255.3 1339.13 1255.3 1339.61C1255.3 1340.09 1255.69 1340.48 1256.17 1340.48C1256.65 1340.48 1257.04 1340.09 1257.04 1339.61C1257.04 1339.13 1256.65 1338.74 1256.17 1338.74Z" fill="white"/>
<path opacity="0.35" d="M1134.25 1051.52C1133.77 1051.52 1133.38 1051.91 1133.38 1052.39C1133.38 1052.87 1133.77 1053.26 1134.25 1053.26C1134.73 1053.26 1135.12 1052.87 1135.12 1052.39C1135.12 1051.91 1134.73 1051.52 1134.25 1051.52Z" fill="white"/>
<path opacity="0.35" d="M1029.75 755.591C1029.27 755.591 1028.88 755.98 1028.88 756.461C1028.88 756.942 1029.27 757.331 1029.75 757.331C1030.23 757.331 1030.62 756.942 1030.62 756.461C1030.62 755.98 1030.23 755.591 1029.75 755.591Z" fill="white"/>
<path opacity="0.35" d="M942.666 1399.66C942.185 1399.66 941.795 1400.05 941.795 1400.53C941.795 1401.02 942.185 1401.41 942.666 1401.41C943.147 1401.41 943.537 1401.02 943.537 1400.53C943.537 1400.05 943.147 1399.66 942.666 1399.66Z" fill="white"/>
<path opacity="0.35" d="M803.333 738.183C802.852 738.183 802.462 738.573 802.462 739.053C802.462 739.534 802.852 739.924 803.333 739.924C803.814 739.924 804.204 739.534 804.204 739.053C804.204 738.573 803.814 738.183 803.333 738.183Z" fill="white"/>
<path opacity="0.35" d="M681.416 1312.63C680.935 1312.63 680.545 1313.02 680.545 1313.5C680.545 1313.98 680.935 1314.37 681.416 1314.37C681.897 1314.37 682.287 1313.98 682.287 1313.5C682.287 1313.02 681.897 1312.63 681.416 1312.63Z" fill="white"/>
<path opacity="0.35" d="M542.083 912.257C541.602 912.257 541.212 912.647 541.212 913.128C541.212 913.608 541.602 913.998 542.083 913.998C542.564 913.998 542.954 913.608 542.954 913.128C542.954 912.647 542.564 912.257 542.083 912.257Z" fill="white"/>
<path opacity="0.35" d="M385.333 1147.26C384.852 1147.26 384.462 1147.65 384.462 1148.13C384.462 1148.61 384.852 1149 385.333 1149C385.814 1149 386.204 1148.61 386.204 1148.13C386.204 1147.65 385.814 1147.26 385.333 1147.26Z" fill="white"/>
<path opacity="0.35" d="M298.25 807.813C297.769 807.813 297.379 808.202 297.379 808.683C297.379 809.164 297.769 809.553 298.25 809.553C298.731 809.553 299.12 809.164 299.12 808.683C299.12 808.202 298.731 807.813 298.25 807.813Z" fill="white"/>
<path opacity="0.35" d="M1646.42 1077.07C1645.94 1077.07 1645.55 1077.46 1645.55 1077.94C1645.55 1078.42 1645.94 1078.81 1646.42 1078.81C1646.9 1078.81 1647.29 1078.42 1647.29 1077.94C1647.29 1077.46 1646.9 1077.07 1646.42 1077.07Z" fill="white"/>
<path opacity="0.35" d="M1541.92 885.591C1541.44 885.591 1541.05 885.98 1541.05 886.461C1541.05 886.942 1541.44 887.331 1541.92 887.331C1542.4 887.331 1542.79 886.942 1542.79 886.461C1542.79 885.98 1542.4 885.591 1541.92 885.591Z" fill="white"/>
<path opacity="0.35" d="M1428.71 502.627C1428.23 502.627 1427.84 503.017 1427.84 503.498C1427.84 503.979 1428.23 504.368 1428.71 504.368C1429.19 504.368 1429.58 503.979 1429.58 503.498C1429.58 503.017 1429.19 502.627 1428.71 502.627Z" fill="white"/>
<path opacity="0.35" d="M1315.5 345.961C1315.02 345.961 1314.63 346.351 1314.63 346.831C1314.63 347.312 1315.02 347.702 1315.5 347.702C1315.98 347.702 1316.37 347.312 1316.37 346.831C1316.37 346.351 1315.98 345.961 1315.5 345.961Z" fill="white"/>
<path opacity="0.35" d="M1176.17 998.739C1175.69 998.739 1175.3 999.128 1175.3 999.609C1175.3 1000.09 1175.69 1000.48 1176.17 1000.48C1176.65 1000.48 1177.04 1000.09 1177.04 999.609C1177.04 999.128 1176.65 998.739 1176.17 998.739Z" fill="white"/>
<path opacity="0.35" d="M1054.25 711.516C1053.77 711.516 1053.38 711.906 1053.38 712.387C1053.38 712.867 1053.77 713.257 1054.25 713.257C1054.73 713.257 1055.12 712.867 1055.12 712.387C1055.12 711.906 1054.73 711.516 1054.25 711.516Z" fill="white"/>
<path opacity="0.35" d="M949.75 415.59C949.269 415.59 948.879 415.98 948.879 416.461C948.879 416.942 949.269 417.331 949.75 417.331C950.231 417.331 950.62 416.942 950.62 416.461C950.62 415.98 950.231 415.59 949.75 415.59Z" fill="white"/>
<path opacity="0.35" d="M862.666 1059.66C862.185 1059.66 861.795 1060.05 861.795 1060.53C861.795 1061.02 862.185 1061.41 862.666 1061.41C863.147 1061.41 863.537 1061.02 863.537 1060.53C863.537 1060.05 863.147 1059.66 862.666 1059.66Z" fill="white"/>
<path opacity="0.35" d="M723.333 398.183C722.852 398.183 722.462 398.573 722.462 399.053C722.462 399.534 722.852 399.924 723.333 399.924C723.814 399.924 724.204 399.534 724.204 399.053C724.204 398.573 723.814 398.183 723.333 398.183Z" fill="white"/>
<path opacity="0.35" d="M601.416 972.627C600.935 972.627 600.545 973.017 600.545 973.498C600.545 973.978 600.935 974.368 601.416 974.368C601.897 974.368 602.287 973.978 602.287 973.498C602.287 973.017 601.897 972.627 601.416 972.627Z" fill="white"/>
<path opacity="0.35" d="M462.083 572.257C461.602 572.257 461.212 572.647 461.212 573.128C461.212 573.608 461.602 573.998 462.083 573.998C462.564 573.998 462.954 573.608 462.954 573.128C462.954 572.647 462.564 572.257 462.083 572.257Z" fill="white"/>
<path opacity="0.35" d="M305.333 807.257C304.852 807.257 304.462 807.647 304.462 808.127C304.462 808.608 304.852 808.998 305.333 808.998C305.814 808.998 306.204 808.608 306.204 808.127C306.204 807.647 305.814 807.257 305.333 807.257Z" fill="white"/>
<path opacity="0.35" d="M218.25 467.813C217.769 467.813 217.379 468.202 217.379 468.683C217.379 469.164 217.769 469.553 218.25 469.553C218.731 469.553 219.12 469.164 219.12 468.683C219.12 468.202 218.731 467.813 218.25 467.813Z" fill="white"/>
<path opacity="0.6" d="M1587.08 1346.57C1586.12 1346.57 1585.34 1347.35 1585.34 1348.31C1585.34 1349.27 1586.12 1350.05 1587.08 1350.05C1588.04 1350.05 1588.82 1349.27 1588.82 1348.31C1588.82 1347.35 1588.04 1346.57 1587.08 1346.57Z" fill="white"/>
<path opacity="0.6" d="M1325.83 754.72C1324.87 754.72 1324.09 755.5 1324.09 756.461C1324.09 757.422 1324.87 758.202 1325.83 758.202C1326.79 758.202 1327.57 757.422 1327.57 756.461C1327.57 755.5 1326.79 754.72 1325.83 754.72Z" fill="white"/>
<path opacity="0.6" d="M994.916 1259.53C993.955 1259.53 993.175 1260.31 993.175 1261.28C993.175 1262.24 993.955 1263.02 994.916 1263.02C995.878 1263.02 996.658 1262.24 996.658 1261.28C996.658 1260.31 995.878 1259.53 994.916 1259.53Z" fill="white"/>
<path opacity="0.6" d="M698.833 859.165C697.871 859.165 697.091 859.944 697.091 860.905C697.091 861.867 697.871 862.646 698.833 862.646C699.795 862.646 700.575 861.867 700.575 860.905C700.575 859.944 699.795 859.165 698.833 859.165Z" fill="white"/>
<path opacity="0.6" d="M367.916 1363.98C366.955 1363.98 366.175 1364.76 366.175 1365.72C366.175 1366.68 366.955 1367.46 367.916 1367.46C368.878 1367.46 369.658 1366.68 369.658 1365.72C369.658 1364.76 368.878 1363.98 367.916 1363.98Z" fill="white"/>
<path opacity="0.9" d="M802.025 1895.49C800.589 1895.36 799.312 1896.41 799.173 1897.84C799.034 1899.28 800.086 1900.55 801.522 1900.69C802.958 1900.83 804.235 1899.78 804.374 1898.34C804.513 1896.91 803.461 1895.63 802.025 1895.49Z" fill="white"/>
<path opacity="0.9" d="M1331.54 1667.35C1330.35 1667.23 1329.28 1668.11 1329.17 1669.31C1329.05 1670.5 1329.93 1671.57 1331.12 1671.68C1332.32 1671.8 1333.39 1670.92 1333.5 1669.73C1333.62 1668.53 1332.74 1667.47 1331.54 1667.35Z" fill="white"/>
<path d="M685.437 2015.38C684.001 2015.24 682.724 2016.29 682.585 2017.73C682.446 2019.16 683.498 2020.44 684.934 2020.58C686.37 2020.71 687.647 2019.66 687.786 2018.23C687.924 2016.79 686.873 2015.52 685.437 2015.38Z" fill="#00F0FF"/>
<path opacity="0.9" d="M667.899 1043.69C668.53 1041.76 667.951 1039.01 666.605 1037.55C665.259 1036.09 663.656 1036.47 663.025 1038.4C662.394 1040.34 662.973 1043.09 664.319 1044.54C665.665 1046 667.268 1045.62 667.899 1043.69Z" fill="white"/>
<path opacity="0.9" d="M648.413 2031.84C648.939 2030.24 648.456 2027.94 647.335 2026.73C646.213 2025.51 644.877 2025.83 644.351 2027.44C643.825 2029.05 644.308 2031.34 645.43 2032.56C646.551 2033.77 647.887 2033.45 648.413 2031.84Z" fill="white"/>
<path d="M609.182 775.17C609.813 773.239 609.234 770.49 607.888 769.03C606.542 767.57 604.939 767.952 604.308 769.884C603.676 771.815 604.256 774.564 605.602 776.024C606.948 777.484 608.55 777.102 609.182 775.17Z" fill="#00F0FF"/>
<path opacity="0.35" d="M1696.42 397.072C1695.94 397.072 1695.55 397.462 1695.55 397.942C1695.55 398.423 1695.94 398.813 1696.42 398.813C1696.9 398.813 1697.29 398.423 1697.29 397.942C1697.29 397.462 1696.9 397.072 1696.42 397.072Z" fill="white"/>
<path opacity="0.35" d="M1591.92 205.591C1591.44 205.591 1591.05 205.98 1591.05 206.461C1591.05 206.942 1591.44 207.331 1591.92 207.331C1592.4 207.331 1592.79 206.942 1592.79 206.461C1592.79 205.98 1592.4 205.591 1591.92 205.591Z" fill="white"/>
<path opacity="0.35" d="M1226.17 318.739C1225.69 318.739 1225.3 319.128 1225.3 319.609C1225.3 320.09 1225.69 320.479 1226.17 320.479C1226.65 320.479 1227.04 320.09 1227.04 319.609C1227.04 319.128 1226.65 318.739 1226.17 318.739Z" fill="white"/>
<path opacity="0.35" d="M912.666 379.665C912.185 379.665 911.795 380.054 911.795 380.535C911.795 381.016 912.185 381.405 912.666 381.405C913.147 381.405 913.537 381.016 913.537 380.535C913.537 380.054 913.147 379.665 912.666 379.665Z" fill="white"/>
<path opacity="0.35" d="M651.416 292.627C650.935 292.627 650.545 293.017 650.545 293.498C650.545 293.978 650.935 294.368 651.416 294.368C651.897 294.368 652.287 293.978 652.287 293.498C652.287 293.017 651.897 292.627 651.416 292.627Z" fill="white"/>
<path opacity="0.35" d="M355.333 127.257C354.852 127.257 354.462 127.647 354.462 128.127C354.462 128.608 354.852 128.998 355.333 128.998C355.814 128.998 356.204 128.608 356.204 128.127C356.204 127.647 355.814 127.257 355.333 127.257Z" fill="white"/>
<path opacity="0.6" d="M1236.25 738.842C1235.29 738.884 1234.55 739.698 1234.59 740.658C1234.63 741.618 1235.45 742.362 1236.41 742.32C1237.37 742.277 1238.11 741.464 1238.07 740.504C1238.03 739.543 1237.21 738.799 1236.25 738.842Z" fill="white"/>
<path opacity="0.6" d="M949.03 159.149C948.069 159.192 947.324 160.005 947.367 160.966C947.409 161.926 948.223 162.67 949.184 162.628C950.145 162.585 950.889 161.772 950.847 160.811C950.804 159.851 949.991 159.107 949.03 159.149Z" fill="white"/>
<path opacity="0.6" d="M640.81 678.134C639.849 678.176 639.105 678.99 639.148 679.95C639.19 680.91 640.004 681.654 640.965 681.612C641.926 681.569 642.67 680.756 642.627 679.796C642.585 678.835 641.771 678.091 640.81 678.134Z" fill="white"/>
<path opacity="0.6" d="M327.274 291.279C326.313 291.321 325.569 292.134 325.612 293.095C325.654 294.055 326.468 294.799 327.429 294.757C328.39 294.714 329.134 293.901 329.091 292.94C329.049 291.98 328.235 291.236 327.274 291.279Z" fill="white"/>
<path opacity="0.6" d="M19.0552 810.263C18.0943 810.306 17.3498 811.119 17.3924 812.079C17.435 813.04 18.2486 813.784 19.2095 813.741C20.1705 813.698 20.9149 812.885 20.8723 811.925C20.8297 810.964 20.0162 810.22 19.0552 810.263Z" fill="white"/>
<path opacity="0.6" d="M1405.35 1589.26C1404.65 1588.59 1403.55 1588.61 1402.88 1589.3C1402.22 1589.99 1402.24 1591.1 1402.93 1591.76C1403.62 1592.43 1404.73 1592.41 1405.39 1591.72C1406.06 1591.03 1406.04 1589.93 1405.35 1589.26Z" fill="white"/>
<path opacity="0.6" d="M1628.03 981.843C1627.33 981.175 1626.23 981.195 1625.57 981.887C1624.9 982.579 1624.92 983.681 1625.61 984.349C1626.3 985.017 1627.41 984.997 1628.07 984.305C1628.74 983.612 1628.72 982.51 1628.03 981.843Z" fill="white"/>
<path opacity="0.6" d="M1039.43 1115.61C1038.74 1114.94 1037.63 1114.96 1036.97 1115.66C1036.3 1116.35 1036.32 1117.45 1037.01 1118.12C1037.7 1118.79 1038.81 1118.77 1039.47 1118.07C1040.14 1117.38 1040.12 1116.28 1039.43 1115.61Z" fill="white"/>
<path opacity="0.6" d="M1104.14 621.877C1103.44 621.209 1102.34 621.229 1101.67 621.921C1101.01 622.614 1101.03 623.716 1101.72 624.384C1102.41 625.051 1103.51 625.031 1104.18 624.339C1104.85 623.647 1104.83 622.545 1104.14 621.877Z" fill="white"/>
<path opacity="0.6" d="M515.536 755.647C514.844 754.979 513.741 754.999 513.074 755.691C512.407 756.384 512.427 757.486 513.12 758.153C513.812 758.821 514.915 758.801 515.582 758.109C516.249 757.417 516.229 756.315 515.536 755.647Z" fill="white"/>
<path opacity="0.35" d="M1541.42 1124.07C1540.94 1124.07 1540.55 1124.46 1540.55 1124.94C1540.55 1125.42 1540.94 1125.81 1541.42 1125.81C1541.9 1125.81 1542.29 1125.42 1542.29 1124.94C1542.29 1124.46 1541.9 1124.07 1541.42 1124.07Z" fill="white"/>
<path opacity="0.35" d="M1436.92 932.591C1436.44 932.591 1436.05 932.98 1436.05 933.461C1436.05 933.942 1436.44 934.331 1436.92 934.331C1437.4 934.331 1437.79 933.942 1437.79 933.461C1437.79 932.98 1437.4 932.591 1436.92 932.591Z" fill="white"/>
<path opacity="0.35" d="M1323.71 549.627C1323.23 549.627 1322.84 550.017 1322.84 550.498C1322.84 550.978 1323.23 551.368 1323.71 551.368C1324.19 551.368 1324.58 550.978 1324.58 550.498C1324.58 550.017 1324.19 549.627 1323.71 549.627Z" fill="white"/>
<path opacity="0.35" d="M1210.5 392.961C1210.02 392.961 1209.63 393.351 1209.63 393.831C1209.63 394.312 1210.02 394.702 1210.5 394.702C1210.98 394.702 1211.37 394.312 1211.37 393.831C1211.37 393.351 1210.98 392.961 1210.5 392.961Z" fill="white"/>
<path opacity="0.35" d="M1071.17 1045.74C1070.69 1045.74 1070.3 1046.13 1070.3 1046.61C1070.3 1047.09 1070.69 1047.48 1071.17 1047.48C1071.65 1047.48 1072.04 1047.09 1072.04 1046.61C1072.04 1046.13 1071.65 1045.74 1071.17 1045.74Z" fill="white"/>
<path opacity="0.35" d="M949.25 758.516C948.769 758.516 948.379 758.906 948.379 759.387C948.379 759.867 948.769 760.257 949.25 760.257C949.731 760.257 950.12 759.867 950.12 759.387C950.12 758.906 949.731 758.516 949.25 758.516Z" fill="white"/>
<path opacity="0.35" d="M844.75 462.59C844.269 462.59 843.879 462.98 843.879 463.461C843.879 463.942 844.269 464.331 844.75 464.331C845.231 464.331 845.62 463.942 845.62 463.461C845.62 462.98 845.231 462.59 844.75 462.59Z" fill="white"/>
<path opacity="0.35" d="M757.666 1106.66C757.185 1106.66 756.795 1107.05 756.795 1107.53C756.795 1108.02 757.185 1108.41 757.666 1108.41C758.147 1108.41 758.537 1108.02 758.537 1107.53C758.537 1107.05 758.147 1106.66 757.666 1106.66Z" fill="white"/>
<path opacity="0.35" d="M618.333 445.183C617.852 445.183 617.462 445.573 617.462 446.053C617.462 446.534 617.852 446.924 618.333 446.924C618.814 446.924 619.204 446.534 619.204 446.053C619.204 445.573 618.814 445.183 618.333 445.183Z" fill="white"/>
<path opacity="0.35" d="M496.416 1019.63C495.935 1019.63 495.545 1020.02 495.545 1020.5C495.545 1020.98 495.935 1021.37 496.416 1021.37C496.897 1021.37 497.287 1020.98 497.287 1020.5C497.287 1020.02 496.897 1019.63 496.416 1019.63Z" fill="white"/>
<path opacity="0.35" d="M357.083 619.257C356.602 619.257 356.212 619.647 356.212 620.128C356.212 620.608 356.602 620.998 357.083 620.998C357.564 620.998 357.954 620.608 357.954 620.128C357.954 619.647 357.564 619.257 357.083 619.257Z" fill="white"/>
<path opacity="0.35" d="M200.333 854.257C199.852 854.257 199.462 854.647 199.462 855.127C199.462 855.608 199.852 855.998 200.333 855.998C200.814 855.998 201.204 855.608 201.204 855.127C201.204 854.647 200.814 854.257 200.333 854.257Z" fill="white"/>
<path opacity="0.35" d="M113.25 514.813C112.769 514.813 112.379 515.202 112.379 515.683C112.379 516.164 112.769 516.553 113.25 516.553C113.731 516.553 114.12 516.164 114.12 515.683C114.12 515.202 113.731 514.813 113.25 514.813Z" fill="white"/>
<path opacity="0.35" d="M1461.42 784.072C1460.94 784.072 1460.55 784.462 1460.55 784.942C1460.55 785.423 1460.94 785.813 1461.42 785.813C1461.9 785.813 1462.29 785.423 1462.29 784.942C1462.29 784.462 1461.9 784.072 1461.42 784.072Z" fill="white"/>
<path opacity="0.35" d="M1356.92 592.591C1356.44 592.591 1356.05 592.98 1356.05 593.461C1356.05 593.942 1356.44 594.331 1356.92 594.331C1357.4 594.331 1357.79 593.942 1357.79 593.461C1357.79 592.98 1357.4 592.591 1356.92 592.591Z" fill="white"/>
<path opacity="0.35" d="M1243.71 209.627C1243.23 209.627 1242.84 210.017 1242.84 210.498C1242.84 210.978 1243.23 211.368 1243.71 211.368C1244.19 211.368 1244.58 210.978 1244.58 210.498C1244.58 210.017 1244.19 209.627 1243.71 209.627Z" fill="white"/>
<path opacity="0.35" d="M1130.5 52.9609C1130.02 52.9609 1129.63 53.3506 1129.63 53.8313C1129.63 54.312 1130.02 54.7017 1130.5 54.7017C1130.98 54.7017 1131.37 54.312 1131.37 53.8313C1131.37 53.3506 1130.98 52.9609 1130.5 52.9609Z" fill="white"/>
<path opacity="0.35" d="M991.166 705.739C990.685 705.739 990.295 706.128 990.295 706.609C990.295 707.09 990.685 707.479 991.166 707.479C991.647 707.479 992.037 707.09 992.037 706.609C992.037 706.128 991.647 705.739 991.166 705.739Z" fill="white"/>
<path opacity="0.35" d="M869.25 418.516C868.769 418.516 868.379 418.906 868.379 419.387C868.379 419.867 868.769 420.257 869.25 420.257C869.731 420.257 870.12 419.867 870.12 419.387C870.12 418.906 869.731 418.516 869.25 418.516Z" fill="white"/>
<path opacity="0.35" d="M764.75 122.59C764.269 122.59 763.879 122.98 763.879 123.461C763.879 123.942 764.269 124.331 764.75 124.331C765.231 124.331 765.62 123.942 765.62 123.461C765.62 122.98 765.231 122.59 764.75 122.59Z" fill="white"/>
<path opacity="0.35" d="M677.666 766.665C677.185 766.665 676.795 767.054 676.795 767.535C676.795 768.016 677.185 768.405 677.666 768.405C678.147 768.405 678.537 768.016 678.537 767.535C678.537 767.054 678.147 766.665 677.666 766.665Z" fill="white"/>
<path opacity="0.35" d="M538.333 105.183C537.852 105.183 537.462 105.573 537.462 106.053C537.462 106.534 537.852 106.924 538.333 106.924C538.814 106.924 539.204 106.534 539.204 106.053C539.204 105.573 538.814 105.183 538.333 105.183Z" fill="white"/>
<path opacity="0.35" d="M416.416 679.627C415.935 679.627 415.545 680.017 415.545 680.498C415.545 680.978 415.935 681.368 416.416 681.368C416.897 681.368 417.287 680.978 417.287 680.498C417.287 680.017 416.897 679.627 416.416 679.627Z" fill="white"/>
<path opacity="0.35" d="M277.083 279.257C276.602 279.257 276.212 279.647 276.212 280.128C276.212 280.608 276.602 280.998 277.083 280.998C277.564 280.998 277.954 280.608 277.954 280.128C277.954 279.647 277.564 279.257 277.083 279.257Z" fill="white"/>
<path opacity="0.35" d="M120.333 514.257C119.852 514.257 119.462 514.647 119.462 515.127C119.462 515.608 119.852 515.998 120.333 515.998C120.814 515.998 121.204 515.608 121.204 515.127C121.204 514.647 120.814 514.257 120.333 514.257Z" fill="white"/>
<path opacity="0.35" d="M33.2497 174.813C32.7688 174.813 32.3789 175.202 32.3789 175.683C32.3789 176.164 32.7688 176.553 33.2497 176.553C33.7307 176.553 34.1205 176.164 34.1205 175.683C34.1205 175.202 33.7307 174.813 33.2497 174.813Z" fill="white"/>
<path opacity="0.6" d="M1402.08 1053.57C1401.12 1053.57 1400.34 1054.35 1400.34 1055.31C1400.34 1056.27 1401.12 1057.05 1402.08 1057.05C1403.04 1057.05 1403.82 1056.27 1403.82 1055.31C1403.82 1054.35 1403.04 1053.57 1402.08 1053.57Z" fill="white"/>
<path opacity="0.6" d="M1140.83 461.72C1139.87 461.72 1139.09 462.5 1139.09 463.461C1139.09 464.422 1139.87 465.202 1140.83 465.202C1141.79 465.202 1142.57 464.422 1142.57 463.461C1142.57 462.5 1141.79 461.72 1140.83 461.72Z" fill="white"/>
<path opacity="0.6" d="M809.916 966.535C808.955 966.535 808.175 967.314 808.175 968.276C808.175 969.237 808.955 970.016 809.916 970.016C810.878 970.016 811.658 969.237 811.658 968.276C811.658 967.314 810.878 966.535 809.916 966.535Z" fill="white"/>
<path opacity="0.6" d="M513.833 566.165C512.871 566.165 512.091 566.944 512.091 567.905C512.091 568.867 512.871 569.646 513.833 569.646C514.795 569.646 515.575 568.867 515.575 567.905C515.575 566.944 514.795 566.165 513.833 566.165Z" fill="white"/>
<path opacity="0.6" d="M182.916 1070.98C181.955 1070.98 181.175 1071.76 181.175 1072.72C181.175 1073.68 181.955 1074.46 182.916 1074.46C183.878 1074.46 184.658 1073.68 184.658 1072.72C184.658 1071.76 183.878 1070.98 182.916 1070.98Z" fill="white"/>
<path opacity="0.9" d="M617.025 1602.49C615.589 1602.35 614.312 1603.41 614.173 1604.84C614.034 1606.28 615.086 1607.55 616.522 1607.69C617.958 1607.83 619.235 1606.78 619.374 1605.34C619.513 1603.91 618.461 1602.63 617.025 1602.49Z" fill="white"/>
<path opacity="0.9" d="M1146.54 1374.35C1145.35 1374.23 1144.28 1375.11 1144.17 1376.31C1144.05 1377.5 1144.93 1378.57 1146.12 1378.68C1147.32 1378.8 1148.39 1377.92 1148.5 1376.73C1148.62 1375.53 1147.74 1374.47 1146.54 1374.35Z" fill="white"/>
<path d="M500.437 1722.38C499 1722.24 497.724 1723.29 497.585 1724.73C497.446 1726.16 498.497 1727.44 499.934 1727.58C501.37 1727.71 502.647 1726.66 502.785 1725.23C502.924 1723.79 501.873 1722.52 500.437 1722.38Z" fill="#00F0FF"/>
<path opacity="0.9" d="M482.899 750.691C483.53 748.76 482.951 746.011 481.605 744.551C480.259 743.091 478.656 743.473 478.025 745.405C477.394 747.336 477.973 750.085 479.319 751.545C480.665 753.005 482.268 752.623 482.899 750.691Z" fill="white"/>
<path opacity="0.9" d="M463.413 1738.84C463.939 1737.24 463.456 1734.94 462.335 1733.73C461.213 1732.51 459.877 1732.83 459.351 1734.44C458.825 1736.05 459.308 1738.34 460.43 1739.56C461.551 1740.77 462.887 1740.45 463.413 1738.84Z" fill="white"/>
<path d="M424.182 482.17C424.813 480.239 424.234 477.49 422.888 476.03C421.542 474.57 419.939 474.952 419.308 476.884C418.676 478.815 419.256 481.564 420.602 483.024C421.948 484.484 423.55 484.102 424.182 482.17Z" fill="#00F0FF"/>
<path opacity="0.6" d="M2.63631 1161.03C3.56071 1160.76 4.09462 1159.8 3.82883 1158.87C3.56303 1157.95 2.59818 1157.41 1.67378 1157.68C0.749377 1157.95 0.215469 1158.91 0.481264 1159.83C0.747059 1160.76 1.71191 1161.29 2.63631 1161.03Z" fill="white"/>
<path opacity="0.6" d="M417.333 1657.58C418.258 1657.31 418.792 1656.35 418.526 1655.43C418.26 1654.5 417.295 1653.97 416.371 1654.24C415.446 1654.5 414.912 1655.47 415.178 1656.39C415.444 1657.31 416.409 1657.85 417.333 1657.58Z" fill="white"/>
<path opacity="0.6" d="M595.785 1080.95C596.709 1080.69 597.243 1079.72 596.977 1078.8C596.712 1077.88 595.747 1077.34 594.822 1077.61C593.898 1077.87 593.364 1078.84 593.63 1079.76C593.896 1080.69 594.86 1081.22 595.785 1080.95Z" fill="white"/>
<path opacity="0.6" d="M991.018 1383.86C991.943 1383.59 992.477 1382.63 992.211 1381.71C991.945 1380.78 990.98 1380.25 990.056 1380.51C989.131 1380.78 988.598 1381.74 988.863 1382.67C989.129 1383.59 990.094 1384.13 991.018 1383.86Z" fill="white"/>
<path opacity="0.6" d="M1169.47 807.233C1170.39 806.967 1170.93 806.002 1170.66 805.079C1170.4 804.155 1169.43 803.621 1168.51 803.887C1167.58 804.153 1167.05 805.118 1167.32 806.042C1167.58 806.965 1168.55 807.499 1169.47 807.233Z" fill="white"/>
<path opacity="0.35" d="M337.464 1511.46C337.705 1511.04 337.562 1510.51 337.146 1510.27C336.73 1510.03 336.197 1510.17 335.957 1510.59C335.716 1511 335.859 1511.54 336.275 1511.78C336.692 1512.02 337.224 1511.88 337.464 1511.46Z" fill="white"/>
<path opacity="0.35" d="M555.542 1516.7C555.783 1516.28 555.64 1515.75 555.224 1515.51C554.808 1515.27 554.275 1515.41 554.035 1515.83C553.794 1516.25 553.937 1516.78 554.353 1517.02C554.769 1517.26 555.302 1517.12 555.542 1516.7Z" fill="white"/>
<path opacity="0.35" d="M943.802 1610.14C944.043 1609.72 943.9 1609.19 943.484 1608.95C943.068 1608.71 942.535 1608.85 942.295 1609.27C942.054 1609.69 942.197 1610.22 942.613 1610.46C943.029 1610.7 943.562 1610.56 943.802 1610.14Z" fill="white"/>
<path opacity="0.35" d="M1136.08 1590.43C1136.32 1590.02 1136.18 1589.48 1135.77 1589.24C1135.35 1589 1134.82 1589.14 1134.58 1589.56C1134.34 1589.98 1134.48 1590.51 1134.89 1590.75C1135.31 1590.99 1135.84 1590.85 1136.08 1590.43Z" fill="white"/>
<path opacity="0.35" d="M640.428 1143.38C640.669 1142.96 640.526 1142.43 640.11 1142.19C639.693 1141.95 639.161 1142.09 638.921 1142.51C638.68 1142.92 638.823 1143.46 639.239 1143.7C639.655 1143.94 640.188 1143.79 640.428 1143.38Z" fill="white"/>
<path opacity="0.35" d="M950.128 1181.41C950.369 1180.99 950.226 1180.46 949.81 1180.22C949.393 1179.98 948.861 1180.12 948.621 1180.53C948.38 1180.95 948.523 1181.48 948.939 1181.72C949.355 1181.96 949.888 1181.82 950.128 1181.41Z" fill="white"/>
<path opacity="0.35" d="M1258.66 1238.87C1258.9 1238.45 1258.76 1237.92 1258.34 1237.68C1257.92 1237.44 1257.39 1237.58 1257.15 1238C1256.91 1238.41 1257.05 1238.95 1257.47 1239.19C1257.88 1239.43 1258.42 1239.28 1258.66 1238.87Z" fill="white"/>
<path opacity="0.35" d="M744.415 841.415C744.655 840.998 744.513 840.466 744.096 840.226C743.68 839.985 743.148 840.128 742.907 840.545C742.667 840.961 742.809 841.494 743.225 841.734C743.642 841.974 744.174 841.831 744.415 841.415Z" fill="white"/>
<path opacity="0.35" d="M1386.94 1051.49C1387.18 1051.07 1387.04 1050.54 1386.62 1050.3C1386.21 1050.06 1385.67 1050.2 1385.43 1050.62C1385.19 1051.04 1385.34 1051.57 1385.75 1051.81C1386.17 1052.05 1386.7 1051.91 1386.94 1051.49Z" fill="white"/>
<path opacity="0.35" d="M950.416 658.684C950.656 658.268 950.514 657.735 950.098 657.495C949.681 657.255 949.149 657.397 948.908 657.814C948.668 658.23 948.81 658.763 949.227 659.003C949.643 659.244 950.175 659.101 950.416 658.684Z" fill="white"/>
<path opacity="0.35" d="M1366.81 738.203C1367.05 737.787 1366.91 737.254 1366.49 737.014C1366.08 736.774 1365.55 736.916 1365.31 737.333C1365.07 737.749 1365.21 738.282 1365.62 738.522C1366.04 738.763 1366.57 738.62 1366.81 738.203Z" fill="white"/>
<path opacity="0.35" d="M1241.67 484.954C1241.91 484.537 1241.77 484.005 1241.35 483.764C1240.94 483.524 1240.41 483.667 1240.17 484.083C1239.92 484.5 1240.07 485.032 1240.48 485.273C1240.9 485.513 1241.43 485.37 1241.67 484.954Z" fill="white"/>
<path opacity="0.35" d="M1579.18 579.26C1579.42 578.843 1579.28 578.311 1578.86 578.07C1578.45 577.83 1577.91 577.973 1577.67 578.389C1577.43 578.806 1577.58 579.338 1577.99 579.578C1578.41 579.819 1578.94 579.676 1579.18 579.26Z" fill="white"/>
<path opacity="0.35" d="M671.913 1612.18C672.154 1611.76 672.011 1611.23 671.595 1610.99C671.179 1610.75 670.646 1610.89 670.406 1611.31C670.165 1611.72 670.308 1612.26 670.724 1612.5C671.14 1612.74 671.673 1612.59 671.913 1612.18Z" fill="white"/>
<path opacity="0.35" d="M889.991 1617.42C890.231 1617 890.089 1616.47 889.673 1616.23C889.256 1615.99 888.724 1616.13 888.483 1616.55C888.243 1616.96 888.385 1617.5 888.802 1617.74C889.218 1617.98 889.75 1617.83 889.991 1617.42Z" fill="white"/>
<path opacity="0.35" d="M1278.25 1710.86C1278.49 1710.44 1278.35 1709.91 1277.93 1709.67C1277.52 1709.43 1276.98 1709.57 1276.74 1709.99C1276.5 1710.4 1276.65 1710.94 1277.06 1711.18C1277.48 1711.42 1278.01 1711.27 1278.25 1710.86Z" fill="white"/>
<path opacity="0.35" d="M1470.53 1691.15C1470.77 1690.73 1470.63 1690.2 1470.21 1689.96C1469.8 1689.72 1469.27 1689.86 1469.02 1690.28C1468.78 1690.7 1468.93 1691.23 1469.34 1691.47C1469.76 1691.71 1470.29 1691.57 1470.53 1691.15Z" fill="white"/>
<path opacity="0.35" d="M974.877 1244.09C975.117 1243.68 974.975 1243.15 974.558 1242.91C974.142 1242.67 973.61 1242.81 973.369 1243.22C973.129 1243.64 973.271 1244.17 973.688 1244.41C974.104 1244.65 974.636 1244.51 974.877 1244.09Z" fill="white"/>
<path opacity="0.35" d="M1284.58 1282.12C1284.82 1281.71 1284.67 1281.17 1284.26 1280.93C1283.84 1280.69 1283.31 1280.84 1283.07 1281.25C1282.83 1281.67 1282.97 1282.2 1283.39 1282.44C1283.8 1282.68 1284.34 1282.54 1284.58 1282.12Z" fill="white"/>
<path opacity="0.35" d="M1593.11 1339.59C1593.35 1339.17 1593.2 1338.64 1592.79 1338.4C1592.37 1338.16 1591.84 1338.3 1591.6 1338.72C1591.36 1339.13 1591.5 1339.66 1591.92 1339.91C1592.33 1340.15 1592.87 1340 1593.11 1339.59Z" fill="white"/>
<path opacity="0.35" d="M1078.86 942.133C1079.1 941.716 1078.96 941.184 1078.55 940.944C1078.13 940.703 1077.6 940.846 1077.36 941.263C1077.12 941.679 1077.26 942.212 1077.67 942.452C1078.09 942.692 1078.62 942.549 1078.86 942.133Z" fill="white"/>
<path opacity="0.35" d="M1721.39 1152.21C1721.63 1151.79 1721.49 1151.26 1721.07 1151.02C1720.66 1150.78 1720.12 1150.92 1719.88 1151.34C1719.64 1151.75 1719.78 1152.29 1720.2 1152.53C1720.62 1152.77 1721.15 1152.62 1721.39 1152.21Z" fill="white"/>
<path opacity="0.35" d="M1284.86 759.402C1285.11 758.986 1284.96 758.453 1284.55 758.213C1284.13 757.973 1283.6 758.115 1283.36 758.532C1283.12 758.948 1283.26 759.481 1283.68 759.721C1284.09 759.962 1284.62 759.819 1284.86 759.402Z" fill="white"/>
<path opacity="0.35" d="M1701.26 838.921C1701.5 838.505 1701.36 837.972 1700.94 837.732C1700.53 837.492 1699.99 837.634 1699.75 838.051C1699.51 838.467 1699.66 839 1700.07 839.24C1700.49 839.481 1701.02 839.338 1701.26 838.921Z" fill="white"/>
<path opacity="0.35" d="M1576.12 585.672C1576.36 585.255 1576.22 584.723 1575.8 584.482C1575.39 584.242 1574.85 584.385 1574.61 584.801C1574.37 585.218 1574.52 585.75 1574.93 585.991C1575.35 586.231 1575.88 586.088 1576.12 585.672Z" fill="white"/>
<path opacity="0.6" d="M468.186 1426.04C468.667 1425.21 468.382 1424.14 467.549 1423.66C466.717 1423.18 465.652 1423.47 465.171 1424.3C464.69 1425.13 464.975 1426.2 465.808 1426.68C466.64 1427.16 467.705 1426.88 468.186 1426.04Z" fill="white"/>
<path opacity="0.6" d="M1111.37 1495.72C1111.85 1494.89 1111.57 1493.82 1110.73 1493.34C1109.9 1492.86 1108.84 1493.15 1108.35 1493.98C1107.87 1494.81 1108.16 1495.88 1108.99 1496.36C1109.82 1496.84 1110.89 1496.55 1111.37 1495.72Z" fill="white"/>
<path opacity="0.6" d="M839.646 956.73C840.126 955.897 839.841 954.832 839.009 954.351C838.176 953.87 837.111 954.156 836.63 954.989C836.15 955.822 836.435 956.887 837.267 957.368C838.1 957.848 839.165 957.563 839.646 956.73Z" fill="white"/>
<path opacity="0.6" d="M1334.42 900.499C1334.9 899.666 1334.61 898.601 1333.78 898.12C1332.95 897.64 1331.88 897.925 1331.4 898.758C1330.92 899.591 1331.21 900.656 1332.04 901.137C1332.87 901.618 1333.94 901.332 1334.42 900.499Z" fill="white"/>
<path opacity="0.6" d="M1062.69 361.509C1063.17 360.676 1062.89 359.611 1062.06 359.131C1061.22 358.65 1060.16 358.936 1059.68 359.769C1059.2 360.602 1059.48 361.667 1060.32 362.147C1061.15 362.628 1062.21 362.342 1062.69 361.509Z" fill="white"/>
<path opacity="0.9" d="M385.335 471.701C386.173 470.527 385.901 468.896 384.728 468.058C383.554 467.22 381.923 467.493 381.085 468.667C380.246 469.841 380.518 471.472 381.692 472.31C382.865 473.148 384.496 472.876 385.335 471.701Z" fill="white"/>
<path opacity="0.9" d="M318.154 1044.35C318.853 1043.37 318.626 1042.01 317.648 1041.31C316.67 1040.62 315.311 1040.84 314.612 1041.82C313.914 1042.8 314.14 1044.16 315.118 1044.86C316.096 1045.56 317.456 1045.33 318.154 1044.35Z" fill="white"/>
<path d="M339.806 310.791C340.645 309.617 340.373 307.985 339.2 307.147C338.026 306.309 336.395 306.582 335.556 307.756C334.718 308.931 334.99 310.562 336.163 311.4C337.337 312.238 338.968 311.965 339.806 310.791Z" fill="#00F0FF"/>
<path opacity="0.9" d="M1190.08 781.446C1191.44 782.958 1194.11 783.831 1196.05 783.395C1197.98 782.96 1198.45 781.38 1197.1 779.868C1195.74 778.356 1193.07 777.483 1191.13 777.919C1189.19 778.354 1188.72 779.934 1190.08 781.446Z" fill="white"/>
<path opacity="0.9" d="M344.057 270.494C345.188 271.754 347.413 272.481 349.028 272.118C350.642 271.755 351.034 270.439 349.903 269.179C348.773 267.919 346.547 267.191 344.933 267.554C343.318 267.918 342.926 269.234 344.057 270.494Z" fill="white"/>
<path d="M1451.98 864.856C1453.34 866.368 1456.01 867.241 1457.95 866.805C1459.89 866.369 1460.36 864.79 1459 863.278C1457.64 861.765 1454.97 860.893 1453.04 861.328C1451.1 861.764 1450.63 863.343 1451.98 864.856Z" fill="#00F0FF"/>
<path opacity="0.35" d="M1235.81 1995.48C1236.05 1995.06 1235.91 1994.53 1235.49 1994.29C1235.08 1994.05 1234.54 1994.19 1234.3 1994.61C1234.06 1995.02 1234.21 1995.56 1234.62 1995.8C1235.04 1996.04 1235.57 1995.89 1235.81 1995.48Z" fill="white"/>
<path opacity="0.35" d="M1453.89 2000.72C1454.13 2000.3 1453.99 1999.77 1453.57 1999.53C1453.15 1999.29 1452.62 1999.43 1452.38 1999.85C1452.14 2000.27 1452.28 2000.8 1452.7 2001.04C1453.12 2001.28 1453.65 2001.14 1453.89 2000.72Z" fill="white"/>
<path opacity="0.35" d="M1538.77 1627.4C1539.01 1626.98 1538.87 1626.45 1538.46 1626.21C1538.04 1625.97 1537.51 1626.11 1537.27 1626.53C1537.03 1626.94 1537.17 1627.47 1537.59 1627.72C1538 1627.96 1538.53 1627.81 1538.77 1627.4Z" fill="white"/>
<path opacity="0.35" d="M1642.76 1325.43C1643 1325.02 1642.86 1324.49 1642.44 1324.24C1642.03 1324 1641.49 1324.15 1641.25 1324.56C1641.01 1324.98 1641.16 1325.51 1641.57 1325.75C1641.99 1325.99 1642.52 1325.85 1642.76 1325.43Z" fill="white"/>
<path opacity="0.6" d="M283.668 1100.02C284.593 1099.76 285.127 1098.79 284.861 1097.87C284.595 1096.94 283.63 1096.41 282.706 1096.68C281.781 1096.94 281.248 1097.91 281.513 1098.83C281.779 1099.76 282.744 1100.29 283.668 1100.02Z" fill="white"/>
<path opacity="0.6" d="M698.365 1596.58C699.29 1596.31 699.824 1595.35 699.558 1594.42C699.292 1593.5 698.327 1592.97 697.403 1593.23C696.479 1593.5 695.945 1594.46 696.21 1595.39C696.476 1596.31 697.441 1596.84 698.365 1596.58Z" fill="white"/>
<path opacity="0.6" d="M876.817 1019.95C877.741 1019.68 878.275 1018.72 878.009 1017.8C877.744 1016.87 876.779 1016.34 875.854 1016.6C874.93 1016.87 874.396 1017.84 874.662 1018.76C874.928 1019.68 875.893 1020.22 876.817 1019.95Z" fill="white"/>
<path opacity="0.6" d="M1272.05 1322.86C1272.98 1322.59 1273.51 1321.63 1273.24 1320.7C1272.98 1319.78 1272.01 1319.25 1271.09 1319.51C1270.16 1319.78 1269.63 1320.74 1269.9 1321.67C1270.16 1322.59 1271.13 1323.12 1272.05 1322.86Z" fill="white"/>
<path opacity="0.6" d="M1450.5 746.23C1451.43 745.964 1451.96 744.999 1451.69 744.076C1451.43 743.152 1450.46 742.618 1449.54 742.884C1448.62 743.15 1448.08 744.115 1448.35 745.039C1448.61 745.963 1449.58 746.496 1450.5 746.23Z" fill="white"/>
<path opacity="0.35" d="M618.497 1450.46C618.737 1450.04 618.595 1449.51 618.178 1449.27C617.762 1449.03 617.23 1449.17 616.989 1449.59C616.749 1450 616.891 1450.53 617.307 1450.77C617.724 1451.02 618.256 1450.87 618.497 1450.46Z" fill="white"/>
<path opacity="0.35" d="M836.574 1455.7C836.815 1455.28 836.672 1454.75 836.256 1454.51C835.84 1454.27 835.307 1454.41 835.067 1454.83C834.826 1455.24 834.969 1455.78 835.385 1456.02C835.802 1456.26 836.334 1456.11 836.574 1455.7Z" fill="white"/>
<path opacity="0.35" d="M1224.83 1549.14C1225.07 1548.72 1224.93 1548.19 1224.52 1547.95C1224.1 1547.71 1223.57 1547.85 1223.33 1548.27C1223.09 1548.68 1223.23 1549.22 1223.65 1549.46C1224.06 1549.7 1224.59 1549.55 1224.83 1549.14Z" fill="white"/>
<path opacity="0.35" d="M1417.12 1529.43C1417.36 1529.01 1417.21 1528.48 1416.8 1528.24C1416.38 1528 1415.85 1528.14 1415.61 1528.56C1415.37 1528.98 1415.51 1529.51 1415.93 1529.75C1416.34 1529.99 1416.88 1529.85 1417.12 1529.43Z" fill="white"/>
<path opacity="0.35" d="M921.46 1082.37C921.701 1081.96 921.558 1081.42 921.142 1081.18C920.726 1080.94 920.193 1081.09 919.953 1081.5C919.712 1081.92 919.855 1082.45 920.271 1082.69C920.687 1082.93 921.22 1082.79 921.46 1082.37Z" fill="white"/>
<path opacity="0.35" d="M1231.16 1120.4C1231.4 1119.99 1231.26 1119.45 1230.84 1119.21C1230.43 1118.97 1229.89 1119.12 1229.65 1119.53C1229.41 1119.95 1229.56 1120.48 1229.97 1120.72C1230.39 1120.96 1230.92 1120.82 1231.16 1120.4Z" fill="white"/>
<path opacity="0.35" d="M1539.69 1177.87C1539.93 1177.45 1539.79 1176.92 1539.37 1176.68C1538.96 1176.44 1538.42 1176.58 1538.18 1176.99C1537.94 1177.41 1538.08 1177.94 1538.5 1178.18C1538.92 1178.42 1539.45 1178.28 1539.69 1177.87Z" fill="white"/>
<path opacity="0.35" d="M1025.45 780.412C1025.69 779.995 1025.54 779.463 1025.13 779.223C1024.71 778.982 1024.18 779.125 1023.94 779.542C1023.7 779.958 1023.84 780.491 1024.26 780.731C1024.67 780.971 1025.21 780.828 1025.45 780.412Z" fill="white"/>
<path opacity="0.35" d="M1667.97 990.486C1668.21 990.07 1668.07 989.537 1667.66 989.297C1667.24 989.057 1666.71 989.2 1666.47 989.616C1666.23 990.033 1666.37 990.565 1666.78 990.805C1667.2 991.046 1667.73 990.903 1667.97 990.486Z" fill="white"/>
<path opacity="0.35" d="M1231.45 597.681C1231.69 597.265 1231.55 596.732 1231.13 596.492C1230.71 596.252 1230.18 596.394 1229.94 596.811C1229.7 597.227 1229.84 597.76 1230.26 598C1230.68 598.241 1231.21 598.098 1231.45 597.681Z" fill="white"/>
<path opacity="0.35" d="M1647.85 677.2C1648.09 676.784 1647.94 676.251 1647.53 676.011C1647.11 675.771 1646.58 675.913 1646.34 676.33C1646.1 676.746 1646.24 677.279 1646.66 677.519C1647.07 677.76 1647.61 677.617 1647.85 677.2Z" fill="white"/>
<path opacity="0.35" d="M1522.7 423.951C1522.95 423.534 1522.8 423.002 1522.39 422.761C1521.97 422.521 1521.44 422.664 1521.2 423.08C1520.96 423.497 1521.1 424.029 1521.52 424.27C1521.93 424.51 1522.46 424.367 1522.7 423.951Z" fill="white"/>
<path opacity="0.35" d="M952.945 1551.17C953.186 1550.76 953.043 1550.22 952.627 1549.98C952.211 1549.74 951.678 1549.89 951.438 1550.3C951.197 1550.72 951.34 1551.25 951.756 1551.49C952.172 1551.73 952.705 1551.59 952.945 1551.17Z" fill="white"/>
<path opacity="0.35" d="M1171.02 1556.41C1171.26 1556 1171.12 1555.47 1170.7 1555.23C1170.29 1554.99 1169.76 1555.13 1169.52 1555.54C1169.28 1555.96 1169.42 1556.49 1169.83 1556.73C1170.25 1556.97 1170.78 1556.83 1171.02 1556.41Z" fill="white"/>
<path opacity="0.35" d="M1559.28 1649.85C1559.52 1649.44 1559.38 1648.91 1558.96 1648.67C1558.55 1648.43 1558.02 1648.57 1557.78 1648.98C1557.54 1649.4 1557.68 1649.93 1558.09 1650.17C1558.51 1650.41 1559.04 1650.27 1559.28 1649.85Z" fill="white"/>
<path opacity="0.35" d="M1255.91 1183.09C1256.15 1182.68 1256.01 1182.14 1255.59 1181.9C1255.17 1181.66 1254.64 1181.81 1254.4 1182.22C1254.16 1182.64 1254.3 1183.17 1254.72 1183.41C1255.14 1183.65 1255.67 1183.51 1255.91 1183.09Z" fill="white"/>
<path opacity="0.35" d="M1565.61 1221.12C1565.85 1220.7 1565.71 1220.17 1565.29 1219.93C1564.87 1219.69 1564.34 1219.83 1564.1 1220.25C1563.86 1220.67 1564 1221.2 1564.42 1221.44C1564.84 1221.68 1565.37 1221.54 1565.61 1221.12Z" fill="white"/>
<path opacity="0.35" d="M1359.9 881.13C1360.14 880.713 1359.99 880.181 1359.58 879.941C1359.16 879.7 1358.63 879.843 1358.39 880.26C1358.15 880.676 1358.29 881.209 1358.71 881.449C1359.12 881.689 1359.66 881.547 1359.9 881.13Z" fill="white"/>
<path opacity="0.35" d="M1565.9 698.399C1566.14 697.983 1565.99 697.45 1565.58 697.21C1565.16 696.97 1564.63 697.112 1564.39 697.529C1564.15 697.945 1564.29 698.478 1564.71 698.718C1565.12 698.959 1565.66 698.816 1565.9 698.399Z" fill="white"/>
<path opacity="0.6" d="M749.218 1365.04C749.699 1364.21 749.414 1363.14 748.581 1362.66C747.749 1362.18 746.684 1362.47 746.203 1363.3C745.722 1364.13 746.007 1365.2 746.84 1365.68C747.672 1366.16 748.737 1365.87 749.218 1365.04Z" fill="white"/>
<path opacity="0.6" d="M1392.4 1434.72C1392.88 1433.88 1392.6 1432.82 1391.77 1432.34C1390.93 1431.86 1389.87 1432.14 1389.39 1432.98C1388.91 1433.81 1389.19 1434.87 1390.02 1435.35C1390.86 1435.83 1391.92 1435.55 1392.4 1434.72Z" fill="white"/>
<path opacity="0.6" d="M1120.68 895.727C1121.16 894.894 1120.87 893.829 1120.04 893.348C1119.21 892.867 1118.14 893.153 1117.66 893.986C1117.18 894.819 1117.47 895.884 1118.3 896.365C1119.13 896.845 1120.2 896.56 1120.68 895.727Z" fill="white"/>
<path opacity="0.6" d="M1615.45 839.496C1615.93 838.663 1615.65 837.598 1614.81 837.117C1613.98 836.637 1612.92 836.922 1612.44 837.755C1611.95 838.588 1612.24 839.653 1613.07 840.134C1613.9 840.615 1614.97 840.329 1615.45 839.496Z" fill="white"/>
<path opacity="0.6" d="M1343.73 300.506C1344.21 299.673 1343.92 298.608 1343.09 298.128C1342.26 297.647 1341.19 297.933 1340.71 298.766C1340.23 299.599 1340.52 300.664 1341.35 301.144C1342.18 301.625 1343.25 301.339 1343.73 300.506Z" fill="white"/>
<path opacity="0.9" d="M666.367 410.698C667.205 409.524 666.933 407.893 665.76 407.055C664.586 406.217 662.955 406.49 662.117 407.664C661.278 408.838 661.55 410.469 662.724 411.307C663.897 412.145 665.528 411.873 666.367 410.698Z" fill="white"/>
<path opacity="0.9" d="M599.186 983.347C599.885 982.368 599.659 981.009 598.681 980.311C597.703 979.612 596.343 979.84 595.645 980.818C594.946 981.797 595.172 983.156 596.15 983.854C597.128 984.553 598.488 984.325 599.186 983.347Z" fill="white"/>
<path d="M620.839 249.788C621.677 248.614 621.405 246.982 620.232 246.144C619.058 245.306 617.427 245.579 616.589 246.753C615.75 247.928 616.022 249.559 617.195 250.397C618.369 251.235 620 250.962 620.839 249.788Z" fill="#00F0FF"/>
<path opacity="0.9" d="M1471.11 720.443C1472.47 721.955 1475.14 722.828 1477.08 722.393C1479.01 721.957 1479.48 720.378 1478.13 718.865C1476.77 717.353 1474.1 716.48 1472.16 716.916C1470.23 717.351 1469.76 718.931 1471.11 720.443Z" fill="white"/>
<path opacity="0.9" d="M625.089 209.491C626.22 210.751 628.446 211.479 630.06 211.115C631.674 210.752 632.066 209.436 630.935 208.176C629.805 206.916 627.579 206.188 625.965 206.551C624.35 206.915 623.958 208.231 625.089 209.491Z" fill="white"/>
<path opacity="0.35" d="M1516.84 1934.48C1517.08 1934.06 1516.94 1933.53 1516.52 1933.29C1516.11 1933.05 1515.58 1933.19 1515.34 1933.6C1515.09 1934.02 1515.24 1934.55 1515.65 1934.79C1516.07 1935.03 1516.6 1934.89 1516.84 1934.48Z" fill="white"/>
<path opacity="0.6" d="M347.365 1126.58C348.29 1126.32 348.824 1125.35 348.558 1124.43C348.292 1123.51 347.327 1122.97 346.403 1123.24C345.479 1123.5 344.945 1124.47 345.21 1125.39C345.476 1126.32 346.441 1126.85 347.365 1126.58Z" fill="white"/>
<path opacity="0.6" d="M525.817 549.957C526.741 549.691 527.275 548.726 527.009 547.802C526.744 546.878 525.779 546.345 524.854 546.611C523.93 546.877 523.396 547.841 523.662 548.765C523.928 549.689 524.893 550.222 525.817 549.957Z" fill="white"/>
<path opacity="0.6" d="M921.05 852.863C921.975 852.597 922.509 851.632 922.243 850.709C921.977 849.785 921.012 849.251 920.088 849.517C919.164 849.783 918.63 850.748 918.895 851.672C919.161 852.595 920.126 853.129 921.05 852.863Z" fill="white"/>
<path opacity="0.6" d="M1099.5 276.236C1100.43 275.97 1100.96 275.005 1100.69 274.081C1100.43 273.157 1099.46 272.624 1098.54 272.89C1097.62 273.156 1097.08 274.12 1097.35 275.044C1097.61 275.968 1098.58 276.502 1099.5 276.236Z" fill="white"/>
<path opacity="0.35" d="M267.497 980.462C267.737 980.045 267.595 979.513 267.178 979.272C266.762 979.032 266.23 979.175 265.989 979.591C265.749 980.008 265.891 980.54 266.307 980.781C266.724 981.021 267.256 980.878 267.497 980.462Z" fill="white"/>
<path opacity="0.35" d="M485.574 985.703C485.815 985.286 485.672 984.754 485.256 984.513C484.84 984.273 484.307 984.416 484.067 984.832C483.826 985.249 483.969 985.781 484.385 986.022C484.802 986.262 485.334 986.119 485.574 985.703Z" fill="white"/>
<path opacity="0.35" d="M873.834 1079.14C874.075 1078.73 873.932 1078.19 873.516 1077.95C873.1 1077.71 872.567 1077.86 872.327 1078.27C872.086 1078.69 872.229 1079.22 872.645 1079.46C873.062 1079.7 873.594 1079.56 873.834 1079.14Z" fill="white"/>
<path opacity="0.35" d="M1066.12 1059.43C1066.36 1059.02 1066.21 1058.49 1065.8 1058.25C1065.38 1058.01 1064.85 1058.15 1064.61 1058.56C1064.37 1058.98 1064.51 1059.51 1064.93 1059.75C1065.34 1059.99 1065.88 1059.85 1066.12 1059.43Z" fill="white"/>
<path opacity="0.35" d="M570.46 612.38C570.701 611.963 570.558 611.431 570.142 611.19C569.726 610.95 569.193 611.093 568.953 611.509C568.712 611.926 568.855 612.458 569.271 612.699C569.687 612.939 570.22 612.796 570.46 612.38Z" fill="white"/>
<path opacity="0.35" d="M880.16 650.408C880.401 649.991 880.258 649.459 879.842 649.219C879.426 648.978 878.893 649.121 878.653 649.538C878.412 649.954 878.555 650.487 878.971 650.727C879.387 650.967 879.92 650.824 880.16 650.408Z" fill="white"/>
<path opacity="0.35" d="M1188.69 707.871C1188.93 707.455 1188.79 706.922 1188.37 706.682C1187.96 706.442 1187.42 706.584 1187.18 707.001C1186.94 707.417 1187.08 707.95 1187.5 708.19C1187.92 708.431 1188.45 708.288 1188.69 707.871Z" fill="white"/>
<path opacity="0.35" d="M674.447 310.418C674.687 310.001 674.545 309.469 674.129 309.228C673.712 308.988 673.18 309.131 672.939 309.547C672.699 309.964 672.841 310.496 673.258 310.737C673.674 310.977 674.206 310.834 674.447 310.418Z" fill="white"/>
<path opacity="0.35" d="M1316.97 520.492C1317.21 520.076 1317.07 519.543 1316.66 519.303C1316.24 519.063 1315.71 519.205 1315.47 519.622C1315.23 520.038 1315.37 520.571 1315.78 520.811C1316.2 521.052 1316.73 520.909 1316.97 520.492Z" fill="white"/>
<path opacity="0.35" d="M880.448 127.687C880.689 127.271 880.546 126.738 880.13 126.498C879.714 126.257 879.181 126.4 878.941 126.817C878.7 127.233 878.843 127.766 879.259 128.006C879.675 128.247 880.208 128.104 880.448 127.687Z" fill="white"/>
<path opacity="0.35" d="M1296.85 207.206C1297.09 206.79 1296.94 206.257 1296.53 206.017C1296.11 205.776 1295.58 205.919 1295.34 206.336C1295.1 206.752 1295.24 207.285 1295.66 207.525C1296.07 207.765 1296.61 207.623 1296.85 207.206Z" fill="white"/>
<path opacity="0.35" d="M601.945 1081.18C602.186 1080.76 602.043 1080.23 601.627 1079.99C601.211 1079.75 600.678 1079.89 600.438 1080.31C600.197 1080.73 600.34 1081.26 600.756 1081.5C601.172 1081.74 601.705 1081.6 601.945 1081.18Z" fill="white"/>
<path opacity="0.35" d="M820.023 1086.42C820.264 1086 820.121 1085.47 819.705 1085.23C819.289 1084.99 818.756 1085.13 818.516 1085.55C818.275 1085.97 818.418 1086.5 818.834 1086.74C819.25 1086.98 819.783 1086.84 820.023 1086.42Z" fill="white"/>
<path opacity="0.35" d="M1208.28 1179.86C1208.52 1179.44 1208.38 1178.91 1207.96 1178.67C1207.55 1178.43 1207.02 1178.57 1206.78 1178.99C1206.54 1179.41 1206.68 1179.94 1207.09 1180.18C1207.51 1180.42 1208.04 1180.28 1208.28 1179.86Z" fill="white"/>
<path opacity="0.35" d="M1400.56 1160.15C1400.8 1159.74 1400.66 1159.2 1400.25 1158.96C1399.83 1158.72 1399.3 1158.87 1399.06 1159.28C1398.82 1159.7 1398.96 1160.23 1399.38 1160.47C1399.79 1160.71 1400.32 1160.57 1400.56 1160.15Z" fill="white"/>
<path opacity="0.35" d="M904.909 713.098C905.149 712.681 905.007 712.149 904.591 711.908C904.174 711.668 903.642 711.811 903.401 712.227C903.161 712.644 903.304 713.176 903.72 713.417C904.136 713.657 904.669 713.514 904.909 713.098Z" fill="white"/>
<path opacity="0.35" d="M1214.61 751.126C1214.85 750.709 1214.71 750.177 1214.29 749.937C1213.87 749.696 1213.34 749.839 1213.1 750.256C1212.86 750.672 1213 751.205 1213.42 751.445C1213.84 751.685 1214.37 751.542 1214.61 751.126Z" fill="white"/>
<path opacity="0.35" d="M1523.14 808.589C1523.38 808.173 1523.24 807.64 1522.82 807.4C1522.4 807.16 1521.87 807.302 1521.63 807.719C1521.39 808.135 1521.53 808.668 1521.95 808.908C1522.37 809.149 1522.9 809.006 1523.14 808.589Z" fill="white"/>
<path opacity="0.35" d="M1008.9 411.136C1009.14 410.719 1008.99 410.187 1008.58 409.946C1008.16 409.706 1007.63 409.849 1007.39 410.265C1007.15 410.682 1007.29 411.214 1007.71 411.455C1008.12 411.695 1008.66 411.552 1008.9 411.136Z" fill="white"/>
<path opacity="0.35" d="M1651.42 621.21C1651.66 620.794 1651.52 620.261 1651.1 620.021C1650.69 619.781 1650.16 619.923 1649.91 620.34C1649.67 620.756 1649.82 621.289 1650.23 621.529C1650.65 621.77 1651.18 621.627 1651.42 621.21Z" fill="white"/>
<path opacity="0.35" d="M1214.9 228.405C1215.14 227.989 1214.99 227.456 1214.58 227.216C1214.16 226.975 1213.63 227.118 1213.39 227.535C1213.15 227.951 1213.29 228.484 1213.71 228.724C1214.12 228.964 1214.66 228.822 1214.9 228.405Z" fill="white"/>
<path opacity="0.35" d="M1631.29 307.924C1631.53 307.508 1631.39 306.975 1630.98 306.735C1630.56 306.494 1630.03 306.637 1629.79 307.054C1629.55 307.47 1629.69 308.003 1630.11 308.243C1630.52 308.484 1631.05 308.341 1631.29 307.924Z" fill="white"/>
<path opacity="0.6" d="M398.218 895.045C398.699 894.212 398.414 893.147 397.581 892.667C396.749 892.186 395.684 892.472 395.203 893.305C394.722 894.138 395.007 895.203 395.84 895.683C396.672 896.164 397.737 895.878 398.218 895.045Z" fill="white"/>
<path opacity="0.6" d="M1041.4 964.722C1041.88 963.889 1041.6 962.824 1040.77 962.343C1039.93 961.863 1038.87 962.148 1038.39 962.981C1037.91 963.814 1038.19 964.879 1039.02 965.36C1039.86 965.841 1040.92 965.555 1041.4 964.722Z" fill="white"/>
<path opacity="0.6" d="M769.678 425.733C770.159 424.899 769.874 423.834 769.041 423.354C768.208 422.873 767.144 423.159 766.663 423.992C766.182 424.825 766.467 425.89 767.299 426.37C768.132 426.851 769.197 426.566 769.678 425.733Z" fill="white"/>
<path opacity="0.6" d="M1264.45 369.502C1264.93 368.669 1264.65 367.604 1263.81 367.123C1262.98 366.643 1261.92 366.928 1261.44 367.761C1260.95 368.594 1261.24 369.659 1262.07 370.14C1262.9 370.621 1263.97 370.335 1264.45 369.502Z" fill="white"/>
<path opacity="0.9" d="M248.186 513.353C248.885 512.374 248.659 511.015 247.681 510.317C246.703 509.618 245.343 509.845 244.645 510.824C243.946 511.803 244.172 513.162 245.151 513.86C246.129 514.559 247.488 514.331 248.186 513.353Z" fill="white"/>
<path opacity="0.9" d="M1120.11 250.449C1121.47 251.961 1124.14 252.834 1126.08 252.398C1128.01 251.963 1128.48 250.383 1127.13 248.871C1125.77 247.359 1123.1 246.486 1121.16 246.922C1119.23 247.357 1118.76 248.936 1120.11 250.449Z" fill="white"/>
<path d="M1382.02 333.859C1383.37 335.371 1386.04 336.244 1387.98 335.808C1389.92 335.372 1390.39 333.793 1389.03 332.281C1387.68 330.768 1385 329.895 1383.07 330.331C1381.13 330.767 1380.66 332.346 1382.02 333.859Z" fill="#00F0FF"/>
<path opacity="0.35" d="M1165.84 1464.48C1166.08 1464.06 1165.94 1463.53 1165.52 1463.29C1165.11 1463.05 1164.58 1463.19 1164.34 1463.61C1164.09 1464.03 1164.24 1464.56 1164.65 1464.8C1165.07 1465.04 1165.6 1464.9 1165.84 1464.48Z" fill="white"/>
<path opacity="0.35" d="M1383.92 1469.72C1384.16 1469.31 1384.02 1468.77 1383.6 1468.53C1383.19 1468.29 1382.65 1468.43 1382.41 1468.85C1382.17 1469.27 1382.32 1469.8 1382.73 1470.04C1383.15 1470.28 1383.68 1470.14 1383.92 1469.72Z" fill="white"/>
<path opacity="0.35" d="M1468.81 1096.4C1469.05 1095.98 1468.9 1095.45 1468.49 1095.21C1468.07 1094.97 1467.54 1095.11 1467.3 1095.53C1467.06 1095.95 1467.2 1096.48 1467.62 1096.72C1468.03 1096.96 1468.57 1096.82 1468.81 1096.4Z" fill="white"/>
<path opacity="0.35" d="M1572.79 794.437C1573.03 794.02 1572.89 793.488 1572.47 793.248C1572.06 793.007 1571.53 793.15 1571.29 793.567C1571.05 793.983 1571.19 794.516 1571.6 794.756C1572.02 794.996 1572.55 794.854 1572.79 794.437Z" fill="white"/>
<path opacity="0.35" d="M1778.79 611.706C1779.03 611.29 1778.89 610.757 1778.48 610.517C1778.06 610.277 1777.53 610.419 1777.29 610.836C1777.05 611.252 1777.19 611.785 1777.61 612.025C1778.02 612.266 1778.55 612.123 1778.79 611.706Z" fill="white"/>
<path opacity="0.6" d="M119.365 1211.58C120.29 1211.32 120.824 1210.35 120.558 1209.43C120.292 1208.5 119.327 1207.97 118.403 1208.24C117.479 1208.5 116.945 1209.47 117.21 1210.39C117.476 1211.31 118.441 1211.85 119.365 1211.58Z" fill="white"/>
<path opacity="0.6" d="M297.817 634.955C298.741 634.689 299.275 633.725 299.009 632.801C298.744 631.877 297.779 631.343 296.854 631.609C295.93 631.875 295.396 632.84 295.662 633.764C295.928 634.688 296.893 635.221 297.817 634.955Z" fill="white"/>
<path opacity="0.6" d="M693.05 937.861C693.975 937.596 694.509 936.631 694.243 935.707C693.977 934.783 693.012 934.25 692.088 934.516C691.164 934.782 690.63 935.746 690.895 936.67C691.161 937.594 692.126 938.127 693.05 937.861Z" fill="white"/>
<path opacity="0.6" d="M871.502 361.234C872.427 360.968 872.96 360.004 872.695 359.08C872.429 358.156 871.464 357.623 870.54 357.889C869.615 358.154 869.081 359.119 869.347 360.043C869.613 360.967 870.578 361.5 871.502 361.234Z" fill="white"/>
<path opacity="0.35" d="M39.4967 1065.46C39.7371 1065.04 39.5946 1064.51 39.1783 1064.27C38.762 1064.03 38.2296 1064.17 37.9891 1064.59C37.7487 1065.01 37.8912 1065.54 38.3075 1065.78C38.7238 1066.02 39.2562 1065.88 39.4967 1065.46Z" fill="white"/>
<path opacity="0.35" d="M257.574 1070.7C257.815 1070.28 257.672 1069.75 257.256 1069.51C256.84 1069.27 256.307 1069.41 256.067 1069.83C255.826 1070.25 255.969 1070.78 256.385 1071.02C256.802 1071.26 257.334 1071.12 257.574 1070.7Z" fill="white"/>
<path opacity="0.35" d="M645.834 1164.14C646.075 1163.72 645.932 1163.19 645.516 1162.95C645.1 1162.71 644.567 1162.85 644.327 1163.27C644.086 1163.69 644.229 1164.22 644.645 1164.46C645.062 1164.7 645.594 1164.56 645.834 1164.14Z" fill="white"/>
<path opacity="0.35" d="M838.116 1144.43C838.356 1144.02 838.214 1143.48 837.797 1143.24C837.381 1143 836.849 1143.15 836.608 1143.56C836.368 1143.98 836.51 1144.51 836.927 1144.75C837.343 1144.99 837.875 1144.85 838.116 1144.43Z" fill="white"/>
<path opacity="0.35" d="M342.46 697.378C342.701 696.962 342.558 696.429 342.142 696.189C341.726 695.949 341.193 696.091 340.953 696.508C340.712 696.924 340.855 697.457 341.271 697.697C341.687 697.938 342.22 697.795 342.46 697.378Z" fill="white"/>
<path opacity="0.35" d="M652.16 735.406C652.401 734.99 652.258 734.457 651.842 734.217C651.426 733.977 650.893 734.12 650.653 734.536C650.412 734.953 650.555 735.485 650.971 735.725C651.387 735.966 651.92 735.823 652.16 735.406Z" fill="white"/>
<path opacity="0.35" d="M960.69 792.87C960.93 792.453 960.788 791.921 960.371 791.68C959.955 791.44 959.423 791.583 959.182 791.999C958.942 792.416 959.084 792.948 959.501 793.189C959.917 793.429 960.449 793.286 960.69 792.87Z" fill="white"/>
<path opacity="0.35" d="M446.447 395.416C446.687 395 446.545 394.467 446.129 394.227C445.712 393.987 445.18 394.129 444.939 394.546C444.699 394.962 444.841 395.495 445.258 395.735C445.674 395.976 446.206 395.833 446.447 395.416Z" fill="white"/>
<path opacity="0.35" d="M1088.97 605.491C1089.21 605.074 1089.07 604.542 1088.65 604.301C1088.24 604.061 1087.71 604.204 1087.47 604.62C1087.23 605.037 1087.37 605.569 1087.78 605.81C1088.2 606.05 1088.73 605.907 1088.97 605.491Z" fill="white"/>
<path opacity="0.35" d="M652.448 212.686C652.689 212.269 652.546 211.737 652.13 211.496C651.714 211.256 651.181 211.399 650.941 211.815C650.7 212.232 650.843 212.764 651.259 213.005C651.675 213.245 652.208 213.102 652.448 212.686Z" fill="white"/>
<path opacity="0.35" d="M1068.85 292.205C1069.09 291.788 1068.94 291.256 1068.53 291.015C1068.11 290.775 1067.58 290.918 1067.34 291.334C1067.1 291.751 1067.24 292.283 1067.66 292.524C1068.07 292.764 1068.61 292.621 1068.85 292.205Z" fill="white"/>
<path opacity="0.35" d="M1281.21 133.261C1281.45 132.845 1281.31 132.312 1280.9 132.072C1280.48 131.831 1279.95 131.974 1279.71 132.391C1279.47 132.807 1279.61 133.34 1280.02 133.58C1280.44 133.82 1280.97 133.678 1281.21 133.261Z" fill="white"/>
<path opacity="0.35" d="M373.945 1166.18C374.186 1165.76 374.043 1165.23 373.627 1164.99C373.211 1164.75 372.678 1164.89 372.438 1165.31C372.197 1165.72 372.34 1166.26 372.756 1166.5C373.172 1166.74 373.705 1166.59 373.945 1166.18Z" fill="white"/>
<path opacity="0.35" d="M592.023 1171.42C592.263 1171 592.121 1170.47 591.705 1170.23C591.288 1169.99 590.756 1170.13 590.515 1170.55C590.275 1170.97 590.418 1171.5 590.834 1171.74C591.25 1171.98 591.783 1171.84 592.023 1171.42Z" fill="white"/>
<path opacity="0.35" d="M980.283 1264.86C980.524 1264.44 980.381 1263.91 979.965 1263.67C979.548 1263.43 979.016 1263.57 978.776 1263.99C978.535 1264.41 978.678 1264.94 979.094 1265.18C979.51 1265.42 980.043 1265.28 980.283 1264.86Z" fill="white"/>
<path opacity="0.35" d="M1172.56 1245.15C1172.8 1244.73 1172.66 1244.2 1172.25 1243.96C1171.83 1243.72 1171.3 1243.86 1171.06 1244.28C1170.82 1244.7 1170.96 1245.23 1171.38 1245.47C1171.79 1245.71 1172.32 1245.57 1172.56 1245.15Z" fill="white"/>
<path opacity="0.35" d="M676.909 798.096C677.149 797.68 677.007 797.147 676.591 796.907C676.174 796.667 675.642 796.809 675.401 797.226C675.161 797.642 675.303 798.175 675.72 798.415C676.136 798.656 676.668 798.513 676.909 798.096Z" fill="white"/>
<path opacity="0.35" d="M986.609 836.125C986.849 835.708 986.707 835.176 986.291 834.935C985.874 834.695 985.342 834.838 985.101 835.254C984.861 835.671 985.003 836.203 985.42 836.443C985.836 836.684 986.368 836.541 986.609 836.125Z" fill="white"/>
<path opacity="0.35" d="M1295.14 893.588C1295.38 893.171 1295.24 892.639 1294.82 892.398C1294.4 892.158 1293.87 892.301 1293.63 892.717C1293.39 893.134 1293.53 893.666 1293.95 893.907C1294.37 894.147 1294.9 894.004 1295.14 893.588Z" fill="white"/>
<path opacity="0.35" d="M780.895 496.134C781.136 495.718 780.993 495.185 780.577 494.945C780.161 494.705 779.628 494.847 779.388 495.264C779.147 495.68 779.29 496.213 779.706 496.453C780.123 496.694 780.655 496.551 780.895 496.134Z" fill="white"/>
<path opacity="0.35" d="M1423.42 706.209C1423.66 705.792 1423.52 705.26 1423.1 705.02C1422.69 704.779 1422.15 704.922 1421.91 705.338C1421.67 705.755 1421.82 706.287 1422.23 706.528C1422.65 706.768 1423.18 706.625 1423.42 706.209Z" fill="white"/>
<path opacity="0.35" d="M986.897 313.404C987.137 312.987 986.995 312.455 986.578 312.214C986.162 311.974 985.63 312.117 985.389 312.533C985.149 312.95 985.291 313.482 985.708 313.723C986.124 313.963 986.656 313.82 986.897 313.404Z" fill="white"/>
<path opacity="0.35" d="M1403.29 392.923C1403.53 392.506 1403.39 391.974 1402.98 391.733C1402.56 391.493 1402.03 391.636 1401.79 392.052C1401.55 392.469 1401.69 393.001 1402.11 393.242C1402.52 393.482 1403.05 393.339 1403.29 392.923Z" fill="white"/>
<path opacity="0.35" d="M1278.15 139.673C1278.39 139.257 1278.25 138.724 1277.84 138.484C1277.42 138.243 1276.89 138.386 1276.65 138.803C1276.41 139.219 1276.55 139.752 1276.96 139.992C1277.38 140.232 1277.91 140.09 1278.15 139.673Z" fill="white"/>
<path opacity="0.35" d="M1615.66 233.979C1615.9 233.562 1615.76 233.03 1615.34 232.79C1614.93 232.549 1614.4 232.692 1614.15 233.109C1613.91 233.525 1614.06 234.058 1614.47 234.298C1614.89 234.538 1615.42 234.396 1615.66 233.979Z" fill="white"/>
<path opacity="0.6" d="M170.218 980.044C170.699 979.211 170.414 978.146 169.581 977.665C168.749 977.184 167.684 977.47 167.203 978.303C166.722 979.136 167.007 980.201 167.84 980.682C168.672 981.162 169.737 980.877 170.218 980.044Z" fill="white"/>
<path opacity="0.6" d="M813.402 1049.72C813.883 1048.89 813.598 1047.82 812.765 1047.34C811.932 1046.86 810.868 1047.15 810.387 1047.98C809.906 1048.81 810.191 1049.88 811.023 1050.36C811.856 1050.84 812.921 1050.55 813.402 1049.72Z" fill="white"/>
<path opacity="0.6" d="M541.678 510.731C542.158 509.898 541.873 508.833 541.041 508.352C540.208 507.872 539.143 508.157 538.662 508.99C538.182 509.823 538.467 510.888 539.299 511.369C540.132 511.85 541.197 511.564 541.678 510.731Z" fill="white"/>
<path opacity="0.6" d="M1036.45 454.5C1036.93 453.667 1036.65 452.602 1035.81 452.122C1034.98 451.641 1033.92 451.927 1033.44 452.76C1032.95 453.593 1033.24 454.658 1034.07 455.138C1034.9 455.619 1035.97 455.333 1036.45 454.5Z" fill="white"/>
<path opacity="0.9" d="M20.1864 598.351C20.8851 597.373 20.6586 596.013 19.6806 595.315C18.7026 594.617 17.3433 594.844 16.6446 595.823C15.946 596.801 16.1724 598.16 17.1504 598.859C18.1285 599.557 19.4877 599.33 20.1864 598.351Z" fill="white"/>
<path opacity="0.9" d="M892.113 335.447C893.47 336.96 896.14 337.833 898.077 337.397C900.015 336.961 900.485 335.382 899.128 333.87C897.771 332.357 895.1 331.484 893.163 331.92C891.226 332.356 890.756 333.935 892.113 335.447Z" fill="white"/>
<path d="M1154.02 418.857C1155.37 420.369 1158.04 421.242 1159.98 420.806C1161.92 420.371 1162.39 418.792 1161.03 417.279C1159.68 415.767 1157 414.894 1155.07 415.33C1153.13 415.765 1152.66 417.345 1154.02 418.857Z" fill="#00F0FF"/>
<path opacity="0.35" d="M937.843 1549.48C938.083 1549.06 937.941 1548.53 937.524 1548.29C937.108 1548.05 936.576 1548.19 936.335 1548.61C936.095 1549.03 936.237 1549.56 936.653 1549.8C937.07 1550.04 937.602 1549.9 937.843 1549.48Z" fill="white"/>
<path opacity="0.35" d="M1155.92 1554.72C1156.16 1554.3 1156.02 1553.77 1155.6 1553.53C1155.19 1553.29 1154.65 1553.43 1154.41 1553.85C1154.17 1554.27 1154.32 1554.8 1154.73 1555.04C1155.15 1555.28 1155.68 1555.14 1155.92 1554.72Z" fill="white"/>
<path opacity="0.35" d="M1544.18 1648.16C1544.42 1647.74 1544.28 1647.21 1543.86 1646.97C1543.45 1646.73 1542.91 1646.87 1542.67 1647.29C1542.43 1647.71 1542.57 1648.24 1542.99 1648.48C1543.41 1648.72 1543.94 1648.58 1544.18 1648.16Z" fill="white"/>
<path opacity="0.35" d="M1240.81 1181.4C1241.05 1180.98 1240.9 1180.45 1240.49 1180.21C1240.07 1179.97 1239.54 1180.11 1239.3 1180.53C1239.06 1180.94 1239.2 1181.48 1239.62 1181.72C1240.03 1181.96 1240.57 1181.81 1240.81 1181.4Z" fill="white"/>
<path opacity="0.35" d="M1550.51 1219.43C1550.75 1219.01 1550.6 1218.48 1550.19 1218.24C1549.77 1218 1549.24 1218.14 1549 1218.56C1548.76 1218.97 1548.9 1219.5 1549.32 1219.74C1549.73 1219.98 1550.27 1219.84 1550.51 1219.43Z" fill="white"/>
<path opacity="0.35" d="M1344.79 879.436C1345.03 879.019 1344.89 878.487 1344.47 878.246C1344.06 878.006 1343.53 878.149 1343.29 878.565C1343.04 878.982 1343.19 879.514 1343.6 879.755C1344.02 879.995 1344.55 879.852 1344.79 879.436Z" fill="white"/>
<path opacity="0.35" d="M1550.79 696.705C1551.03 696.288 1550.89 695.756 1550.48 695.515C1550.06 695.275 1549.53 695.418 1549.29 695.834C1549.05 696.251 1549.19 696.783 1549.6 697.024C1550.02 697.264 1550.55 697.121 1550.79 696.705Z" fill="white"/>
<path opacity="0.35" d="M1842.05 522.974C1842.29 522.558 1842.15 522.025 1841.73 521.785C1841.32 521.545 1840.78 521.687 1840.54 522.104C1840.3 522.52 1840.45 523.053 1840.86 523.293C1841.28 523.534 1841.81 523.391 1842.05 522.974Z" fill="white"/>
<path opacity="0.6" d="M1095.67 1584.03C1096.59 1583.76 1097.13 1582.8 1096.86 1581.87C1096.6 1580.95 1095.63 1580.42 1094.71 1580.68C1093.78 1580.95 1093.25 1581.91 1093.51 1582.84C1093.78 1583.76 1094.74 1584.29 1095.67 1584.03Z" fill="white"/>
<path opacity="0.6" d="M1510.37 2080.58C1511.29 2080.32 1511.82 2079.35 1511.56 2078.43C1511.29 2077.51 1510.33 2076.97 1509.4 2077.24C1508.48 2077.5 1507.94 2078.47 1508.21 2079.39C1508.48 2080.32 1509.44 2080.85 1510.37 2080.58Z" fill="white"/>
<path opacity="0.6" d="M1688.82 1503.96C1689.74 1503.69 1690.28 1502.73 1690.01 1501.8C1689.74 1500.88 1688.78 1500.34 1687.85 1500.61C1686.93 1500.88 1686.4 1501.84 1686.66 1502.77C1686.93 1503.69 1687.89 1504.22 1688.82 1503.96Z" fill="white"/>
<path opacity="0.35" d="M1430.5 1934.46C1430.74 1934.04 1430.59 1933.51 1430.18 1933.27C1429.76 1933.03 1429.23 1933.17 1428.99 1933.59C1428.75 1934.01 1428.89 1934.54 1429.31 1934.78C1429.72 1935.02 1430.26 1934.88 1430.5 1934.46Z" fill="white"/>
<path opacity="0.35" d="M1648.57 1939.7C1648.82 1939.29 1648.67 1938.75 1648.26 1938.51C1647.84 1938.27 1647.31 1938.42 1647.07 1938.83C1646.83 1939.25 1646.97 1939.78 1647.39 1940.02C1647.8 1940.26 1648.33 1940.12 1648.57 1939.7Z" fill="white"/>
<path opacity="0.6" d="M1561.22 1849.05C1561.7 1848.21 1561.41 1847.15 1560.58 1846.67C1559.75 1846.19 1558.68 1846.47 1558.2 1847.3C1557.72 1848.14 1558.01 1849.2 1558.84 1849.68C1559.67 1850.16 1560.74 1849.88 1561.22 1849.05Z" fill="white"/>
<path opacity="0.9" d="M1478.37 894.704C1479.21 893.53 1478.93 891.899 1477.76 891.061C1476.59 890.223 1474.96 890.495 1474.12 891.67C1473.28 892.844 1473.55 894.475 1474.72 895.313C1475.9 896.151 1477.53 895.878 1478.37 894.704Z" fill="white"/>
<path opacity="0.9" d="M1411.19 1467.35C1411.89 1466.37 1411.66 1465.01 1410.68 1464.32C1409.7 1463.62 1408.34 1463.85 1407.64 1464.82C1406.95 1465.8 1407.17 1467.16 1408.15 1467.86C1409.13 1468.56 1410.49 1468.33 1411.19 1467.35Z" fill="white"/>
<path d="M1432.84 733.794C1433.68 732.619 1433.41 730.988 1432.23 730.15C1431.06 729.312 1429.43 729.585 1428.59 730.759C1427.75 731.933 1428.02 733.565 1429.2 734.403C1430.37 735.241 1432 734.968 1432.84 733.794Z" fill="#00F0FF"/>
<path opacity="0.9" d="M1437.09 693.497C1438.22 694.757 1440.45 695.484 1442.06 695.121C1443.67 694.758 1444.07 693.442 1442.94 692.182C1441.8 690.922 1439.58 690.194 1437.96 690.557C1436.35 690.92 1435.96 692.236 1437.09 693.497Z" fill="white"/>
<path opacity="0.35" d="M944.608 1547.99C944.299 1547.69 943.77 1547.74 943.428 1548.09C943.085 1548.45 943.058 1548.99 943.368 1549.29C943.677 1549.59 944.205 1549.54 944.548 1549.18C944.89 1548.82 944.917 1548.29 944.608 1547.99Z" fill="white"/>
<path opacity="0.35" d="M1013.82 1340.37C1013.51 1340.07 1012.98 1340.11 1012.64 1340.47C1012.3 1340.83 1012.27 1341.36 1012.58 1341.66C1012.89 1341.96 1013.42 1341.92 1013.76 1341.56C1014.1 1341.2 1014.13 1340.67 1013.82 1340.37Z" fill="white"/>
<path opacity="0.35" d="M1213.78 984.87C1213.47 984.57 1212.95 984.617 1212.6 984.975C1212.26 985.332 1212.23 985.866 1212.54 986.166C1212.85 986.466 1213.38 986.419 1213.72 986.062C1214.07 985.704 1214.09 985.17 1213.78 984.87Z" fill="white"/>
<path opacity="0.35" d="M1252.61 797.716C1252.3 797.415 1251.77 797.462 1251.43 797.82C1251.09 798.177 1251.06 798.711 1251.37 799.011C1251.68 799.311 1252.21 799.265 1252.55 798.907C1252.89 798.549 1252.92 798.016 1252.61 797.716Z" fill="white"/>
<path opacity="0.35" d="M698.29 1196.41C697.98 1196.11 697.452 1196.16 697.11 1196.52C696.767 1196.88 696.74 1197.41 697.05 1197.71C697.359 1198.01 697.887 1197.96 698.229 1197.61C698.572 1197.25 698.599 1196.72 698.29 1196.41Z" fill="white"/>
<path opacity="0.35" d="M824.486 906.708C824.176 906.407 823.648 906.454 823.306 906.812C822.963 907.17 822.936 907.703 823.245 908.003C823.555 908.303 824.083 908.257 824.425 907.899C824.768 907.541 824.795 907.008 824.486 906.708Z" fill="white"/>
<path opacity="0.35" d="M968.068 621.389C967.758 621.088 967.23 621.135 966.888 621.493C966.545 621.851 966.518 622.384 966.828 622.684C967.137 622.984 967.665 622.938 968.007 622.58C968.35 622.222 968.377 621.689 968.068 621.389Z" fill="white"/>
<path opacity="0.35" d="M453.51 1046.2C453.201 1045.9 452.673 1045.95 452.33 1046.31C451.988 1046.66 451.961 1047.2 452.27 1047.5C452.579 1047.8 453.107 1047.75 453.45 1047.39C453.792 1047.04 453.819 1046.5 453.51 1046.2Z" fill="white"/>
<path opacity="0.35" d="M835.009 467.219C834.7 466.919 834.172 466.965 833.829 467.323C833.487 467.681 833.46 468.214 833.769 468.515C834.078 468.815 834.607 468.768 834.949 468.41C835.292 468.053 835.319 467.519 835.009 467.219Z" fill="white"/>
<path opacity="0.35" d="M347.654 818.509C347.345 818.209 346.817 818.256 346.474 818.613C346.132 818.971 346.105 819.505 346.414 819.805C346.723 820.105 347.251 820.058 347.594 819.701C347.936 819.343 347.963 818.809 347.654 818.509Z" fill="white"/>
<path opacity="0.35" d="M543.229 433.767C542.919 433.467 542.391 433.514 542.049 433.872C541.706 434.229 541.679 434.763 541.989 435.063C542.298 435.363 542.826 435.316 543.168 434.959C543.511 434.601 543.538 434.068 543.229 433.767Z" fill="white"/>
<path opacity="0.35" d="M275.198 510.817C274.889 510.517 274.36 510.564 274.018 510.921C273.676 511.279 273.649 511.812 273.958 512.113C274.267 512.413 274.795 512.366 275.138 512.008C275.48 511.651 275.507 511.117 275.198 510.817Z" fill="white"/>
<path opacity="0.35" d="M460.956 203.988C460.647 203.688 460.119 203.734 459.776 204.092C459.434 204.45 459.407 204.983 459.716 205.283C460.025 205.583 460.554 205.537 460.896 205.179C461.239 204.821 461.266 204.288 460.956 203.988Z" fill="white"/>
<path opacity="0.35" d="M1112.37 2514.98C1112.02 2514.64 1111.47 2514.65 1111.13 2515C1110.8 2515.35 1110.81 2515.91 1111.16 2516.24C1111.5 2516.58 1112.05 2516.57 1112.39 2516.22C1112.72 2515.87 1112.71 2515.32 1112.37 2514.98Z" fill="white"/>
<path opacity="0.35" d="M1170.03 2303.1C1169.68 2302.76 1169.13 2302.77 1168.79 2303.12C1168.46 2303.47 1168.47 2304.02 1168.82 2304.36C1169.16 2304.7 1169.72 2304.69 1170.05 2304.34C1170.38 2303.99 1170.37 2303.43 1170.03 2303.1Z" fill="white"/>
<path opacity="0.35" d="M1354.31 1946.29C1353.97 1945.95 1353.41 1945.96 1353.08 1946.31C1352.75 1946.66 1352.76 1947.21 1353.1 1947.55C1353.45 1947.89 1354 1947.88 1354.34 1947.53C1354.67 1947.18 1354.66 1946.62 1354.31 1946.29Z" fill="white"/>
<path opacity="0.35" d="M1381.54 1753.56C1381.19 1753.22 1380.64 1753.23 1380.31 1753.58C1379.98 1753.93 1379.99 1754.49 1380.33 1754.82C1380.68 1755.16 1381.23 1755.15 1381.56 1754.8C1381.9 1754.45 1381.89 1753.9 1381.54 1753.56Z" fill="white"/>
<path opacity="0.35" d="M828.178 2129.48C827.832 2129.15 827.281 2129.16 826.947 2129.51C826.613 2129.86 826.623 2130.41 826.97 2130.75C827.316 2131.08 827.868 2131.07 828.201 2130.72C828.535 2130.38 828.525 2129.82 828.178 2129.48Z" fill="white"/>
<path opacity="0.35" d="M939.748 1836.01C939.401 1835.67 938.85 1835.68 938.516 1836.03C938.182 1836.38 938.193 1836.93 938.539 1837.27C938.886 1837.61 939.437 1837.6 939.771 1837.25C940.104 1836.9 940.094 1836.34 939.748 1836.01Z" fill="white"/>
<path opacity="0.35" d="M1069.9 1548.39C1069.55 1548.06 1069 1548.07 1068.66 1548.41C1068.33 1548.76 1068.34 1549.32 1068.69 1549.65C1069.03 1549.99 1069.59 1549.98 1069.92 1549.63C1070.25 1549.28 1070.24 1548.73 1069.9 1548.39Z" fill="white"/>
<path opacity="0.35" d="M560.192 1954.53C559.846 1954.19 559.294 1954.2 558.961 1954.55C558.627 1954.9 558.637 1955.45 558.984 1955.79C559.33 1956.13 559.881 1956.12 560.215 1955.77C560.549 1955.42 560.538 1954.86 560.192 1954.53Z" fill="white"/>
<path opacity="0.35" d="M918.971 1377.51C918.625 1377.17 918.073 1377.18 917.739 1377.53C917.406 1377.88 917.416 1378.43 917.763 1378.77C918.109 1379.11 918.66 1379.1 918.994 1378.75C919.328 1378.4 919.317 1377.84 918.971 1377.51Z" fill="white"/>
<path opacity="0.35" d="M432.514 1708.81C432.167 1708.47 431.616 1708.48 431.282 1708.83C430.949 1709.18 430.959 1709.73 431.305 1710.07C431.652 1710.41 432.203 1710.4 432.537 1710.05C432.871 1709.7 432.86 1709.14 432.514 1708.81Z" fill="white"/>
<path opacity="0.35" d="M610.073 1321.12C609.726 1320.78 609.175 1320.79 608.841 1321.14C608.507 1321.49 608.518 1322.04 608.864 1322.38C609.211 1322.71 609.762 1322.7 610.096 1322.36C610.429 1322.01 610.419 1321.45 610.073 1321.12Z" fill="white"/>
<path opacity="0.35" d="M334.124 1381.94C333.777 1381.61 333.226 1381.62 332.892 1381.96C332.558 1382.31 332.569 1382.87 332.915 1383.21C333.262 1383.54 333.813 1383.53 334.147 1383.18C334.48 1382.83 334.47 1382.28 334.124 1381.94Z" fill="white"/>
<path opacity="0.35" d="M507.015 1074.95C506.668 1074.61 506.117 1074.62 505.783 1074.97C505.45 1075.32 505.46 1075.87 505.806 1076.21C506.153 1076.55 506.704 1076.54 507.038 1076.19C507.372 1075.84 507.361 1075.28 507.015 1074.95Z" fill="white"/>
<path opacity="0.9" d="M1490.72 2315.22C1491.89 2314.37 1492.72 2312.53 1492.56 2311.12C1492.39 2309.7 1491.31 2309.25 1490.14 2310.1C1488.96 2310.96 1488.14 2312.8 1488.3 2314.21C1488.46 2315.62 1489.54 2316.08 1490.72 2315.22Z" fill="white"/>
<path d="M1569.78 2134.75C1570.95 2133.89 1571.78 2132.05 1571.62 2130.64C1571.46 2129.23 1570.37 2128.77 1569.2 2129.63C1568.02 2130.48 1567.2 2132.32 1567.36 2133.74C1567.52 2135.15 1568.6 2135.6 1569.78 2134.75Z" fill="#00F0FF"/>
<path opacity="0.22" d="M1215.33 839.953C1410.29 839.953 1568.33 696.112 1568.33 518.676C1568.33 341.239 1410.29 197.399 1215.33 197.399C1020.38 197.399 862.333 341.239 862.333 518.676C862.333 696.112 1020.38 839.953 1215.33 839.953Z" stroke="#00F0FF"/>
<path opacity="0.22" d="M1298.38 775.871C1563.44 689.18 1741.08 503.548 1695.14 361.251C1649.21 218.954 1397.11 173.876 1132.05 260.567C866.991 347.258 689.355 532.89 735.287 675.187C781.218 817.484 1033.33 862.562 1298.38 775.871Z" stroke="#00F0FF"/>
<path opacity="0.35" d="M1134.78 899.144C1489.17 974.969 1812.47 865.892 1856.9 655.513C1901.32 445.134 1650.04 213.119 1295.65 137.294C941.263 61.4685 617.96 170.546 573.536 380.925C529.112 591.304 780.389 823.319 1134.78 899.144Z" stroke="#00F0FF" stroke-width="1.2"/>
</svg>
