<svg width="32" height="34" viewBox="0 0 32 34" fill="none" xmlns="http://www.w3.org/2000/svg">
<path d="M31.9007 0.266764C31.8344 0.133382 31.6358 0 31.4371 0H24.8153C24.6166 0 24.418 0.133382 24.3518 0.266764L13.2933 20.2741C13.2271 20.4741 13.2271 20.6742 13.2933 20.8743L21.0409 33.0787C21.1733 33.2121 21.3057 33.3455 21.5044 33.3455H28.1262C28.3249 33.3455 28.5235 33.2121 28.5897 33.0787C28.656 32.8786 28.656 32.6786 28.5897 32.5452L21.0409 20.5408L31.9007 0.800292C32.0331 0.66691 32.0331 0.466837 31.9007 0.266764Z" fill="white"/>
<path d="M8.72426 5.80216C8.59183 5.66878 8.45939 5.5354 8.26074 5.5354H1.6389C1.44025 5.5354 1.24159 5.66878 1.17538 5.80216C1.04294 6.00224 1.04294 6.269 1.17538 6.40238L5.41335 12.8714L0.0496637 22.5416C-0.0165546 22.675 -0.0165546 22.875 0.0496637 23.0751C0.1821 23.2085 0.314537 23.3419 0.513192 23.3419H7.13502C7.33368 23.3419 7.53233 23.2085 7.59855 23.0751L13.0947 13.0715C13.2271 12.8714 13.1609 12.6713 13.0947 12.4713L8.72426 5.80216Z" fill="white"/>
</svg>
