<svg width="1449" height="10" viewBox="0 0 1449 10" fill="none" xmlns="http://www.w3.org/2000/svg">
<g filter="url(#filter0_d_41_20)">
<path d="M724.5 4C940.482 4 1156.46 4.16901 1372.44 4.50651C1396.44 4.54401 1420.44 4.58333 1444.44 4.625C1444.59 4.62526 1444.73 4.66472 1444.84 4.73503C1444.94 4.80532 1445 4.9007 1445 5C1445 5.0993 1444.94 5.19468 1444.84 5.26497C1444.73 5.33528 1444.59 5.37474 1444.44 5.375C1420.44 5.41667 1396.44 5.45599 1372.44 5.49349C1156.46 5.83099 940.482 6 724.5 6C508.518 6 292.537 5.83099 76.5553 5.49349C52.5574 5.45599 28.5594 5.41667 4.56148 5.375C4.41249 5.37474 4.2694 5.33528 4.16405 5.26497C4.05873 5.19468 4 5.09931 4 5C4 4.90069 4.05873 4.80532 4.16405 4.73503C4.2694 4.66472 4.41249 4.62526 4.56148 4.625C28.5594 4.58333 52.5574 4.54401 76.5553 4.50651C292.537 4.16901 508.518 4 724.5 4Z" fill="#00F5FF"/>
</g>
<defs>
<filter id="filter0_d_41_20" x="0" y="0" width="1449" height="10" filterUnits="userSpaceOnUse" color-interpolation-filters="sRGB">
<feFlood flood-opacity="0" result="BackgroundImageFix"/>
<feColorMatrix in="SourceAlpha" type="matrix" values="0 0 0 0 0 0 0 0 0 0 0 0 0 0 0 0 0 0 127 0" result="hardAlpha"/>
<feOffset/>
<feGaussianBlur stdDeviation="2"/>
<feComposite in2="hardAlpha" operator="out"/>
<feColorMatrix type="matrix" values="0 0 0 0 0 0 0 0 0 0.960784 0 0 0 0 1 0 0 0 1 0"/>
<feBlend mode="normal" in2="BackgroundImageFix" result="effect1_dropShadow_41_20"/>
<feBlend mode="normal" in="SourceGraphic" in2="effect1_dropShadow_41_20" result="shape"/>
</filter>
</defs>
</svg>
