<svg width="390" height="11" viewBox="0 0 390 11" fill="none" xmlns="http://www.w3.org/2000/svg">
<g filter="url(#filter0_d_41_14)">
<path d="M4 5.50002C10.3333 5.52502 16.6667 5.55002 23 5.57502C137 6.02502 251 6.47502 365 6.92502C371.333 6.95002 377.667 6.97502 384 7.00002C384.398 7.00161 384.779 6.84497 385.061 6.56364C385.342 6.28236 385.5 5.89943 385.5 5.50002C385.5 5.1006 385.342 4.71767 385.061 4.43639C384.779 4.15506 384.398 3.99842 384 4.00002C384 4.00002 384 4.00002 384 4.00002C377.667 4.02502 371.333 4.05002 365 4.07502C251 4.52502 137 4.97502 23 5.42502C16.6667 5.45002 10.3333 5.47502 4 5.50002Z" fill="#00F5FF"/>
</g>
<defs>
<filter id="filter0_d_41_14" x="0" y="0" width="389.5" height="11" filterUnits="userSpaceOnUse" color-interpolation-filters="sRGB">
<feFlood flood-opacity="0" result="BackgroundImageFix"/>
<feColorMatrix in="SourceAlpha" type="matrix" values="0 0 0 0 0 0 0 0 0 0 0 0 0 0 0 0 0 0 127 0" result="hardAlpha"/>
<feOffset/>
<feGaussianBlur stdDeviation="2"/>
<feComposite in2="hardAlpha" operator="out"/>
<feColorMatrix type="matrix" values="0 0 0 0 0 0 0 0 0 0.960784 0 0 0 0 1 0 0 0 1 0"/>
<feBlend mode="normal" in2="BackgroundImageFix" result="effect1_dropShadow_41_14"/>
<feBlend mode="normal" in="SourceGraphic" in2="effect1_dropShadow_41_14" result="shape"/>
</filter>
</defs>
</svg>
