<svg width="1728" height="2681" viewBox="0 0 1728 2681" fill="none" xmlns="http://www.w3.org/2000/svg">
<path opacity="0.6" d="M1276.8 2547.49C1276.11 2546.82 1275.01 2546.84 1274.34 2547.54C1273.67 2548.23 1273.69 2549.33 1274.39 2550C1275.08 2550.66 1276.18 2550.64 1276.85 2549.95C1277.52 2549.26 1277.5 2548.16 1276.8 2547.49Z" fill="white"/>
<path opacity="0.6" d="M688.203 2681.26C687.511 2680.59 686.408 2680.61 685.741 2681.31C685.074 2682 685.094 2683.1 685.787 2683.77C686.48 2684.43 687.582 2684.41 688.249 2683.72C688.916 2683.03 688.896 2681.93 688.203 2681.26Z" fill="white"/>
<path opacity="0.35" d="M1496.38 2475.24C1495.89 2475.24 1495.5 2475.63 1495.5 2476.11C1495.5 2476.59 1495.89 2476.98 1496.38 2476.98C1496.86 2476.98 1497.25 2476.59 1497.25 2476.11C1497.25 2475.63 1496.86 2475.24 1496.38 2475.24Z" fill="white"/>
<path opacity="0.35" d="M1383.17 2318.57C1382.69 2318.57 1382.3 2318.96 1382.3 2319.45C1382.3 2319.93 1382.69 2320.32 1383.17 2320.32C1383.65 2320.32 1384.04 2319.93 1384.04 2319.45C1384.04 2318.96 1383.65 2318.57 1383.17 2318.57Z" fill="white"/>
<path opacity="0.35" d="M1017.42 2388.2C1016.94 2388.2 1016.55 2388.59 1016.55 2389.07C1016.55 2389.56 1016.94 2389.94 1017.42 2389.94C1017.9 2389.94 1018.29 2389.56 1018.29 2389.07C1018.29 2388.59 1017.9 2388.2 1017.42 2388.2Z" fill="white"/>
<path opacity="0.35" d="M791 2370.8C790.519 2370.8 790.129 2371.19 790.129 2371.67C790.129 2372.15 790.519 2372.54 791 2372.54C791.481 2372.54 791.871 2372.15 791.871 2371.67C791.871 2371.19 791.481 2370.8 791 2370.8Z" fill="white"/>
<path opacity="0.35" d="M529.75 2544.87C529.269 2544.87 528.879 2545.26 528.879 2545.74C528.879 2546.22 529.269 2546.61 529.75 2546.61C530.231 2546.61 530.621 2546.22 530.621 2545.74C530.621 2545.26 530.231 2544.87 529.75 2544.87Z" fill="white"/>
<path opacity="0.35" d="M285.917 2440.43C285.436 2440.43 285.046 2440.82 285.046 2441.3C285.046 2441.78 285.436 2442.17 285.917 2442.17C286.398 2442.17 286.788 2441.78 286.788 2441.3C286.788 2440.82 286.398 2440.43 285.917 2440.43Z" fill="white"/>
<path opacity="0.35" d="M1529.58 2518.2C1529.1 2518.2 1528.71 2518.59 1528.71 2519.07C1528.71 2519.56 1529.1 2519.95 1529.58 2519.95C1530.06 2519.95 1530.45 2519.56 1530.45 2519.07C1530.45 2518.59 1530.06 2518.2 1529.58 2518.2Z" fill="white"/>
<path opacity="0.35" d="M1416.38 2135.24C1415.89 2135.24 1415.5 2135.63 1415.5 2136.11C1415.5 2136.59 1415.89 2136.98 1416.38 2136.98C1416.86 2136.98 1417.25 2136.59 1417.25 2136.11C1417.25 2135.63 1416.86 2135.24 1416.38 2135.24Z" fill="white"/>
<path opacity="0.35" d="M1303.17 1978.57C1302.69 1978.57 1302.3 1978.96 1302.3 1979.45C1302.3 1979.93 1302.69 1980.32 1303.17 1980.32C1303.65 1980.32 1304.04 1979.93 1304.04 1979.45C1304.04 1978.96 1303.65 1978.57 1303.17 1978.57Z" fill="white"/>
<path opacity="0.35" d="M1163.83 2631.35C1163.35 2631.35 1162.96 2631.74 1162.96 2632.22C1162.96 2632.7 1163.35 2633.09 1163.83 2633.09C1164.31 2633.09 1164.7 2632.7 1164.7 2632.22C1164.7 2631.74 1164.31 2631.35 1163.83 2631.35Z" fill="white"/>
<path opacity="0.35" d="M1041.92 2344.13C1041.44 2344.13 1041.05 2344.52 1041.05 2345C1041.05 2345.48 1041.44 2345.87 1041.92 2345.87C1042.4 2345.87 1042.79 2345.48 1042.79 2345C1042.79 2344.52 1042.4 2344.13 1041.92 2344.13Z" fill="white"/>
<path opacity="0.35" d="M937.417 2048.2C936.936 2048.2 936.546 2048.59 936.546 2049.07C936.546 2049.56 936.936 2049.95 937.417 2049.95C937.898 2049.95 938.288 2049.56 938.288 2049.07C938.288 2048.59 937.898 2048.2 937.417 2048.2Z" fill="white"/>
<path opacity="0.35" d="M711 2030.8C710.519 2030.8 710.129 2031.19 710.129 2031.67C710.129 2032.15 710.519 2032.54 711 2032.54C711.481 2032.54 711.871 2032.15 711.871 2031.67C711.871 2031.19 711.481 2030.8 711 2030.8Z" fill="white"/>
<path opacity="0.35" d="M589.083 2605.24C588.602 2605.24 588.213 2605.63 588.213 2606.11C588.213 2606.59 588.602 2606.98 589.083 2606.98C589.564 2606.98 589.954 2606.59 589.954 2606.11C589.954 2605.63 589.564 2605.24 589.083 2605.24Z" fill="white"/>
<path opacity="0.35" d="M449.75 2204.87C449.269 2204.87 448.879 2205.26 448.879 2205.74C448.879 2206.22 449.269 2206.61 449.75 2206.61C450.231 2206.61 450.621 2206.22 450.621 2205.74C450.621 2205.26 450.231 2204.87 449.75 2204.87Z" fill="white"/>
<path opacity="0.35" d="M293 2439.87C292.519 2439.87 292.129 2440.26 292.129 2440.74C292.129 2441.22 292.519 2441.61 293 2441.61C293.481 2441.61 293.871 2441.22 293.871 2440.74C293.871 2440.26 293.481 2439.87 293 2439.87Z" fill="white"/>
<path opacity="0.35" d="M205.917 2100.43C205.436 2100.43 205.046 2100.82 205.046 2101.3C205.046 2101.78 205.436 2102.17 205.917 2102.17C206.398 2102.17 206.788 2101.78 206.788 2101.3C206.788 2100.82 206.398 2100.43 205.917 2100.43Z" fill="white"/>
<path opacity="0.6" d="M1313.5 2387.33C1312.54 2387.33 1311.76 2388.11 1311.76 2389.07C1311.76 2390.04 1312.54 2390.82 1313.5 2390.82C1314.46 2390.82 1315.24 2390.04 1315.24 2389.07C1315.24 2388.11 1314.46 2387.33 1313.5 2387.33Z" fill="white"/>
<path opacity="0.6" d="M686.5 2491.78C685.538 2491.78 684.758 2492.56 684.758 2493.52C684.758 2494.48 685.538 2495.26 686.5 2495.26C687.462 2495.26 688.242 2494.48 688.242 2493.52C688.242 2492.56 687.462 2491.78 686.5 2491.78Z" fill="white"/>
<path opacity="0.9" d="M655.566 2676.3C656.197 2674.37 655.618 2671.62 654.272 2670.16C652.926 2668.7 651.323 2669.09 650.692 2671.02C650.061 2672.95 650.64 2675.7 651.986 2677.16C653.332 2678.62 654.935 2678.24 655.566 2676.3Z" fill="white"/>
<path d="M596.849 2407.78C597.48 2405.85 596.901 2403.1 595.555 2401.64C594.209 2400.18 592.606 2400.57 591.975 2402.5C591.343 2404.43 591.923 2407.18 593.269 2408.64C594.615 2410.1 596.217 2409.72 596.849 2407.78Z" fill="#00F0FF"/>
<path opacity="0.35" d="M1684.08 2029.69C1683.6 2029.69 1683.21 2030.08 1683.21 2030.56C1683.21 2031.04 1683.6 2031.43 1684.08 2031.43C1684.56 2031.43 1684.95 2031.04 1684.95 2030.56C1684.95 2030.08 1684.56 2029.69 1684.08 2029.69Z" fill="white"/>
<path opacity="0.35" d="M1579.58 1838.2C1579.1 1838.2 1578.71 1838.59 1578.71 1839.07C1578.71 1839.56 1579.1 1839.94 1579.58 1839.94C1580.06 1839.94 1580.45 1839.56 1580.45 1839.07C1580.45 1838.59 1580.06 1838.2 1579.58 1838.2Z" fill="white"/>
<path opacity="0.35" d="M1466.38 1455.24C1465.89 1455.24 1465.5 1455.63 1465.5 1456.11C1465.5 1456.59 1465.89 1456.98 1466.38 1456.98C1466.86 1456.98 1467.25 1456.59 1467.25 1456.11C1467.25 1455.63 1466.86 1455.24 1466.38 1455.24Z" fill="white"/>
<path opacity="0.35" d="M1353.17 1298.57C1352.69 1298.57 1352.3 1298.96 1352.3 1299.44C1352.3 1299.93 1352.69 1300.32 1353.17 1300.32C1353.65 1300.32 1354.04 1299.93 1354.04 1299.44C1354.04 1298.96 1353.65 1298.57 1353.17 1298.57Z" fill="white"/>
<path opacity="0.35" d="M1213.83 1951.35C1213.35 1951.35 1212.96 1951.74 1212.96 1952.22C1212.96 1952.7 1213.35 1953.09 1213.83 1953.09C1214.31 1953.09 1214.7 1952.7 1214.7 1952.22C1214.7 1951.74 1214.31 1951.35 1213.83 1951.35Z" fill="white"/>
<path opacity="0.35" d="M1091.92 1664.13C1091.44 1664.13 1091.05 1664.52 1091.05 1665C1091.05 1665.48 1091.44 1665.87 1091.92 1665.87C1092.4 1665.87 1092.79 1665.48 1092.79 1665C1092.79 1664.52 1092.4 1664.13 1091.92 1664.13Z" fill="white"/>
<path opacity="0.35" d="M987.417 1368.2C986.936 1368.2 986.546 1368.59 986.546 1369.07C986.546 1369.56 986.936 1369.94 987.417 1369.94C987.898 1369.94 988.288 1369.56 988.288 1369.07C988.288 1368.59 987.898 1368.2 987.417 1368.2Z" fill="white"/>
<path opacity="0.35" d="M900.333 2012.28C899.852 2012.28 899.463 2012.67 899.463 2013.15C899.463 2013.63 899.852 2014.02 900.333 2014.02C900.814 2014.02 901.204 2013.63 901.204 2013.15C901.204 2012.67 900.814 2012.28 900.333 2012.28Z" fill="white"/>
<path opacity="0.35" d="M761 1350.8C760.519 1350.8 760.129 1351.19 760.129 1351.67C760.129 1352.15 760.519 1352.54 761 1352.54C761.481 1352.54 761.871 1352.15 761.871 1351.67C761.871 1351.19 761.481 1350.8 761 1350.8Z" fill="white"/>
<path opacity="0.35" d="M639.083 1925.24C638.602 1925.24 638.213 1925.63 638.213 1926.11C638.213 1926.59 638.602 1926.98 639.083 1926.98C639.564 1926.98 639.954 1926.59 639.954 1926.11C639.954 1925.63 639.564 1925.24 639.083 1925.24Z" fill="white"/>
<path opacity="0.35" d="M499.75 1524.87C499.269 1524.87 498.879 1525.26 498.879 1525.74C498.879 1526.22 499.269 1526.61 499.75 1526.61C500.231 1526.61 500.621 1526.22 500.621 1525.74C500.621 1525.26 500.231 1524.87 499.75 1524.87Z" fill="white"/>
<path opacity="0.35" d="M343 1759.87C342.519 1759.87 342.129 1760.26 342.129 1760.74C342.129 1761.22 342.519 1761.61 343 1761.61C343.481 1761.61 343.871 1761.22 343.871 1760.74C343.871 1760.26 343.481 1759.87 343 1759.87Z" fill="white"/>
<path opacity="0.35" d="M255.917 1420.43C255.436 1420.43 255.046 1420.82 255.046 1421.3C255.046 1421.78 255.436 1422.17 255.917 1422.17C256.398 1422.17 256.788 1421.78 256.788 1421.3C256.788 1420.82 256.398 1420.43 255.917 1420.43Z" fill="white"/>
<path opacity="0.6" d="M1635.01 2498.87C1634.32 2498.2 1633.22 2498.22 1632.55 2498.92C1631.88 2499.61 1631.9 2500.71 1632.6 2501.38C1633.29 2502.05 1634.39 2502.03 1635.06 2501.33C1635.73 2500.64 1635.71 2499.54 1635.01 2498.87Z" fill="white"/>
<path opacity="0.6" d="M1269.09 2025.23C1268.4 2024.56 1267.3 2024.58 1266.63 2025.27C1265.97 2025.96 1265.99 2027.06 1266.68 2027.73C1267.37 2028.4 1268.47 2028.38 1269.14 2027.69C1269.81 2027 1269.79 2025.89 1269.09 2025.23Z" fill="white"/>
<path opacity="0.6" d="M1333.8 1531.49C1333.11 1530.82 1332.01 1530.84 1331.34 1531.53C1330.67 1532.23 1330.69 1533.33 1331.39 1534C1332.08 1534.66 1333.18 1534.64 1333.85 1533.95C1334.52 1533.26 1334.5 1532.16 1333.8 1531.49Z" fill="white"/>
<path opacity="0.6" d="M745.203 1665.26C744.511 1664.59 743.408 1664.61 742.741 1665.31C742.074 1666 742.094 1667.1 742.787 1667.77C743.479 1668.43 744.582 1668.41 745.249 1667.72C745.916 1667.03 745.896 1665.93 745.203 1665.26Z" fill="white"/>
<path opacity="0.35" d="M1666.58 1842.2C1666.1 1842.2 1665.71 1842.59 1665.71 1843.07C1665.71 1843.56 1666.1 1843.94 1666.58 1843.94C1667.06 1843.94 1667.45 1843.56 1667.45 1843.07C1667.45 1842.59 1667.06 1842.2 1666.58 1842.2Z" fill="white"/>
<path opacity="0.35" d="M1553.38 1459.24C1552.89 1459.24 1552.5 1459.63 1552.5 1460.11C1552.5 1460.59 1552.89 1460.98 1553.38 1460.98C1553.86 1460.98 1554.25 1460.59 1554.25 1460.11C1554.25 1459.63 1553.86 1459.24 1553.38 1459.24Z" fill="white"/>
<path opacity="0.35" d="M1440.17 1302.57C1439.69 1302.57 1439.3 1302.96 1439.3 1303.44C1439.3 1303.93 1439.69 1304.32 1440.17 1304.32C1440.65 1304.32 1441.04 1303.93 1441.04 1303.44C1441.04 1302.96 1440.65 1302.57 1440.17 1302.57Z" fill="white"/>
<path opacity="0.35" d="M1300.83 1955.35C1300.35 1955.35 1299.96 1955.74 1299.96 1956.22C1299.96 1956.7 1300.35 1957.09 1300.83 1957.09C1301.31 1957.09 1301.7 1956.7 1301.7 1956.22C1301.7 1955.74 1301.31 1955.35 1300.83 1955.35Z" fill="white"/>
<path opacity="0.35" d="M1178.92 1668.13C1178.44 1668.13 1178.05 1668.52 1178.05 1669C1178.05 1669.48 1178.44 1669.87 1178.92 1669.87C1179.4 1669.87 1179.79 1669.48 1179.79 1669C1179.79 1668.52 1179.4 1668.13 1178.92 1668.13Z" fill="white"/>
<path opacity="0.35" d="M1074.42 1372.2C1073.94 1372.2 1073.55 1372.59 1073.55 1373.07C1073.55 1373.56 1073.94 1373.94 1074.42 1373.94C1074.9 1373.94 1075.29 1373.56 1075.29 1373.07C1075.29 1372.59 1074.9 1372.2 1074.42 1372.2Z" fill="white"/>
<path opacity="0.35" d="M987.333 2016.28C986.852 2016.28 986.462 2016.67 986.462 2017.15C986.462 2017.63 986.852 2018.02 987.333 2018.02C987.814 2018.02 988.204 2017.63 988.204 2017.15C988.204 2016.67 987.814 2016.28 987.333 2016.28Z" fill="white"/>
<path opacity="0.35" d="M848 1354.8C847.519 1354.8 847.129 1355.19 847.129 1355.67C847.129 1356.15 847.519 1356.54 848 1356.54C848.481 1356.54 848.871 1356.15 848.871 1355.67C848.871 1355.19 848.481 1354.8 848 1354.8Z" fill="white"/>
<path opacity="0.35" d="M726.083 1929.24C725.602 1929.24 725.212 1929.63 725.212 1930.11C725.212 1930.59 725.602 1930.98 726.083 1930.98C726.564 1930.98 726.954 1930.59 726.954 1930.11C726.954 1929.63 726.564 1929.24 726.083 1929.24Z" fill="white"/>
<path opacity="0.35" d="M586.75 1528.87C586.269 1528.87 585.879 1529.26 585.879 1529.74C585.879 1530.22 586.269 1530.61 586.75 1530.61C587.231 1530.61 587.621 1530.22 587.621 1529.74C587.621 1529.26 587.231 1528.87 586.75 1528.87Z" fill="white"/>
<path opacity="0.35" d="M430 1763.87C429.519 1763.87 429.129 1764.26 429.129 1764.74C429.129 1765.22 429.519 1765.61 430 1765.61C430.481 1765.61 430.871 1765.22 430.871 1764.74C430.871 1764.26 430.481 1763.87 430 1763.87Z" fill="white"/>
<path opacity="0.35" d="M342.917 1424.43C342.436 1424.43 342.046 1424.82 342.046 1425.3C342.046 1425.78 342.436 1426.17 342.917 1426.17C343.398 1426.17 343.787 1425.78 343.787 1425.3C343.787 1424.82 343.398 1424.43 342.917 1424.43Z" fill="white"/>
<path opacity="0.35" d="M1691.08 1693.69C1690.6 1693.69 1690.21 1694.08 1690.21 1694.56C1690.21 1695.04 1690.6 1695.43 1691.08 1695.43C1691.56 1695.43 1691.95 1695.04 1691.95 1694.56C1691.95 1694.08 1691.56 1693.69 1691.08 1693.69Z" fill="white"/>
<path opacity="0.35" d="M1586.58 1502.2C1586.1 1502.2 1585.71 1502.59 1585.71 1503.07C1585.71 1503.56 1586.1 1503.94 1586.58 1503.94C1587.06 1503.94 1587.45 1503.56 1587.45 1503.07C1587.45 1502.59 1587.06 1502.2 1586.58 1502.2Z" fill="white"/>
<path opacity="0.35" d="M1473.38 1119.24C1472.89 1119.24 1472.5 1119.63 1472.5 1120.11C1472.5 1120.59 1472.89 1120.98 1473.38 1120.98C1473.86 1120.98 1474.25 1120.59 1474.25 1120.11C1474.25 1119.63 1473.86 1119.24 1473.38 1119.24Z" fill="white"/>
<path opacity="0.35" d="M1360.17 962.574C1359.69 962.574 1359.3 962.964 1359.3 963.445C1359.3 963.925 1359.69 964.315 1360.17 964.315C1360.65 964.315 1361.04 963.925 1361.04 963.445C1361.04 962.964 1360.65 962.574 1360.17 962.574Z" fill="white"/>
<path opacity="0.35" d="M1220.83 1615.35C1220.35 1615.35 1219.96 1615.74 1219.96 1616.22C1219.96 1616.7 1220.35 1617.09 1220.83 1617.09C1221.31 1617.09 1221.7 1616.7 1221.7 1616.22C1221.7 1615.74 1221.31 1615.35 1220.83 1615.35Z" fill="white"/>
<path opacity="0.35" d="M1098.92 1328.13C1098.44 1328.13 1098.05 1328.52 1098.05 1329C1098.05 1329.48 1098.44 1329.87 1098.92 1329.87C1099.4 1329.87 1099.79 1329.48 1099.79 1329C1099.79 1328.52 1099.4 1328.13 1098.92 1328.13Z" fill="white"/>
<path opacity="0.35" d="M994.417 1032.2C993.936 1032.2 993.546 1032.59 993.546 1033.07C993.546 1033.56 993.936 1033.94 994.417 1033.94C994.898 1033.94 995.287 1033.56 995.287 1033.07C995.287 1032.59 994.898 1032.2 994.417 1032.2Z" fill="white"/>
<path opacity="0.35" d="M907.333 1676.28C906.852 1676.28 906.462 1676.67 906.462 1677.15C906.462 1677.63 906.852 1678.02 907.333 1678.02C907.814 1678.02 908.204 1677.63 908.204 1677.15C908.204 1676.67 907.814 1676.28 907.333 1676.28Z" fill="white"/>
<path opacity="0.35" d="M768 1014.8C767.519 1014.8 767.129 1015.19 767.129 1015.67C767.129 1016.15 767.519 1016.54 768 1016.54C768.481 1016.54 768.871 1016.15 768.871 1015.67C768.871 1015.19 768.481 1014.8 768 1014.8Z" fill="white"/>
<path opacity="0.35" d="M646.083 1589.24C645.602 1589.24 645.212 1589.63 645.212 1590.11C645.212 1590.59 645.602 1590.98 646.083 1590.98C646.564 1590.98 646.954 1590.59 646.954 1590.11C646.954 1589.63 646.564 1589.24 646.083 1589.24Z" fill="white"/>
<path opacity="0.35" d="M506.75 1188.87C506.269 1188.87 505.879 1189.26 505.879 1189.74C505.879 1190.22 506.269 1190.61 506.75 1190.61C507.231 1190.61 507.621 1190.22 507.621 1189.74C507.621 1189.26 507.231 1188.87 506.75 1188.87Z" fill="white"/>
<path opacity="0.35" d="M350 1423.87C349.519 1423.87 349.129 1424.26 349.129 1424.74C349.129 1425.22 349.519 1425.61 350 1425.61C350.481 1425.61 350.871 1425.22 350.871 1424.74C350.871 1424.26 350.481 1423.87 350 1423.87Z" fill="white"/>
<path opacity="0.35" d="M262.917 1084.43C262.436 1084.43 262.046 1084.82 262.046 1085.3C262.046 1085.78 262.436 1086.17 262.917 1086.17C263.398 1086.17 263.787 1085.78 263.787 1085.3C263.787 1084.82 263.398 1084.43 262.917 1084.43Z" fill="white"/>
<path opacity="0.6" d="M1631.75 1963.19C1630.79 1963.19 1630.01 1963.96 1630.01 1964.93C1630.01 1965.89 1630.79 1966.67 1631.75 1966.67C1632.71 1966.67 1633.49 1965.89 1633.49 1964.93C1633.49 1963.96 1632.71 1963.19 1631.75 1963.19Z" fill="white"/>
<path opacity="0.6" d="M1370.5 1371.33C1369.54 1371.33 1368.76 1372.11 1368.76 1373.07C1368.76 1374.04 1369.54 1374.81 1370.5 1374.81C1371.46 1374.81 1372.24 1374.04 1372.24 1373.07C1372.24 1372.11 1371.46 1371.33 1370.5 1371.33Z" fill="white"/>
<path opacity="0.6" d="M1039.58 1876.15C1038.62 1876.15 1037.84 1876.93 1037.84 1877.89C1037.84 1878.85 1038.62 1879.63 1039.58 1879.63C1040.55 1879.63 1041.33 1878.85 1041.33 1877.89C1041.33 1876.93 1040.55 1876.15 1039.58 1876.15Z" fill="white"/>
<path opacity="0.6" d="M743.5 1475.78C742.538 1475.78 741.758 1476.56 741.758 1477.52C741.758 1478.48 742.538 1479.26 743.5 1479.26C744.462 1479.26 745.242 1478.48 745.242 1477.52C745.242 1476.56 744.462 1475.78 743.5 1475.78Z" fill="white"/>
<path opacity="0.6" d="M412.583 1980.59C411.622 1980.59 410.842 1981.37 410.842 1982.33C410.842 1983.29 411.622 1984.07 412.583 1984.07C413.545 1984.07 414.325 1983.29 414.325 1982.33C414.325 1981.37 413.545 1980.59 412.583 1980.59Z" fill="white"/>
<path opacity="0.9" d="M846.692 2512.11C845.256 2511.97 843.979 2513.02 843.84 2514.45C843.701 2515.89 844.753 2517.17 846.189 2517.31C847.625 2517.44 848.902 2516.39 849.041 2514.96C849.18 2513.52 848.128 2512.25 846.692 2512.11Z" fill="white"/>
<path opacity="0.9" d="M1376.21 2283.96C1375.01 2283.85 1373.95 2284.72 1373.83 2285.92C1373.72 2287.12 1374.59 2288.18 1375.79 2288.29C1376.99 2288.41 1378.05 2287.53 1378.17 2286.34C1378.28 2285.14 1377.41 2284.08 1376.21 2283.96Z" fill="white"/>
<path d="M730.104 2631.99C728.668 2631.85 727.391 2632.9 727.252 2634.34C727.113 2635.77 728.165 2637.05 729.601 2637.19C731.037 2637.33 732.314 2636.28 732.453 2634.84C732.591 2633.41 731.54 2632.13 730.104 2631.99Z" fill="#00F0FF"/>
<path opacity="0.9" d="M712.566 1660.3C713.197 1658.37 712.618 1655.62 711.272 1654.16C709.926 1652.7 708.323 1653.09 707.692 1655.02C707.061 1656.95 707.64 1659.7 708.986 1661.16C710.332 1662.62 711.935 1662.24 712.566 1660.3Z" fill="white"/>
<path opacity="0.9" d="M693.08 2648.46C693.606 2646.85 693.123 2644.56 692.002 2643.34C690.88 2642.12 689.544 2642.44 689.018 2644.05C688.492 2645.66 688.975 2647.95 690.097 2649.17C691.218 2650.39 692.554 2650.07 693.08 2648.46Z" fill="white"/>
<path d="M653.849 1391.78C654.48 1389.85 653.901 1387.1 652.555 1385.64C651.209 1384.18 649.606 1384.57 648.975 1386.5C648.343 1388.43 648.923 1391.18 650.269 1392.64C651.615 1394.1 653.217 1393.72 653.849 1391.78Z" fill="#00F0FF"/>
<path opacity="0.35" d="M1636.58 822.204C1636.1 822.204 1635.71 822.594 1635.71 823.074C1635.71 823.555 1636.1 823.945 1636.58 823.945C1637.06 823.945 1637.45 823.555 1637.45 823.074C1637.45 822.594 1637.06 822.204 1636.58 822.204Z" fill="white"/>
<path opacity="0.35" d="M1523.38 439.241C1522.89 439.241 1522.5 439.631 1522.5 440.111C1522.5 440.592 1522.89 440.982 1523.38 440.982C1523.86 440.982 1524.25 440.592 1524.25 440.111C1524.25 439.631 1523.86 439.241 1523.38 439.241Z" fill="white"/>
<path opacity="0.35" d="M1410.17 282.574C1409.69 282.574 1409.3 282.964 1409.3 283.445C1409.3 283.925 1409.69 284.315 1410.17 284.315C1410.65 284.315 1411.04 283.925 1411.04 283.445C1411.04 282.964 1410.65 282.574 1410.17 282.574Z" fill="white"/>
<path opacity="0.35" d="M1270.83 935.352C1270.35 935.352 1269.96 935.742 1269.96 936.222C1269.96 936.703 1270.35 937.093 1270.83 937.093C1271.31 937.093 1271.7 936.703 1271.7 936.222C1271.7 935.742 1271.31 935.352 1270.83 935.352Z" fill="white"/>
<path opacity="0.35" d="M1148.92 648.13C1148.44 648.13 1148.05 648.519 1148.05 649C1148.05 649.481 1148.44 649.87 1148.92 649.87C1149.4 649.87 1149.79 649.481 1149.79 649C1149.79 648.519 1149.4 648.13 1148.92 648.13Z" fill="white"/>
<path opacity="0.35" d="M1044.42 352.204C1043.94 352.204 1043.55 352.594 1043.55 353.074C1043.55 353.555 1043.94 353.945 1044.42 353.945C1044.9 353.945 1045.29 353.555 1045.29 353.074C1045.29 352.594 1044.9 352.204 1044.42 352.204Z" fill="white"/>
<path opacity="0.35" d="M957.333 996.278C956.852 996.278 956.462 996.668 956.462 997.148C956.462 997.629 956.852 998.019 957.333 998.019C957.814 998.019 958.204 997.629 958.204 997.148C958.204 996.668 957.814 996.278 957.333 996.278Z" fill="white"/>
<path opacity="0.35" d="M818 334.796C817.519 334.796 817.129 335.186 817.129 335.667C817.129 336.147 817.519 336.537 818 336.537C818.481 336.537 818.871 336.147 818.871 335.667C818.871 335.186 818.481 334.796 818 334.796Z" fill="white"/>
<path opacity="0.35" d="M696.083 909.241C695.602 909.241 695.212 909.631 695.212 910.111C695.212 910.592 695.602 910.982 696.083 910.982C696.564 910.982 696.954 910.592 696.954 910.111C696.954 909.631 696.564 909.241 696.083 909.241Z" fill="white"/>
<path opacity="0.35" d="M556.75 508.871C556.269 508.871 555.879 509.26 555.879 509.741C555.879 510.222 556.269 510.611 556.75 510.611C557.231 510.611 557.621 510.222 557.621 509.741C557.621 509.26 557.231 508.871 556.75 508.871Z" fill="white"/>
<path opacity="0.35" d="M400 743.87C399.519 743.87 399.129 744.26 399.129 744.741C399.129 745.222 399.519 745.611 400 745.611C400.481 745.611 400.871 745.222 400.871 744.741C400.871 744.26 400.481 743.87 400 743.87Z" fill="white"/>
<path opacity="0.35" d="M312.917 404.426C312.436 404.426 312.046 404.816 312.046 405.296C312.046 405.777 312.436 406.167 312.917 406.167C313.398 406.167 313.787 405.777 313.787 405.296C313.787 404.816 313.398 404.426 312.917 404.426Z" fill="white"/>
<path opacity="0.6" d="M510.014 2610.87C509.321 2610.2 508.219 2610.22 507.552 2610.92C506.885 2611.61 506.905 2612.71 507.598 2613.38C508.29 2614.05 509.392 2614.03 510.06 2613.33C510.727 2612.64 510.706 2611.54 510.014 2610.87Z" fill="white"/>
<path opacity="0.6" d="M732.694 2003.46C732.002 2002.79 730.9 2002.81 730.232 2003.5C729.565 2004.19 729.586 2005.3 730.278 2005.96C730.971 2006.63 732.073 2006.61 732.74 2005.92C733.407 2005.23 733.387 2004.12 732.694 2003.46Z" fill="white"/>
<path opacity="0.6" d="M144.095 2137.23C143.402 2136.56 142.3 2136.58 141.633 2137.27C140.966 2137.96 140.986 2139.07 141.679 2139.73C142.371 2140.4 143.473 2140.38 144.141 2139.69C144.808 2139 144.787 2137.89 144.095 2137.23Z" fill="white"/>
<path opacity="0.6" d="M208.803 1643.49C208.11 1642.82 207.008 1642.84 206.341 1643.54C205.674 1644.23 205.694 1645.33 206.387 1646C207.079 1646.66 208.181 1646.64 208.849 1645.95C209.516 1645.26 209.495 1644.16 208.803 1643.49Z" fill="white"/>
<path opacity="0.35" d="M646.083 2145.69C645.602 2145.69 645.213 2146.08 645.213 2146.56C645.213 2147.04 645.602 2147.43 646.083 2147.43C646.564 2147.43 646.954 2147.04 646.954 2146.56C646.954 2146.08 646.564 2145.69 646.083 2145.69Z" fill="white"/>
<path opacity="0.35" d="M541.583 1954.2C541.102 1954.2 540.713 1954.59 540.713 1955.07C540.713 1955.56 541.102 1955.94 541.583 1955.94C542.064 1955.94 542.454 1955.56 542.454 1955.07C542.454 1954.59 542.064 1954.2 541.583 1954.2Z" fill="white"/>
<path opacity="0.35" d="M428.375 1571.24C427.894 1571.24 427.504 1571.63 427.504 1572.11C427.504 1572.59 427.894 1572.98 428.375 1572.98C428.856 1572.98 429.246 1572.59 429.246 1572.11C429.246 1571.63 428.856 1571.24 428.375 1571.24Z" fill="white"/>
<path opacity="0.35" d="M315.167 1414.57C314.686 1414.57 314.296 1414.96 314.296 1415.44C314.296 1415.93 314.686 1416.32 315.167 1416.32C315.648 1416.32 316.038 1415.93 316.038 1415.44C316.038 1414.96 315.648 1414.57 315.167 1414.57Z" fill="white"/>
<path opacity="0.35" d="M175.833 2067.35C175.352 2067.35 174.963 2067.74 174.963 2068.22C174.963 2068.7 175.352 2069.09 175.833 2069.09C176.314 2069.09 176.704 2068.7 176.704 2068.22C176.704 2067.74 176.314 2067.35 175.833 2067.35Z" fill="white"/>
<path opacity="0.35" d="M53.9168 1780.13C53.4358 1780.13 53.046 1780.52 53.046 1781C53.046 1781.48 53.4358 1781.87 53.9168 1781.87C54.3977 1781.87 54.7876 1781.48 54.7876 1781C54.7876 1780.52 54.3977 1780.13 53.9168 1780.13Z" fill="white"/>
<path opacity="0.35" d="M566.083 1805.69C565.602 1805.69 565.213 1806.08 565.213 1806.56C565.213 1807.04 565.602 1807.43 566.083 1807.43C566.564 1807.43 566.954 1807.04 566.954 1806.56C566.954 1806.08 566.564 1805.69 566.083 1805.69Z" fill="white"/>
<path opacity="0.35" d="M461.583 1614.2C461.102 1614.2 460.713 1614.59 460.713 1615.07C460.713 1615.56 461.102 1615.95 461.583 1615.95C462.064 1615.95 462.454 1615.56 462.454 1615.07C462.454 1614.59 462.064 1614.2 461.583 1614.2Z" fill="white"/>
<path opacity="0.35" d="M348.375 1231.24C347.894 1231.24 347.504 1231.63 347.504 1232.11C347.504 1232.59 347.894 1232.98 348.375 1232.98C348.856 1232.98 349.246 1232.59 349.246 1232.11C349.246 1231.63 348.856 1231.24 348.375 1231.24Z" fill="white"/>
<path opacity="0.35" d="M235.167 1074.57C234.686 1074.57 234.296 1074.96 234.296 1075.45C234.296 1075.93 234.686 1076.32 235.167 1076.32C235.648 1076.32 236.038 1075.93 236.038 1075.45C236.038 1074.96 235.648 1074.57 235.167 1074.57Z" fill="white"/>
<path opacity="0.35" d="M95.8334 1727.35C95.3524 1727.35 94.9626 1727.74 94.9626 1728.22C94.9626 1728.7 95.3524 1729.09 95.8334 1729.09C96.3143 1729.09 96.7042 1728.7 96.7042 1728.22C96.7042 1727.74 96.3143 1727.35 95.8334 1727.35Z" fill="white"/>
<path opacity="0.6" d="M506.75 2075.19C505.788 2075.19 505.008 2075.96 505.008 2076.93C505.008 2077.89 505.788 2078.67 506.75 2078.67C507.712 2078.67 508.492 2077.89 508.492 2076.93C508.492 2075.96 507.712 2075.19 506.75 2075.19Z" fill="white"/>
<path opacity="0.6" d="M245.5 1483.33C244.538 1483.33 243.758 1484.11 243.758 1485.07C243.758 1486.04 244.538 1486.82 245.5 1486.82C246.462 1486.82 247.242 1486.04 247.242 1485.07C247.242 1484.11 246.462 1483.33 245.5 1483.33Z" fill="white"/>
<path opacity="0.9" d="M251.21 2395.96C250.014 2395.85 248.95 2396.72 248.834 2397.92C248.718 2399.12 249.594 2400.18 250.791 2400.29C251.988 2400.41 253.052 2399.53 253.168 2398.34C253.284 2397.14 252.407 2396.08 251.21 2395.96Z" fill="white"/>
<path opacity="0.35" d="M616.083 1125.69C615.602 1125.69 615.213 1126.08 615.213 1126.56C615.213 1127.04 615.602 1127.43 616.083 1127.43C616.564 1127.43 616.954 1127.04 616.954 1126.56C616.954 1126.08 616.564 1125.69 616.083 1125.69Z" fill="white"/>
<path opacity="0.35" d="M511.583 934.204C511.102 934.204 510.713 934.594 510.713 935.074C510.713 935.555 511.102 935.945 511.583 935.945C512.064 935.945 512.454 935.555 512.454 935.074C512.454 934.594 512.064 934.204 511.583 934.204Z" fill="white"/>
<path opacity="0.35" d="M398.375 551.241C397.894 551.241 397.504 551.631 397.504 552.111C397.504 552.592 397.894 552.982 398.375 552.982C398.856 552.982 399.246 552.592 399.246 552.111C399.246 551.631 398.856 551.241 398.375 551.241Z" fill="white"/>
<path opacity="0.35" d="M285.167 394.574C284.686 394.574 284.296 394.964 284.296 395.445C284.296 395.925 284.686 396.315 285.167 396.315C285.648 396.315 286.038 395.925 286.038 395.445C286.038 394.964 285.648 394.574 285.167 394.574Z" fill="white"/>
<path opacity="0.35" d="M145.833 1047.35C145.352 1047.35 144.963 1047.74 144.963 1048.22C144.963 1048.7 145.352 1049.09 145.833 1049.09C146.314 1049.09 146.704 1048.7 146.704 1048.22C146.704 1047.74 146.314 1047.35 145.833 1047.35Z" fill="white"/>
<path opacity="0.35" d="M23.9168 760.13C23.4358 760.13 23.046 760.52 23.046 761C23.046 761.481 23.4358 761.871 23.9168 761.871C24.3977 761.871 24.7876 761.481 24.7876 761C24.7876 760.52 24.3977 760.13 23.9168 760.13Z" fill="white"/>
<path opacity="0.6" d="M1599.01 1826.87C1598.32 1826.2 1597.22 1826.22 1596.55 1826.91C1595.88 1827.6 1595.9 1828.7 1596.6 1829.37C1597.29 1830.04 1598.39 1830.02 1599.06 1829.33C1599.73 1828.64 1599.71 1827.53 1599.01 1826.87Z" fill="white"/>
<path opacity="0.6" d="M1233.09 1353.22C1232.4 1352.55 1231.3 1352.57 1230.63 1353.26C1229.97 1353.96 1229.99 1355.06 1230.68 1355.73C1231.37 1356.39 1232.47 1356.37 1233.14 1355.68C1233.81 1354.99 1233.79 1353.89 1233.09 1353.22Z" fill="white"/>
<path opacity="0.6" d="M1297.8 859.485C1297.11 858.817 1296.01 858.837 1295.34 859.529C1294.67 860.221 1294.69 861.323 1295.39 861.991C1296.08 862.659 1297.18 862.639 1297.85 861.947C1298.52 861.254 1298.5 860.152 1297.8 859.485Z" fill="white"/>
<path opacity="0.6" d="M709.203 993.254C708.511 992.587 707.408 992.607 706.741 993.299C706.074 993.991 706.094 995.093 706.787 995.761C707.479 996.429 708.582 996.409 709.249 995.716C709.916 995.024 709.896 993.922 709.203 993.254Z" fill="white"/>
<path opacity="0.35" d="M1630.58 1170.2C1630.1 1170.2 1629.71 1170.59 1629.71 1171.07C1629.71 1171.55 1630.1 1171.94 1630.58 1171.94C1631.06 1171.94 1631.45 1171.55 1631.45 1171.07C1631.45 1170.59 1631.06 1170.2 1630.58 1170.2Z" fill="white"/>
<path opacity="0.35" d="M1517.38 787.235C1516.89 787.235 1516.5 787.625 1516.5 788.105C1516.5 788.586 1516.89 788.976 1517.38 788.976C1517.86 788.976 1518.25 788.586 1518.25 788.105C1518.25 787.625 1517.86 787.235 1517.38 787.235Z" fill="white"/>
<path opacity="0.35" d="M1404.17 630.568C1403.69 630.568 1403.3 630.958 1403.3 631.439C1403.3 631.919 1403.69 632.309 1404.17 632.309C1404.65 632.309 1405.04 631.919 1405.04 631.439C1405.04 630.958 1404.65 630.568 1404.17 630.568Z" fill="white"/>
<path opacity="0.35" d="M1264.83 1283.35C1264.35 1283.35 1263.96 1283.74 1263.96 1284.22C1263.96 1284.7 1264.35 1285.09 1264.83 1285.09C1265.31 1285.09 1265.7 1284.7 1265.7 1284.22C1265.7 1283.74 1265.31 1283.35 1264.83 1283.35Z" fill="white"/>
<path opacity="0.35" d="M1142.92 996.124C1142.44 996.124 1142.05 996.513 1142.05 996.994C1142.05 997.475 1142.44 997.865 1142.92 997.865C1143.4 997.865 1143.79 997.475 1143.79 996.994C1143.79 996.513 1143.4 996.124 1142.92 996.124Z" fill="white"/>
<path opacity="0.35" d="M1038.42 700.198C1037.94 700.198 1037.55 700.588 1037.55 701.068C1037.55 701.549 1037.94 701.939 1038.42 701.939C1038.9 701.939 1039.29 701.549 1039.29 701.068C1039.29 700.588 1038.9 700.198 1038.42 700.198Z" fill="white"/>
<path opacity="0.35" d="M951.333 1344.27C950.852 1344.27 950.462 1344.66 950.462 1345.14C950.462 1345.62 950.852 1346.01 951.333 1346.01C951.814 1346.01 952.204 1345.62 952.204 1345.14C952.204 1344.66 951.814 1344.27 951.333 1344.27Z" fill="white"/>
<path opacity="0.35" d="M812 682.79C811.519 682.79 811.129 683.18 811.129 683.661C811.129 684.141 811.519 684.531 812 684.531C812.481 684.531 812.871 684.141 812.871 683.661C812.871 683.18 812.481 682.79 812 682.79Z" fill="white"/>
<path opacity="0.35" d="M690.083 1257.23C689.602 1257.23 689.212 1257.62 689.212 1258.11C689.212 1258.59 689.602 1258.98 690.083 1258.98C690.564 1258.98 690.954 1258.59 690.954 1258.11C690.954 1257.62 690.564 1257.23 690.083 1257.23Z" fill="white"/>
<path opacity="0.35" d="M550.75 856.865C550.269 856.865 549.879 857.254 549.879 857.735C549.879 858.216 550.269 858.605 550.75 858.605C551.231 858.605 551.621 858.216 551.621 857.735C551.621 857.254 551.231 856.865 550.75 856.865Z" fill="white"/>
<path opacity="0.35" d="M394 1091.86C393.519 1091.86 393.129 1092.25 393.129 1092.73C393.129 1093.22 393.519 1093.61 394 1093.61C394.481 1093.61 394.871 1093.22 394.871 1092.73C394.871 1092.25 394.481 1091.86 394 1091.86Z" fill="white"/>
<path opacity="0.35" d="M306.917 752.42C306.436 752.42 306.046 752.81 306.046 753.29C306.046 753.771 306.436 754.161 306.917 754.161C307.398 754.161 307.787 753.771 307.787 753.29C307.787 752.81 307.398 752.42 306.917 752.42Z" fill="white"/>
<path opacity="0.35" d="M1655.08 1021.68C1654.6 1021.68 1654.21 1022.07 1654.21 1022.55C1654.21 1023.03 1654.6 1023.42 1655.08 1023.42C1655.56 1023.42 1655.95 1023.03 1655.95 1022.55C1655.95 1022.07 1655.56 1021.68 1655.08 1021.68Z" fill="white"/>
<path opacity="0.35" d="M1550.58 830.198C1550.1 830.198 1549.71 830.588 1549.71 831.068C1549.71 831.549 1550.1 831.939 1550.58 831.939C1551.06 831.939 1551.45 831.549 1551.45 831.068C1551.45 830.588 1551.06 830.198 1550.58 830.198Z" fill="white"/>
<path opacity="0.35" d="M1437.38 447.235C1436.89 447.235 1436.5 447.625 1436.5 448.105C1436.5 448.586 1436.89 448.976 1437.38 448.976C1437.86 448.976 1438.25 448.586 1438.25 448.105C1438.25 447.625 1437.86 447.235 1437.38 447.235Z" fill="white"/>
<path opacity="0.35" d="M1324.17 290.568C1323.69 290.568 1323.3 290.958 1323.3 291.439C1323.3 291.919 1323.69 292.309 1324.17 292.309C1324.65 292.309 1325.04 291.919 1325.04 291.439C1325.04 290.958 1324.65 290.568 1324.17 290.568Z" fill="white"/>
<path opacity="0.35" d="M1184.83 943.346C1184.35 943.346 1183.96 943.736 1183.96 944.216C1183.96 944.697 1184.35 945.087 1184.83 945.087C1185.31 945.087 1185.7 944.697 1185.7 944.216C1185.7 943.736 1185.31 943.346 1184.83 943.346Z" fill="white"/>
<path opacity="0.35" d="M1062.92 656.124C1062.44 656.124 1062.05 656.513 1062.05 656.994C1062.05 657.475 1062.44 657.865 1062.92 657.865C1063.4 657.865 1063.79 657.475 1063.79 656.994C1063.79 656.513 1063.4 656.124 1062.92 656.124Z" fill="white"/>
<path opacity="0.35" d="M958.417 360.198C957.936 360.198 957.546 360.588 957.546 361.068C957.546 361.549 957.936 361.939 958.417 361.939C958.898 361.939 959.287 361.549 959.287 361.068C959.287 360.588 958.898 360.198 958.417 360.198Z" fill="white"/>
<path opacity="0.35" d="M871.333 1004.27C870.852 1004.27 870.462 1004.66 870.462 1005.14C870.462 1005.62 870.852 1006.01 871.333 1006.01C871.814 1006.01 872.204 1005.62 872.204 1005.14C872.204 1004.66 871.814 1004.27 871.333 1004.27Z" fill="white"/>
<path opacity="0.35" d="M732 342.79C731.519 342.79 731.129 343.18 731.129 343.661C731.129 344.142 731.519 344.531 732 344.531C732.481 344.531 732.871 344.142 732.871 343.661C732.871 343.18 732.481 342.79 732 342.79Z" fill="white"/>
<path opacity="0.35" d="M610.083 917.235C609.602 917.235 609.212 917.625 609.212 918.105C609.212 918.586 609.602 918.976 610.083 918.976C610.564 918.976 610.954 918.586 610.954 918.105C610.954 917.625 610.564 917.235 610.083 917.235Z" fill="white"/>
<path opacity="0.35" d="M470.75 516.865C470.269 516.865 469.879 517.254 469.879 517.735C469.879 518.216 470.269 518.605 470.75 518.605C471.231 518.605 471.621 518.216 471.621 517.735C471.621 517.254 471.231 516.865 470.75 516.865Z" fill="white"/>
<path opacity="0.35" d="M314 751.864C313.519 751.864 313.129 752.254 313.129 752.735C313.129 753.216 313.519 753.605 314 753.605C314.481 753.605 314.871 753.216 314.871 752.735C314.871 752.254 314.481 751.864 314 751.864Z" fill="white"/>
<path opacity="0.35" d="M226.917 412.42C226.436 412.42 226.046 412.81 226.046 413.29C226.046 413.771 226.436 414.161 226.917 414.161C227.398 414.161 227.787 413.771 227.787 413.29C227.787 412.81 227.398 412.42 226.917 412.42Z" fill="white"/>
<path opacity="0.6" d="M1595.75 1291.18C1594.79 1291.18 1594.01 1291.96 1594.01 1292.92C1594.01 1293.88 1594.79 1294.66 1595.75 1294.66C1596.71 1294.66 1597.49 1293.88 1597.49 1292.92C1597.49 1291.96 1596.71 1291.18 1595.75 1291.18Z" fill="white"/>
<path opacity="0.6" d="M1334.5 699.328C1333.54 699.328 1332.76 700.107 1332.76 701.068C1332.76 702.03 1333.54 702.809 1334.5 702.809C1335.46 702.809 1336.24 702.03 1336.24 701.068C1336.24 700.107 1335.46 699.328 1334.5 699.328Z" fill="white"/>
<path opacity="0.6" d="M1003.58 1204.14C1002.62 1204.14 1001.84 1204.92 1001.84 1205.88C1001.84 1206.84 1002.62 1207.62 1003.58 1207.62C1004.55 1207.62 1005.33 1206.84 1005.33 1205.88C1005.33 1204.92 1004.55 1204.14 1003.58 1204.14Z" fill="white"/>
<path opacity="0.6" d="M707.5 803.772C706.538 803.772 705.758 804.551 705.758 805.513C705.758 806.474 706.538 807.254 707.5 807.254C708.462 807.254 709.242 806.474 709.242 805.513C709.242 804.551 708.462 803.772 707.5 803.772Z" fill="white"/>
<path opacity="0.6" d="M376.583 1308.59C375.622 1308.59 374.842 1309.37 374.842 1310.33C374.842 1311.29 375.622 1312.07 376.583 1312.07C377.545 1312.07 378.325 1311.29 378.325 1310.33C378.325 1309.37 377.545 1308.59 376.583 1308.59Z" fill="white"/>
<path opacity="0.9" d="M810.692 1840.1C809.256 1839.96 807.979 1841.01 807.84 1842.45C807.701 1843.88 808.753 1845.16 810.189 1845.3C811.625 1845.44 812.902 1844.39 813.041 1842.95C813.18 1841.52 812.128 1840.24 810.692 1840.1Z" fill="white"/>
<path opacity="0.9" d="M1340.21 1611.96C1339.01 1611.84 1337.95 1612.72 1337.83 1613.91C1337.72 1615.11 1338.59 1616.17 1339.79 1616.29C1340.99 1616.4 1342.05 1615.53 1342.17 1614.33C1342.28 1613.14 1341.41 1612.07 1340.21 1611.96Z" fill="white"/>
<path d="M694.104 1959.99C692.668 1959.85 691.391 1960.9 691.252 1962.33C691.113 1963.77 692.165 1965.04 693.601 1965.18C695.037 1965.32 696.314 1964.27 696.453 1962.84C696.591 1961.4 695.54 1960.12 694.104 1959.99Z" fill="#00F0FF"/>
<path opacity="0.9" d="M676.566 988.299C677.197 986.367 676.618 983.618 675.272 982.158C673.926 980.698 672.323 981.081 671.692 983.012C671.061 984.943 671.64 987.692 672.986 989.152C674.332 990.612 675.935 990.23 676.566 988.299Z" fill="white"/>
<path opacity="0.9" d="M657.08 1976.45C657.606 1974.84 657.123 1972.55 656.002 1971.34C654.88 1970.12 653.544 1970.44 653.018 1972.05C652.492 1973.66 652.975 1975.95 654.097 1977.16C655.218 1978.38 656.554 1978.06 657.08 1976.45Z" fill="white"/>
<path d="M617.849 719.778C618.48 717.846 617.901 715.097 616.555 713.637C615.209 712.178 613.606 712.56 612.975 714.491C612.343 716.423 612.923 719.172 614.269 720.632C615.615 722.091 617.217 721.709 617.849 719.778Z" fill="#00F0FF"/>
<path opacity="0.35" d="M1705.08 341.679C1704.6 341.679 1704.21 342.069 1704.21 342.55C1704.21 343.03 1704.6 343.42 1705.08 343.42C1705.56 343.42 1705.95 343.03 1705.95 342.55C1705.95 342.069 1705.56 341.679 1705.08 341.679Z" fill="white"/>
<path opacity="0.35" d="M1600.58 150.198C1600.1 150.198 1599.71 150.588 1599.71 151.068C1599.71 151.549 1600.1 151.939 1600.58 151.939C1601.06 151.939 1601.45 151.549 1601.45 151.068C1601.45 150.588 1601.06 150.198 1600.58 150.198Z" fill="white"/>
<path opacity="0.35" d="M1234.83 263.346C1234.35 263.346 1233.96 263.736 1233.96 264.216C1233.96 264.697 1234.35 265.087 1234.83 265.087C1235.31 265.087 1235.7 264.697 1235.7 264.216C1235.7 263.736 1235.31 263.346 1234.83 263.346Z" fill="white"/>
<path opacity="0.35" d="M921.333 324.272C920.852 324.272 920.462 324.662 920.462 325.142C920.462 325.623 920.852 326.013 921.333 326.013C921.814 326.013 922.204 325.623 922.204 325.142C922.204 324.662 921.814 324.272 921.333 324.272Z" fill="white"/>
<path opacity="0.35" d="M660.083 237.235C659.602 237.235 659.212 237.625 659.212 238.105C659.212 238.586 659.602 238.976 660.083 238.976C660.564 238.976 660.954 238.586 660.954 238.105C660.954 237.625 660.564 237.235 660.083 237.235Z" fill="white"/>
<path opacity="0.35" d="M364 71.8645C363.519 71.8645 363.129 72.2542 363.129 72.7349C363.129 73.2155 363.519 73.6052 364 73.6052C364.481 73.6052 364.871 73.2155 364.871 72.7349C364.871 72.2542 364.481 71.8645 364 71.8645Z" fill="white"/>
<path opacity="0.6" d="M1244.92 683.449C1243.96 683.492 1243.21 684.305 1243.26 685.265C1243.3 686.226 1244.11 686.97 1245.07 686.927C1246.03 686.885 1246.78 686.072 1246.74 685.111C1246.69 684.151 1245.88 683.407 1244.92 683.449Z" fill="white"/>
<path opacity="0.6" d="M957.697 103.757C956.736 103.8 955.991 104.613 956.034 105.573C956.076 106.534 956.89 107.278 957.851 107.235C958.812 107.192 959.556 106.379 959.514 105.419C959.471 104.458 958.658 103.714 957.697 103.757Z" fill="white"/>
<path opacity="0.6" d="M649.477 622.741C648.516 622.784 647.772 623.597 647.815 624.557C647.857 625.518 648.671 626.262 649.632 626.219C650.593 626.177 651.337 625.363 651.294 624.403C651.252 623.443 650.438 622.699 649.477 622.741Z" fill="white"/>
<path opacity="0.6" d="M335.941 235.886C334.98 235.929 334.236 236.742 334.279 237.702C334.321 238.663 335.135 239.407 336.096 239.364C337.057 239.321 337.801 238.508 337.758 237.548C337.716 236.587 336.902 235.843 335.941 235.886Z" fill="white"/>
<path opacity="0.6" d="M27.7222 754.87C26.7613 754.913 26.0168 755.726 26.0594 756.687C26.102 757.647 26.9155 758.391 27.8765 758.348C28.8375 758.306 29.5819 757.493 29.5393 756.532C29.4967 755.572 28.6832 754.828 27.7222 754.87Z" fill="white"/>
<path opacity="0.6" d="M1414.01 1533.87C1413.32 1533.2 1412.22 1533.22 1411.55 1533.91C1410.88 1534.6 1410.9 1535.7 1411.6 1536.37C1412.29 1537.04 1413.39 1537.02 1414.06 1536.33C1414.73 1535.64 1414.71 1534.53 1414.01 1533.87Z" fill="white"/>
<path opacity="0.6" d="M1636.69 926.45C1636 925.782 1634.9 925.802 1634.23 926.494C1633.57 927.187 1633.59 928.289 1634.28 928.957C1634.97 929.624 1636.07 929.604 1636.74 928.912C1637.41 928.22 1637.39 927.118 1636.69 926.45Z" fill="white"/>
<path opacity="0.6" d="M1048.09 1060.22C1047.4 1059.55 1046.3 1059.57 1045.63 1060.26C1044.97 1060.96 1044.99 1062.06 1045.68 1062.73C1046.37 1063.39 1047.47 1063.37 1048.14 1062.68C1048.81 1061.99 1048.79 1060.89 1048.09 1060.22Z" fill="white"/>
<path opacity="0.6" d="M1112.8 566.484C1112.11 565.817 1111.01 565.837 1110.34 566.529C1109.67 567.221 1109.69 568.323 1110.39 568.991C1111.08 569.659 1112.18 569.639 1112.85 568.946C1113.52 568.254 1113.5 567.152 1112.8 566.484Z" fill="white"/>
<path opacity="0.6" d="M524.203 700.254C523.511 699.587 522.408 699.607 521.741 700.299C521.074 700.991 521.094 702.093 521.787 702.761C522.479 703.428 523.582 703.409 524.249 702.716C524.916 702.024 524.896 700.922 524.203 700.254Z" fill="white"/>
<path opacity="0.35" d="M1550.08 1068.68C1549.6 1068.68 1549.21 1069.07 1549.21 1069.55C1549.21 1070.03 1549.6 1070.42 1550.08 1070.42C1550.56 1070.42 1550.95 1070.03 1550.95 1069.55C1550.95 1069.07 1550.56 1068.68 1550.08 1068.68Z" fill="white"/>
<path opacity="0.35" d="M1445.58 877.198C1445.1 877.198 1444.71 877.588 1444.71 878.068C1444.71 878.549 1445.1 878.939 1445.58 878.939C1446.06 878.939 1446.45 878.549 1446.45 878.068C1446.45 877.588 1446.06 877.198 1445.58 877.198Z" fill="white"/>
<path opacity="0.35" d="M1332.38 494.235C1331.89 494.235 1331.5 494.625 1331.5 495.105C1331.5 495.586 1331.89 495.976 1332.38 495.976C1332.86 495.976 1333.25 495.586 1333.25 495.105C1333.25 494.625 1332.86 494.235 1332.38 494.235Z" fill="white"/>
<path opacity="0.35" d="M1219.17 337.568C1218.69 337.568 1218.3 337.958 1218.3 338.439C1218.3 338.919 1218.69 339.309 1219.17 339.309C1219.65 339.309 1220.04 338.919 1220.04 338.439C1220.04 337.958 1219.65 337.568 1219.17 337.568Z" fill="white"/>
<path opacity="0.35" d="M1079.83 990.346C1079.35 990.346 1078.96 990.736 1078.96 991.216C1078.96 991.697 1079.35 992.087 1079.83 992.087C1080.31 992.087 1080.7 991.697 1080.7 991.216C1080.7 990.736 1080.31 990.346 1079.83 990.346Z" fill="white"/>
<path opacity="0.35" d="M957.917 703.124C957.436 703.124 957.046 703.513 957.046 703.994C957.046 704.475 957.436 704.865 957.917 704.865C958.398 704.865 958.787 704.475 958.787 703.994C958.787 703.513 958.398 703.124 957.917 703.124Z" fill="white"/>
<path opacity="0.35" d="M853.417 407.198C852.936 407.198 852.546 407.588 852.546 408.068C852.546 408.549 852.936 408.939 853.417 408.939C853.898 408.939 854.287 408.549 854.287 408.068C854.287 407.588 853.898 407.198 853.417 407.198Z" fill="white"/>
<path opacity="0.35" d="M766.333 1051.27C765.852 1051.27 765.462 1051.66 765.462 1052.14C765.462 1052.62 765.852 1053.01 766.333 1053.01C766.814 1053.01 767.204 1052.62 767.204 1052.14C767.204 1051.66 766.814 1051.27 766.333 1051.27Z" fill="white"/>
<path opacity="0.35" d="M627 389.79C626.519 389.79 626.129 390.18 626.129 390.661C626.129 391.142 626.519 391.531 627 391.531C627.481 391.531 627.871 391.142 627.871 390.661C627.871 390.18 627.481 389.79 627 389.79Z" fill="white"/>
<path opacity="0.35" d="M505.083 964.235C504.602 964.235 504.212 964.625 504.212 965.105C504.212 965.586 504.602 965.976 505.083 965.976C505.564 965.976 505.954 965.586 505.954 965.105C505.954 964.625 505.564 964.235 505.083 964.235Z" fill="white"/>
<path opacity="0.35" d="M365.75 563.865C365.269 563.865 364.879 564.254 364.879 564.735C364.879 565.216 365.269 565.605 365.75 565.605C366.231 565.605 366.621 565.216 366.621 564.735C366.621 564.254 366.231 563.865 365.75 563.865Z" fill="white"/>
<path opacity="0.35" d="M209 798.864C208.519 798.864 208.129 799.254 208.129 799.735C208.129 800.216 208.519 800.605 209 800.605C209.481 800.605 209.871 800.216 209.871 799.735C209.871 799.254 209.481 798.864 209 798.864Z" fill="white"/>
<path opacity="0.35" d="M121.917 459.42C121.436 459.42 121.046 459.81 121.046 460.29C121.046 460.771 121.436 461.161 121.917 461.161C122.398 461.161 122.787 460.771 122.787 460.29C122.787 459.81 122.398 459.42 121.917 459.42Z" fill="white"/>
<path opacity="0.35" d="M1470.08 728.679C1469.6 728.679 1469.21 729.069 1469.21 729.55C1469.21 730.03 1469.6 730.42 1470.08 730.42C1470.56 730.42 1470.95 730.03 1470.95 729.55C1470.95 729.069 1470.56 728.679 1470.08 728.679Z" fill="white"/>
<path opacity="0.35" d="M1365.58 537.198C1365.1 537.198 1364.71 537.588 1364.71 538.068C1364.71 538.549 1365.1 538.939 1365.58 538.939C1366.06 538.939 1366.45 538.549 1366.45 538.068C1366.45 537.588 1366.06 537.198 1365.58 537.198Z" fill="white"/>
<path opacity="0.35" d="M1252.38 154.235C1251.89 154.235 1251.5 154.625 1251.5 155.105C1251.5 155.586 1251.89 155.976 1252.38 155.976C1252.86 155.976 1253.25 155.586 1253.25 155.105C1253.25 154.625 1252.86 154.235 1252.38 154.235Z" fill="white"/>
<path opacity="0.35" d="M999.833 650.346C999.352 650.346 998.962 650.736 998.962 651.216C998.962 651.697 999.352 652.087 999.833 652.087C1000.31 652.087 1000.7 651.697 1000.7 651.216C1000.7 650.736 1000.31 650.346 999.833 650.346Z" fill="white"/>
<path opacity="0.35" d="M877.917 363.124C877.436 363.124 877.046 363.514 877.046 363.994C877.046 364.475 877.436 364.865 877.917 364.865C878.398 364.865 878.787 364.475 878.787 363.994C878.787 363.514 878.398 363.124 877.917 363.124Z" fill="white"/>
<path opacity="0.35" d="M773.417 67.198C772.936 67.198 772.546 67.5877 772.546 68.0684C772.546 68.549 772.936 68.9387 773.417 68.9387C773.898 68.9387 774.287 68.549 774.287 68.0684C774.287 67.5877 773.898 67.198 773.417 67.198Z" fill="white"/>
<path opacity="0.35" d="M686.333 711.272C685.852 711.272 685.462 711.662 685.462 712.142C685.462 712.623 685.852 713.013 686.333 713.013C686.814 713.013 687.204 712.623 687.204 712.142C687.204 711.662 686.814 711.272 686.333 711.272Z" fill="white"/>
<path opacity="0.35" d="M547 49.7904C546.519 49.7904 546.129 50.1801 546.129 50.6608C546.129 51.1415 546.519 51.5312 547 51.5312C547.481 51.5312 547.871 51.1415 547.871 50.6608C547.871 50.1801 547.481 49.7904 547 49.7904Z" fill="white"/>
<path opacity="0.35" d="M425.083 624.235C424.602 624.235 424.212 624.625 424.212 625.105C424.212 625.586 424.602 625.976 425.083 625.976C425.564 625.976 425.954 625.586 425.954 625.105C425.954 624.625 425.564 624.235 425.083 624.235Z" fill="white"/>
<path opacity="0.35" d="M285.75 223.865C285.269 223.865 284.879 224.254 284.879 224.735C284.879 225.216 285.269 225.605 285.75 225.605C286.231 225.605 286.621 225.216 286.621 224.735C286.621 224.254 286.231 223.865 285.75 223.865Z" fill="white"/>
<path opacity="0.35" d="M129 458.864C128.519 458.864 128.129 459.254 128.129 459.735C128.129 460.216 128.519 460.605 129 460.605C129.481 460.605 129.871 460.216 129.871 459.735C129.871 459.254 129.481 458.864 129 458.864Z" fill="white"/>
<path opacity="0.35" d="M41.9167 119.42C41.4358 119.42 41.0459 119.81 41.0459 120.291C41.0459 120.771 41.4358 121.161 41.9167 121.161C42.3977 121.161 42.7875 120.771 42.7875 120.291C42.7875 119.81 42.3977 119.42 41.9167 119.42Z" fill="white"/>
<path opacity="0.6" d="M1410.75 998.18C1409.79 998.18 1409.01 998.959 1409.01 999.92C1409.01 1000.88 1409.79 1001.66 1410.75 1001.66C1411.71 1001.66 1412.49 1000.88 1412.49 999.92C1412.49 998.959 1411.71 998.18 1410.75 998.18Z" fill="white"/>
<path opacity="0.6" d="M1149.5 406.328C1148.54 406.328 1147.76 407.107 1147.76 408.068C1147.76 409.03 1148.54 409.809 1149.5 409.809C1150.46 409.809 1151.24 409.03 1151.24 408.068C1151.24 407.107 1150.46 406.328 1149.5 406.328Z" fill="white"/>
<path opacity="0.6" d="M818.583 911.142C817.622 911.142 816.842 911.922 816.842 912.883C816.842 913.845 817.622 914.624 818.583 914.624C819.545 914.624 820.325 913.845 820.325 912.883C820.325 911.922 819.545 911.142 818.583 911.142Z" fill="white"/>
<path opacity="0.6" d="M522.5 510.772C521.538 510.772 520.758 511.551 520.758 512.513C520.758 513.474 521.538 514.253 522.5 514.253C523.462 514.253 524.242 513.474 524.242 512.513C524.242 511.551 523.462 510.772 522.5 510.772Z" fill="white"/>
<path opacity="0.6" d="M191.583 1015.59C190.622 1015.59 189.842 1016.37 189.842 1017.33C189.842 1018.29 190.622 1019.07 191.583 1019.07C192.545 1019.07 193.325 1018.29 193.325 1017.33C193.325 1016.37 192.545 1015.59 191.583 1015.59Z" fill="white"/>
<path opacity="0.9" d="M625.692 1547.1C624.256 1546.96 622.979 1548.01 622.84 1549.45C622.701 1550.88 623.753 1552.16 625.189 1552.3C626.625 1552.44 627.902 1551.39 628.041 1549.95C628.18 1548.52 627.128 1547.24 625.692 1547.1Z" fill="white"/>
<path opacity="0.9" d="M1155.21 1318.96C1154.01 1318.84 1152.95 1319.72 1152.83 1320.91C1152.72 1322.11 1153.59 1323.17 1154.79 1323.29C1155.99 1323.4 1157.05 1322.53 1157.17 1321.33C1157.28 1320.14 1156.41 1319.07 1155.21 1318.96Z" fill="white"/>
<path d="M509.104 1666.99C507.667 1666.85 506.391 1667.9 506.252 1669.33C506.113 1670.77 507.164 1672.04 508.601 1672.18C510.037 1672.32 511.314 1671.27 511.452 1669.84C511.591 1668.4 510.54 1667.12 509.104 1666.99Z" fill="#00F0FF"/>
<path opacity="0.9" d="M491.566 695.299C492.197 693.367 491.618 690.618 490.272 689.158C488.926 687.698 487.323 688.081 486.692 690.012C486.061 691.943 486.64 694.692 487.986 696.152C489.332 697.612 490.935 697.23 491.566 695.299Z" fill="white"/>
<path opacity="0.9" d="M472.08 1683.45C472.606 1681.84 472.123 1679.55 471.002 1678.34C469.88 1677.12 468.544 1677.44 468.018 1679.05C467.492 1680.66 467.975 1682.95 469.097 1684.16C470.218 1685.38 471.554 1685.06 472.08 1683.45Z" fill="white"/>
<path d="M432.849 426.778C433.48 424.847 432.901 422.097 431.555 420.638C430.209 419.178 428.606 419.56 427.975 421.491C427.343 423.423 427.923 426.172 429.269 427.632C430.615 429.091 432.217 428.709 432.849 426.778Z" fill="#00F0FF"/>
<path opacity="0.6" d="M11.3033 1105.63C12.2277 1105.37 12.7616 1104.4 12.4958 1103.48C12.23 1102.56 11.2652 1102.02 10.3408 1102.29C9.41637 1102.55 8.88246 1103.52 9.14826 1104.44C9.41405 1105.37 10.3789 1105.9 11.3033 1105.63Z" fill="white"/>
<path opacity="0.6" d="M426 1602.19C426.925 1601.92 427.459 1600.96 427.193 1600.03C426.927 1599.11 425.962 1598.58 425.038 1598.84C424.113 1599.11 423.579 1600.07 423.845 1601C424.111 1601.92 425.076 1602.45 426 1602.19Z" fill="white"/>
<path opacity="0.6" d="M604.452 1025.56C605.376 1025.3 605.91 1024.33 605.644 1023.41C605.379 1022.48 604.414 1021.95 603.489 1022.22C602.565 1022.48 602.031 1023.45 602.297 1024.37C602.563 1025.29 603.527 1025.83 604.452 1025.56Z" fill="white"/>
<path opacity="0.6" d="M999.685 1328.47C1000.61 1328.2 1001.14 1327.24 1000.88 1326.31C1000.61 1325.39 999.647 1324.86 998.723 1325.12C997.798 1325.39 997.265 1326.35 997.53 1327.28C997.796 1328.2 998.761 1328.73 999.685 1328.47Z" fill="white"/>
<path opacity="0.6" d="M1178.14 751.84C1179.06 751.574 1179.6 750.61 1179.33 749.686C1179.06 748.762 1178.1 748.229 1177.17 748.495C1176.25 748.76 1175.72 749.725 1175.98 750.649C1176.25 751.573 1177.21 752.106 1178.14 751.84Z" fill="white"/>
<path opacity="0.35" d="M346.131 1456.07C346.372 1455.65 346.229 1455.12 345.813 1454.88C345.397 1454.64 344.864 1454.78 344.624 1455.2C344.383 1455.61 344.526 1456.14 344.942 1456.39C345.359 1456.63 345.891 1456.48 346.131 1456.07Z" fill="white"/>
<path opacity="0.35" d="M564.209 1461.31C564.45 1460.89 564.307 1460.36 563.891 1460.12C563.475 1459.88 562.942 1460.02 562.702 1460.44C562.461 1460.85 562.604 1461.39 563.02 1461.63C563.436 1461.87 563.969 1461.72 564.209 1461.31Z" fill="white"/>
<path opacity="0.35" d="M952.469 1554.75C952.71 1554.33 952.567 1553.8 952.151 1553.56C951.735 1553.32 951.202 1553.46 950.962 1553.88C950.721 1554.29 950.864 1554.83 951.28 1555.07C951.696 1555.31 952.229 1555.16 952.469 1554.75Z" fill="white"/>
<path opacity="0.35" d="M1144.75 1535.04C1144.99 1534.62 1144.85 1534.09 1144.43 1533.85C1144.02 1533.61 1143.48 1533.75 1143.24 1534.17C1143 1534.59 1143.15 1535.12 1143.56 1535.36C1143.98 1535.6 1144.51 1535.46 1144.75 1535.04Z" fill="white"/>
<path opacity="0.35" d="M649.095 1087.98C649.336 1087.57 649.193 1087.04 648.777 1086.79C648.36 1086.55 647.828 1086.7 647.588 1087.11C647.347 1087.53 647.49 1088.06 647.906 1088.3C648.322 1088.54 648.855 1088.4 649.095 1087.98Z" fill="white"/>
<path opacity="0.35" d="M958.795 1126.01C959.036 1125.6 958.893 1125.06 958.477 1124.82C958.06 1124.58 957.528 1124.73 957.288 1125.14C957.047 1125.56 957.19 1126.09 957.606 1126.33C958.022 1126.57 958.555 1126.43 958.795 1126.01Z" fill="white"/>
<path opacity="0.35" d="M1267.32 1183.48C1267.57 1183.06 1267.42 1182.53 1267.01 1182.29C1266.59 1182.05 1266.06 1182.19 1265.82 1182.61C1265.58 1183.02 1265.72 1183.55 1266.14 1183.79C1266.55 1184.04 1267.08 1183.89 1267.32 1183.48Z" fill="white"/>
<path opacity="0.35" d="M753.082 786.022C753.322 785.606 753.18 785.073 752.763 784.833C752.347 784.593 751.815 784.735 751.574 785.152C751.334 785.568 751.476 786.101 751.892 786.341C752.309 786.582 752.841 786.439 753.082 786.022Z" fill="white"/>
<path opacity="0.35" d="M1395.61 996.097C1395.85 995.68 1395.71 995.148 1395.29 994.907C1394.87 994.667 1394.34 994.81 1394.1 995.226C1393.86 995.643 1394 996.175 1394.42 996.416C1394.84 996.656 1395.37 996.513 1395.61 996.097Z" fill="white"/>
<path opacity="0.35" d="M959.083 603.292C959.323 602.875 959.181 602.343 958.765 602.102C958.348 601.862 957.816 602.005 957.575 602.421C957.335 602.838 957.477 603.37 957.894 603.611C958.31 603.851 958.842 603.708 959.083 603.292Z" fill="white"/>
<path opacity="0.35" d="M1375.48 682.811C1375.72 682.394 1375.58 681.862 1375.16 681.621C1374.75 681.381 1374.21 681.524 1373.97 681.94C1373.73 682.357 1373.87 682.889 1374.29 683.13C1374.71 683.37 1375.24 683.227 1375.48 682.811Z" fill="white"/>
<path opacity="0.35" d="M1250.34 429.561C1250.58 429.145 1250.44 428.612 1250.02 428.372C1249.61 428.131 1249.07 428.274 1248.83 428.691C1248.59 429.107 1248.73 429.64 1249.15 429.88C1249.57 430.12 1250.1 429.978 1250.34 429.561Z" fill="white"/>
<path opacity="0.35" d="M1587.85 523.867C1588.09 523.45 1587.95 522.918 1587.53 522.678C1587.11 522.437 1586.58 522.58 1586.34 522.997C1586.1 523.413 1586.24 523.946 1586.66 524.186C1587.08 524.426 1587.61 524.284 1587.85 523.867Z" fill="white"/>
<path opacity="0.35" d="M680.58 1556.78C680.821 1556.37 680.678 1555.84 680.262 1555.59C679.846 1555.35 679.313 1555.5 679.073 1555.91C678.832 1556.33 678.975 1556.86 679.391 1557.1C679.807 1557.34 680.34 1557.2 680.58 1556.78Z" fill="white"/>
<path opacity="0.35" d="M898.658 1562.03C898.898 1561.61 898.756 1561.08 898.34 1560.84C897.923 1560.6 897.391 1560.74 897.15 1561.15C896.91 1561.57 897.052 1562.1 897.469 1562.34C897.885 1562.58 898.417 1562.44 898.658 1562.03Z" fill="white"/>
<path opacity="0.35" d="M1286.92 1655.47C1287.16 1655.05 1287.02 1654.52 1286.6 1654.28C1286.18 1654.04 1285.65 1654.18 1285.41 1654.6C1285.17 1655.01 1285.31 1655.54 1285.73 1655.78C1286.14 1656.02 1286.68 1655.88 1286.92 1655.47Z" fill="white"/>
<path opacity="0.35" d="M1479.2 1635.76C1479.44 1635.34 1479.3 1634.81 1478.88 1634.57C1478.46 1634.33 1477.93 1634.47 1477.69 1634.89C1477.45 1635.3 1477.59 1635.84 1478.01 1636.08C1478.43 1636.32 1478.96 1636.17 1479.2 1635.76Z" fill="white"/>
<path opacity="0.35" d="M983.544 1188.7C983.784 1188.29 983.642 1187.75 983.225 1187.51C982.809 1187.27 982.277 1187.42 982.036 1187.83C981.796 1188.25 981.938 1188.78 982.355 1189.02C982.771 1189.26 983.303 1189.12 983.544 1188.7Z" fill="white"/>
<path opacity="0.35" d="M1293.24 1226.73C1293.48 1226.31 1293.34 1225.78 1292.93 1225.54C1292.51 1225.3 1291.98 1225.44 1291.74 1225.86C1291.5 1226.28 1291.64 1226.81 1292.05 1227.05C1292.47 1227.29 1293 1227.15 1293.24 1226.73Z" fill="white"/>
<path opacity="0.35" d="M1601.77 1284.19C1602.01 1283.78 1601.87 1283.24 1601.45 1283C1601.04 1282.76 1600.51 1282.91 1600.27 1283.32C1600.03 1283.74 1600.17 1284.27 1600.58 1284.51C1601 1284.75 1601.53 1284.61 1601.77 1284.19Z" fill="white"/>
<path opacity="0.35" d="M1087.53 886.74C1087.77 886.324 1087.63 885.791 1087.21 885.551C1086.8 885.311 1086.26 885.453 1086.02 885.87C1085.78 886.286 1085.92 886.819 1086.34 887.059C1086.76 887.3 1087.29 887.157 1087.53 886.74Z" fill="white"/>
<path opacity="0.35" d="M1293.53 704.01C1293.77 703.593 1293.63 703.061 1293.21 702.82C1292.8 702.58 1292.26 702.723 1292.02 703.139C1291.78 703.556 1291.93 704.088 1292.34 704.329C1292.76 704.569 1293.29 704.426 1293.53 704.01Z" fill="white"/>
<path opacity="0.35" d="M1709.93 783.529C1710.17 783.112 1710.03 782.58 1709.61 782.339C1709.19 782.099 1708.66 782.242 1708.42 782.658C1708.18 783.075 1708.32 783.607 1708.74 783.848C1709.16 784.088 1709.69 783.945 1709.93 783.529Z" fill="white"/>
<path opacity="0.35" d="M1584.79 530.279C1585.03 529.863 1584.89 529.33 1584.47 529.09C1584.05 528.849 1583.52 528.992 1583.28 529.409C1583.04 529.825 1583.18 530.358 1583.6 530.598C1584.02 530.838 1584.55 530.696 1584.79 530.279Z" fill="white"/>
<path opacity="0.6" d="M476.853 1370.65C477.334 1369.82 477.049 1368.75 476.216 1368.27C475.384 1367.79 474.319 1368.08 473.838 1368.91C473.357 1369.74 473.642 1370.81 474.475 1371.29C475.307 1371.77 476.372 1371.48 476.853 1370.65Z" fill="white"/>
<path opacity="0.6" d="M1120.04 1440.33C1120.52 1439.49 1120.23 1438.43 1119.4 1437.95C1118.57 1437.47 1117.5 1437.75 1117.02 1438.59C1116.54 1439.42 1116.83 1440.48 1117.66 1440.96C1118.49 1441.45 1119.56 1441.16 1120.04 1440.33Z" fill="white"/>
<path opacity="0.6" d="M848.313 901.337C848.793 900.504 848.508 899.439 847.676 898.958C846.843 898.478 845.778 898.763 845.297 899.596C844.817 900.429 845.102 901.494 845.934 901.975C846.767 902.456 847.832 902.17 848.313 901.337Z" fill="white"/>
<path opacity="0.6" d="M1343.09 845.106C1343.57 844.273 1343.28 843.208 1342.45 842.728C1341.62 842.247 1340.55 842.533 1340.07 843.366C1339.59 844.199 1339.87 845.264 1340.71 845.744C1341.54 846.225 1342.6 845.939 1343.09 845.106Z" fill="white"/>
<path opacity="0.6" d="M1071.36 306.117C1071.84 305.284 1071.56 304.219 1070.72 303.738C1069.89 303.257 1068.83 303.543 1068.35 304.376C1067.86 305.209 1068.15 306.274 1068.98 306.755C1069.82 307.235 1070.88 306.95 1071.36 306.117Z" fill="white"/>
<path opacity="0.9" d="M394.002 416.309C394.84 415.135 394.568 413.503 393.395 412.665C392.221 411.827 390.59 412.1 389.752 413.274C388.913 414.448 389.185 416.08 390.359 416.918C391.532 417.756 393.163 417.483 394.002 416.309Z" fill="white"/>
<path opacity="0.9" d="M326.821 988.957C327.52 987.979 327.293 986.619 326.315 985.921C325.337 985.223 323.978 985.45 323.279 986.429C322.581 987.407 322.807 988.766 323.785 989.465C324.763 990.163 326.123 989.936 326.821 988.957Z" fill="white"/>
<path d="M348.473 255.398C349.312 254.224 349.04 252.593 347.867 251.755C346.693 250.917 345.062 251.189 344.223 252.364C343.385 253.538 343.657 255.169 344.83 256.007C346.004 256.845 347.635 256.573 348.473 255.398Z" fill="#00F0FF"/>
<path opacity="0.9" d="M1198.75 726.053C1200.1 727.566 1202.78 728.439 1204.71 728.003C1206.65 727.567 1207.12 725.988 1205.76 724.476C1204.41 722.963 1201.74 722.09 1199.8 722.526C1197.86 722.962 1197.39 724.541 1198.75 726.053Z" fill="white"/>
<path opacity="0.9" d="M352.724 215.101C353.855 216.362 356.08 217.089 357.695 216.726C359.309 216.363 359.701 215.047 358.57 213.786C357.44 212.526 355.214 211.799 353.6 212.162C351.985 212.525 351.593 213.841 352.724 215.101Z" fill="white"/>
<path d="M1460.65 809.463C1462.01 810.975 1464.68 811.848 1466.62 811.413C1468.55 810.977 1469.02 809.398 1467.67 807.885C1466.31 806.373 1463.64 805.5 1461.7 805.936C1459.77 806.372 1459.29 807.951 1460.65 809.463Z" fill="#00F0FF"/>
<path opacity="0.35" d="M1244.48 1940.09C1244.72 1939.67 1244.58 1939.14 1244.16 1938.9C1243.74 1938.66 1243.21 1938.8 1242.97 1939.22C1242.73 1939.63 1242.87 1940.16 1243.29 1940.4C1243.7 1940.64 1244.24 1940.5 1244.48 1940.09Z" fill="white"/>
<path opacity="0.35" d="M1462.56 1945.33C1462.8 1944.91 1462.65 1944.38 1462.24 1944.14C1461.82 1943.9 1461.29 1944.04 1461.05 1944.46C1460.81 1944.87 1460.95 1945.41 1461.37 1945.65C1461.78 1945.89 1462.32 1945.74 1462.56 1945.33Z" fill="white"/>
<path opacity="0.35" d="M1547.44 1572C1547.68 1571.59 1547.54 1571.05 1547.12 1570.81C1546.71 1570.57 1546.17 1570.72 1545.93 1571.13C1545.69 1571.55 1545.84 1572.08 1546.25 1572.32C1546.67 1572.56 1547.2 1572.42 1547.44 1572Z" fill="white"/>
<path opacity="0.35" d="M1651.43 1270.04C1651.67 1269.63 1651.53 1269.09 1651.11 1268.85C1650.69 1268.61 1650.16 1268.75 1649.92 1269.17C1649.68 1269.59 1649.82 1270.12 1650.24 1270.36C1650.65 1270.6 1651.19 1270.46 1651.43 1270.04Z" fill="white"/>
<path opacity="0.6" d="M292.335 1044.63C293.26 1044.36 293.794 1043.4 293.528 1042.48C293.262 1041.55 292.297 1041.02 291.373 1041.28C290.448 1041.55 289.915 1042.52 290.18 1043.44C290.446 1044.36 291.411 1044.9 292.335 1044.63Z" fill="white"/>
<path opacity="0.6" d="M707.032 1541.19C707.957 1540.92 708.491 1539.95 708.225 1539.03C707.959 1538.11 706.994 1537.57 706.07 1537.84C705.145 1538.11 704.612 1539.07 704.877 1539.99C705.143 1540.92 706.108 1541.45 707.032 1541.19Z" fill="white"/>
<path opacity="0.6" d="M885.484 964.558C886.408 964.292 886.942 963.328 886.676 962.404C886.411 961.48 885.446 960.946 884.521 961.212C883.597 961.478 883.063 962.443 883.329 963.367C883.595 964.291 884.56 964.824 885.484 964.558Z" fill="white"/>
<path opacity="0.6" d="M1280.72 1267.46C1281.64 1267.2 1282.18 1266.23 1281.91 1265.31C1281.64 1264.39 1280.68 1263.85 1279.76 1264.12C1278.83 1264.38 1278.3 1265.35 1278.56 1266.27C1278.83 1267.2 1279.79 1267.73 1280.72 1267.46Z" fill="white"/>
<path opacity="0.6" d="M1459.17 690.837C1460.09 690.571 1460.63 689.607 1460.36 688.683C1460.1 687.759 1459.13 687.226 1458.21 687.492C1457.28 687.758 1456.75 688.722 1457.01 689.646C1457.28 690.57 1458.24 691.103 1459.17 690.837Z" fill="white"/>
<path opacity="0.35" d="M627.164 1395.06C627.404 1394.65 627.262 1394.11 626.845 1393.87C626.429 1393.63 625.897 1393.78 625.656 1394.19C625.416 1394.61 625.558 1395.14 625.974 1395.38C626.391 1395.62 626.923 1395.48 627.164 1395.06Z" fill="white"/>
<path opacity="0.35" d="M845.241 1400.3C845.482 1399.89 845.339 1399.36 844.923 1399.11C844.507 1398.87 843.974 1399.02 843.734 1399.43C843.493 1399.85 843.636 1400.38 844.052 1400.62C844.469 1400.86 845.001 1400.72 845.241 1400.3Z" fill="white"/>
<path opacity="0.35" d="M1233.5 1493.74C1233.74 1493.33 1233.6 1492.8 1233.18 1492.56C1232.77 1492.31 1232.23 1492.46 1231.99 1492.87C1231.75 1493.29 1231.9 1493.82 1232.31 1494.06C1232.73 1494.3 1233.26 1494.16 1233.5 1493.74Z" fill="white"/>
<path opacity="0.35" d="M1425.78 1474.04C1426.02 1473.62 1425.88 1473.09 1425.46 1472.85C1425.05 1472.61 1424.52 1472.75 1424.28 1473.17C1424.03 1473.58 1424.18 1474.12 1424.59 1474.36C1425.01 1474.6 1425.54 1474.45 1425.78 1474.04Z" fill="white"/>
<path opacity="0.35" d="M930.127 1026.98C930.368 1026.56 930.225 1026.03 929.809 1025.79C929.393 1025.55 928.86 1025.69 928.62 1026.11C928.379 1026.53 928.522 1027.06 928.938 1027.3C929.354 1027.54 929.887 1027.4 930.127 1026.98Z" fill="white"/>
<path opacity="0.35" d="M1239.83 1065.01C1240.07 1064.59 1239.93 1064.06 1239.51 1063.82C1239.09 1063.58 1238.56 1063.72 1238.32 1064.14C1238.08 1064.56 1238.22 1065.09 1238.64 1065.33C1239.05 1065.57 1239.59 1065.43 1239.83 1065.01Z" fill="white"/>
<path opacity="0.35" d="M1548.36 1122.47C1548.6 1122.06 1548.45 1121.52 1548.04 1121.28C1547.62 1121.04 1547.09 1121.19 1546.85 1121.6C1546.61 1122.02 1546.75 1122.55 1547.17 1122.79C1547.58 1123.03 1548.12 1122.89 1548.36 1122.47Z" fill="white"/>
<path opacity="0.35" d="M1034.11 725.019C1034.35 724.603 1034.21 724.07 1033.8 723.83C1033.38 723.59 1032.85 723.733 1032.61 724.149C1032.37 724.566 1032.51 725.098 1032.92 725.338C1033.34 725.579 1033.87 725.436 1034.11 725.019Z" fill="white"/>
<path opacity="0.35" d="M1676.64 935.094C1676.88 934.677 1676.74 934.145 1676.32 933.905C1675.91 933.664 1675.37 933.807 1675.13 934.223C1674.89 934.64 1675.03 935.173 1675.45 935.413C1675.87 935.653 1676.4 935.51 1676.64 935.094Z" fill="white"/>
<path opacity="0.35" d="M1240.12 542.289C1240.36 541.872 1240.21 541.34 1239.8 541.099C1239.38 540.859 1238.85 541.002 1238.61 541.418C1238.37 541.835 1238.51 542.367 1238.93 542.608C1239.34 542.848 1239.87 542.705 1240.12 542.289Z" fill="white"/>
<path opacity="0.35" d="M1656.51 621.808C1656.75 621.391 1656.61 620.859 1656.19 620.618C1655.78 620.378 1655.25 620.521 1655 620.937C1654.76 621.354 1654.91 621.886 1655.32 622.127C1655.74 622.367 1656.27 622.224 1656.51 621.808Z" fill="white"/>
<path opacity="0.35" d="M1531.37 368.558C1531.61 368.142 1531.47 367.609 1531.05 367.369C1530.64 367.128 1530.1 367.271 1529.86 367.688C1529.62 368.104 1529.77 368.637 1530.18 368.877C1530.6 369.117 1531.13 368.975 1531.37 368.558Z" fill="white"/>
<path opacity="0.35" d="M961.612 1495.78C961.853 1495.36 961.71 1494.83 961.294 1494.59C960.878 1494.35 960.345 1494.49 960.105 1494.91C959.864 1495.33 960.007 1495.86 960.423 1496.1C960.839 1496.34 961.372 1496.2 961.612 1495.78Z" fill="white"/>
<path opacity="0.35" d="M1179.69 1501.02C1179.93 1500.61 1179.79 1500.07 1179.37 1499.83C1178.96 1499.59 1178.42 1499.74 1178.18 1500.15C1177.94 1500.57 1178.08 1501.1 1178.5 1501.34C1178.92 1501.58 1179.45 1501.44 1179.69 1501.02Z" fill="white"/>
<path opacity="0.35" d="M1567.95 1594.46C1568.19 1594.05 1568.05 1593.51 1567.63 1593.27C1567.22 1593.03 1566.68 1593.18 1566.44 1593.59C1566.2 1594.01 1566.34 1594.54 1566.76 1594.78C1567.18 1595.02 1567.71 1594.88 1567.95 1594.46Z" fill="white"/>
<path opacity="0.35" d="M1264.58 1127.7C1264.82 1127.28 1264.67 1126.75 1264.26 1126.51C1263.84 1126.27 1263.31 1126.41 1263.07 1126.83C1262.83 1127.25 1262.97 1127.78 1263.39 1128.02C1263.8 1128.26 1264.34 1128.12 1264.58 1127.7Z" fill="white"/>
<path opacity="0.35" d="M1574.28 1165.73C1574.52 1165.31 1574.37 1164.78 1573.96 1164.54C1573.54 1164.3 1573.01 1164.44 1572.77 1164.86C1572.53 1165.27 1572.67 1165.81 1573.09 1166.05C1573.5 1166.29 1574.04 1166.14 1574.28 1165.73Z" fill="white"/>
<path opacity="0.35" d="M1368.56 825.737C1368.8 825.321 1368.66 824.788 1368.24 824.548C1367.83 824.308 1367.3 824.451 1367.06 824.867C1366.81 825.284 1366.96 825.816 1367.37 826.056C1367.79 826.297 1368.32 826.154 1368.56 825.737Z" fill="white"/>
<path opacity="0.35" d="M1574.56 643.007C1574.8 642.59 1574.66 642.058 1574.25 641.817C1573.83 641.577 1573.3 641.72 1573.06 642.136C1572.82 642.553 1572.96 643.085 1573.37 643.326C1573.79 643.566 1574.32 643.423 1574.56 643.007Z" fill="white"/>
<path opacity="0.6" d="M757.885 1309.65C758.366 1308.81 758.081 1307.75 757.248 1307.27C756.416 1306.79 755.351 1307.07 754.87 1307.91C754.389 1308.74 754.674 1309.8 755.507 1310.28C756.339 1310.77 757.404 1310.48 757.885 1309.65Z" fill="white"/>
<path opacity="0.6" d="M1401.07 1379.32C1401.55 1378.49 1401.26 1377.43 1400.43 1376.95C1399.6 1376.46 1398.53 1376.75 1398.05 1377.58C1397.57 1378.42 1397.86 1379.48 1398.69 1379.96C1399.52 1380.44 1400.59 1380.16 1401.07 1379.32Z" fill="white"/>
<path opacity="0.6" d="M1129.34 840.334C1129.83 839.501 1129.54 838.436 1128.71 837.955C1127.88 837.475 1126.81 837.76 1126.33 838.593C1125.85 839.426 1126.13 840.491 1126.97 840.972C1127.8 841.453 1128.86 841.167 1129.34 840.334Z" fill="white"/>
<path opacity="0.6" d="M1624.12 784.104C1624.6 783.27 1624.31 782.206 1623.48 781.725C1622.65 781.244 1621.58 781.53 1621.1 782.363C1620.62 783.196 1620.91 784.261 1621.74 784.741C1622.57 785.222 1623.64 784.937 1624.12 784.104Z" fill="white"/>
<path opacity="0.6" d="M1352.39 245.114C1352.87 244.281 1352.59 243.216 1351.76 242.735C1350.92 242.254 1349.86 242.54 1349.38 243.373C1348.9 244.206 1349.18 245.271 1350.01 245.752C1350.85 246.233 1351.91 245.947 1352.39 245.114Z" fill="white"/>
<path opacity="0.9" d="M675.034 355.306C675.872 354.132 675.6 352.5 674.427 351.662C673.253 350.824 671.622 351.097 670.784 352.271C669.945 353.446 670.217 355.077 671.391 355.915C672.564 356.753 674.195 356.48 675.034 355.306Z" fill="white"/>
<path opacity="0.9" d="M607.853 927.954C608.552 926.976 608.326 925.616 607.348 924.918C606.369 924.22 605.01 924.447 604.312 925.426C603.613 926.404 603.839 927.763 604.817 928.462C605.795 929.16 607.155 928.933 607.853 927.954Z" fill="white"/>
<path d="M629.506 194.395C630.344 193.221 630.072 191.59 628.899 190.752C627.725 189.914 626.094 190.187 625.256 191.361C624.417 192.535 624.689 194.166 625.862 195.004C627.036 195.842 628.667 195.57 629.506 194.395Z" fill="#00F0FF"/>
<path opacity="0.9" d="M1479.78 665.05C1481.14 666.563 1483.81 667.436 1485.74 667C1487.68 666.564 1488.15 664.985 1486.79 663.473C1485.44 661.96 1482.77 661.087 1480.83 661.523C1478.89 661.959 1478.42 663.538 1479.78 665.05Z" fill="white"/>
<path opacity="0.9" d="M633.756 154.098C634.887 155.359 637.113 156.086 638.727 155.723C640.341 155.36 640.733 154.044 639.602 152.783C638.472 151.523 636.246 150.796 634.632 151.159C633.017 151.522 632.625 152.838 633.756 154.098Z" fill="white"/>
<path opacity="0.35" d="M1525.51 1879.08C1525.75 1878.67 1525.61 1878.13 1525.19 1877.89C1524.77 1877.65 1524.24 1877.8 1524 1878.21C1523.76 1878.63 1523.9 1879.16 1524.32 1879.4C1524.74 1879.64 1525.27 1879.5 1525.51 1879.08Z" fill="white"/>
<path opacity="0.6" d="M356.032 1071.19C356.957 1070.93 357.491 1069.96 357.225 1069.04C356.959 1068.11 355.994 1067.58 355.07 1067.85C354.145 1068.11 353.612 1069.08 353.877 1070C354.143 1070.92 355.108 1071.46 356.032 1071.19Z" fill="white"/>
<path opacity="0.6" d="M534.484 494.564C535.408 494.298 535.942 493.333 535.676 492.41C535.411 491.486 534.446 490.952 533.521 491.218C532.597 491.484 532.063 492.449 532.329 493.373C532.595 494.297 533.56 494.83 534.484 494.564Z" fill="white"/>
<path opacity="0.6" d="M929.717 797.47C930.642 797.204 931.176 796.24 930.91 795.316C930.644 794.392 929.679 793.859 928.755 794.125C927.831 794.39 927.297 795.355 927.562 796.279C927.828 797.203 928.793 797.736 929.717 797.47Z" fill="white"/>
<path opacity="0.6" d="M1108.17 220.843C1109.09 220.577 1109.63 219.613 1109.36 218.689C1109.1 217.765 1108.13 217.231 1107.21 217.497C1106.28 217.763 1105.75 218.728 1106.01 219.652C1106.28 220.576 1107.24 221.109 1108.17 220.843Z" fill="white"/>
<path opacity="0.35" d="M276.164 925.069C276.404 924.652 276.262 924.12 275.845 923.88C275.429 923.639 274.897 923.782 274.656 924.199C274.416 924.615 274.558 925.148 274.974 925.388C275.391 925.628 275.923 925.485 276.164 925.069Z" fill="white"/>
<path opacity="0.35" d="M494.241 930.31C494.482 929.894 494.339 929.361 493.923 929.121C493.507 928.88 492.974 929.023 492.734 929.44C492.493 929.856 492.636 930.389 493.052 930.629C493.469 930.869 494.001 930.727 494.241 930.31Z" fill="white"/>
<path opacity="0.35" d="M882.501 1023.75C882.742 1023.33 882.599 1022.8 882.183 1022.56C881.767 1022.32 881.234 1022.46 880.994 1022.88C880.753 1023.3 880.896 1023.83 881.312 1024.07C881.729 1024.31 882.261 1024.17 882.501 1023.75Z" fill="white"/>
<path opacity="0.35" d="M1074.78 1004.04C1075.02 1003.63 1074.88 1003.09 1074.46 1002.85C1074.05 1002.61 1073.52 1002.76 1073.28 1003.17C1073.03 1003.59 1073.18 1004.12 1073.59 1004.36C1074.01 1004.6 1074.54 1004.46 1074.78 1004.04Z" fill="white"/>
<path opacity="0.35" d="M579.127 556.987C579.368 556.571 579.225 556.038 578.809 555.798C578.393 555.557 577.86 555.7 577.62 556.117C577.379 556.533 577.522 557.066 577.938 557.306C578.354 557.547 578.887 557.404 579.127 556.987Z" fill="white"/>
<path opacity="0.35" d="M888.827 595.015C889.068 594.599 888.925 594.066 888.509 593.826C888.093 593.586 887.56 593.728 887.32 594.145C887.079 594.562 887.222 595.094 887.638 595.334C888.054 595.575 888.587 595.432 888.827 595.015Z" fill="white"/>
<path opacity="0.35" d="M1197.36 652.479C1197.6 652.062 1197.45 651.53 1197.04 651.289C1196.62 651.049 1196.09 651.192 1195.85 651.608C1195.61 652.025 1195.75 652.557 1196.17 652.798C1196.58 653.038 1197.12 652.895 1197.36 652.479Z" fill="white"/>
<path opacity="0.35" d="M683.114 255.025C683.354 254.609 683.212 254.076 682.795 253.836C682.379 253.596 681.847 253.738 681.606 254.155C681.366 254.571 681.508 255.104 681.925 255.344C682.341 255.585 682.873 255.442 683.114 255.025Z" fill="white"/>
<path opacity="0.35" d="M1325.64 465.1C1325.88 464.683 1325.74 464.151 1325.32 463.91C1324.91 463.67 1324.37 463.813 1324.13 464.229C1323.89 464.646 1324.03 465.178 1324.45 465.419C1324.87 465.659 1325.4 465.516 1325.64 465.1Z" fill="white"/>
<path opacity="0.35" d="M889.115 72.2947C889.356 71.8782 889.213 71.3457 888.797 71.1053C888.381 70.865 887.848 71.0078 887.608 71.4243C887.367 71.8408 887.51 72.3733 887.926 72.6137C888.342 72.854 888.875 72.7112 889.115 72.2947Z" fill="white"/>
<path opacity="0.35" d="M1305.51 151.814C1305.75 151.397 1305.61 150.865 1305.19 150.624C1304.78 150.384 1304.25 150.527 1304 150.943C1303.76 151.36 1303.91 151.892 1304.32 152.133C1304.74 152.373 1305.27 152.23 1305.51 151.814Z" fill="white"/>
<path opacity="0.35" d="M610.612 1025.79C610.853 1025.37 610.71 1024.84 610.294 1024.6C609.878 1024.36 609.345 1024.5 609.105 1024.92C608.864 1025.33 609.007 1025.87 609.423 1026.11C609.839 1026.35 610.372 1026.2 610.612 1025.79Z" fill="white"/>
<path opacity="0.35" d="M828.69 1031.03C828.931 1030.61 828.788 1030.08 828.372 1029.84C827.955 1029.6 827.423 1029.74 827.183 1030.16C826.942 1030.57 827.085 1031.11 827.501 1031.35C827.917 1031.59 828.45 1031.44 828.69 1031.03Z" fill="white"/>
<path opacity="0.35" d="M1216.95 1124.47C1217.19 1124.05 1217.05 1123.52 1216.63 1123.28C1216.22 1123.04 1215.68 1123.18 1215.44 1123.6C1215.2 1124.01 1215.34 1124.55 1215.76 1124.79C1216.18 1125.03 1216.71 1124.88 1216.95 1124.47Z" fill="white"/>
<path opacity="0.35" d="M1409.23 1104.76C1409.47 1104.34 1409.33 1103.81 1408.91 1103.57C1408.5 1103.33 1407.96 1103.47 1407.72 1103.89C1407.48 1104.31 1407.63 1104.84 1408.04 1105.08C1408.46 1105.32 1408.99 1105.18 1409.23 1104.76Z" fill="white"/>
<path opacity="0.35" d="M913.576 657.705C913.816 657.289 913.674 656.756 913.258 656.516C912.841 656.276 912.309 656.418 912.068 656.835C911.828 657.251 911.971 657.784 912.387 658.024C912.803 658.265 913.336 658.122 913.576 657.705Z" fill="white"/>
<path opacity="0.35" d="M1223.28 695.733C1223.52 695.317 1223.37 694.784 1222.96 694.544C1222.54 694.304 1222.01 694.447 1221.77 694.863C1221.53 695.28 1221.67 695.812 1222.09 696.052C1222.5 696.293 1223.04 696.15 1223.28 695.733Z" fill="white"/>
<path opacity="0.35" d="M1531.81 753.197C1532.05 752.78 1531.9 752.248 1531.49 752.007C1531.07 751.767 1530.54 751.91 1530.3 752.326C1530.06 752.743 1530.2 753.275 1530.62 753.516C1531.03 753.756 1531.57 753.613 1531.81 753.197Z" fill="white"/>
<path opacity="0.35" d="M1017.56 355.743C1017.8 355.327 1017.66 354.794 1017.24 354.554C1016.83 354.314 1016.3 354.456 1016.06 354.873C1015.81 355.289 1015.96 355.822 1016.37 356.062C1016.79 356.303 1017.32 356.16 1017.56 355.743Z" fill="white"/>
<path opacity="0.35" d="M1660.09 565.818C1660.33 565.401 1660.19 564.869 1659.77 564.628C1659.35 564.388 1658.82 564.531 1658.58 564.947C1658.34 565.364 1658.48 565.896 1658.9 566.137C1659.32 566.377 1659.85 566.234 1660.09 565.818Z" fill="white"/>
<path opacity="0.35" d="M1223.56 173.013C1223.8 172.596 1223.66 172.064 1223.25 171.823C1222.83 171.583 1222.3 171.726 1222.06 172.142C1221.82 172.559 1221.96 173.091 1222.37 173.332C1222.79 173.572 1223.32 173.429 1223.56 173.013Z" fill="white"/>
<path opacity="0.35" d="M1639.96 252.532C1640.2 252.115 1640.06 251.583 1639.64 251.342C1639.23 251.102 1638.69 251.245 1638.45 251.661C1638.21 252.078 1638.36 252.61 1638.77 252.851C1639.19 253.091 1639.72 252.948 1639.96 252.532Z" fill="white"/>
<path opacity="0.35" d="M1514.82 -0.7179C1515.06 -1.13441 1514.92 -1.6669 1514.5 -1.90725C1514.09 -2.1476 1513.55 -2.00478 1513.31 -1.58827C1513.07 -1.17176 1513.22 -0.639267 1513.63 -0.398921C1514.05 -0.158575 1514.58 -0.301387 1514.82 -0.7179Z" fill="white"/>
<path opacity="0.6" d="M406.885 839.653C407.366 838.82 407.081 837.755 406.248 837.274C405.416 836.793 404.351 837.079 403.87 837.912C403.389 838.745 403.674 839.81 404.507 840.291C405.339 840.771 406.404 840.486 406.885 839.653Z" fill="white"/>
<path opacity="0.6" d="M1050.07 909.33C1050.55 908.497 1050.26 907.432 1049.43 906.951C1048.6 906.47 1047.53 906.756 1047.05 907.589C1046.57 908.422 1046.86 909.487 1047.69 909.968C1048.52 910.448 1049.59 910.163 1050.07 909.33Z" fill="white"/>
<path opacity="0.6" d="M778.345 370.34C778.826 369.507 778.541 368.442 777.708 367.961C776.875 367.481 775.811 367.766 775.33 368.599C774.849 369.432 775.134 370.497 775.966 370.978C776.799 371.459 777.864 371.173 778.345 370.34Z" fill="white"/>
<path opacity="0.6" d="M1273.12 314.109C1273.6 313.276 1273.31 312.211 1272.48 311.731C1271.65 311.25 1270.58 311.536 1270.1 312.369C1269.62 313.202 1269.91 314.267 1270.74 314.747C1271.57 315.228 1272.64 314.942 1273.12 314.109Z" fill="white"/>
<path opacity="0.9" d="M256.853 457.96C257.552 456.982 257.326 455.622 256.348 454.924C255.37 454.226 254.01 454.453 253.312 455.431C252.613 456.41 252.839 457.769 253.817 458.468C254.796 459.166 256.155 458.939 256.853 457.96Z" fill="white"/>
<path opacity="0.9" d="M1128.78 195.056C1130.14 196.569 1132.81 197.441 1134.74 197.006C1136.68 196.57 1137.15 194.991 1135.79 193.478C1134.44 191.966 1131.77 191.093 1129.83 191.529C1127.89 191.965 1127.42 193.544 1128.78 195.056Z" fill="white"/>
<path d="M1390.68 278.466C1392.04 279.978 1394.71 280.851 1396.65 280.415C1398.59 279.98 1399.06 278.4 1397.7 276.888C1396.34 275.376 1393.67 274.503 1391.73 274.939C1389.8 275.374 1389.33 276.954 1390.68 278.466Z" fill="#00F0FF"/>
<path opacity="0.35" d="M1174.51 1409.09C1174.75 1408.67 1174.61 1408.14 1174.19 1407.9C1173.78 1407.66 1173.24 1407.8 1173 1408.22C1172.76 1408.63 1172.9 1409.17 1173.32 1409.41C1173.74 1409.65 1174.27 1409.5 1174.51 1409.09Z" fill="white"/>
<path opacity="0.35" d="M1392.59 1414.33C1392.83 1413.91 1392.69 1413.38 1392.27 1413.14C1391.85 1412.9 1391.32 1413.04 1391.08 1413.46C1390.84 1413.88 1390.98 1414.41 1391.4 1414.65C1391.81 1414.89 1392.35 1414.75 1392.59 1414.33Z" fill="white"/>
<path opacity="0.35" d="M1477.47 1041.01C1477.71 1040.59 1477.57 1040.06 1477.16 1039.82C1476.74 1039.58 1476.21 1039.72 1475.97 1040.14C1475.73 1040.55 1475.87 1041.08 1476.28 1041.33C1476.7 1041.57 1477.23 1041.42 1477.47 1041.01Z" fill="white"/>
<path opacity="0.35" d="M1581.46 739.044C1581.7 738.628 1581.56 738.095 1581.14 737.855C1580.73 737.615 1580.19 737.758 1579.95 738.174C1579.71 738.591 1579.85 739.123 1580.27 739.363C1580.69 739.604 1581.22 739.461 1581.46 739.044Z" fill="white"/>
<path opacity="0.6" d="M128.032 1156.19C128.957 1155.92 129.491 1154.96 129.225 1154.04C128.959 1153.11 127.994 1152.58 127.07 1152.84C126.145 1153.11 125.612 1154.07 125.877 1155C126.143 1155.92 127.108 1156.46 128.032 1156.19Z" fill="white"/>
<path opacity="0.6" d="M306.484 579.563C307.408 579.297 307.942 578.332 307.676 577.408C307.411 576.484 306.446 575.951 305.521 576.217C304.597 576.483 304.063 577.447 304.329 578.371C304.595 579.295 305.56 579.828 306.484 579.563Z" fill="white"/>
<path opacity="0.6" d="M701.717 882.469C702.642 882.203 703.176 881.238 702.91 880.314C702.644 879.391 701.679 878.857 700.755 879.123C699.831 879.389 699.297 880.354 699.562 881.278C699.828 882.201 700.793 882.735 701.717 882.469Z" fill="white"/>
<path opacity="0.6" d="M880.169 305.842C881.094 305.576 881.627 304.611 881.362 303.687C881.096 302.763 880.131 302.23 879.207 302.496C878.282 302.762 877.748 303.726 878.014 304.65C878.28 305.574 879.245 306.108 880.169 305.842Z" fill="white"/>
<path opacity="0.35" d="M48.1636 1010.07C48.4041 1009.65 48.2616 1009.12 47.8453 1008.88C47.429 1008.64 46.8966 1008.78 46.6561 1009.2C46.4156 1009.61 46.5582 1010.15 46.9745 1010.39C47.3908 1010.63 47.9232 1010.48 48.1636 1010.07Z" fill="white"/>
<path opacity="0.35" d="M266.241 1015.31C266.482 1014.89 266.339 1014.36 265.923 1014.12C265.507 1013.88 264.974 1014.02 264.734 1014.44C264.493 1014.85 264.636 1015.39 265.052 1015.63C265.469 1015.87 266.001 1015.73 266.241 1015.31Z" fill="white"/>
<path opacity="0.35" d="M654.501 1108.75C654.742 1108.33 654.599 1107.8 654.183 1107.56C653.767 1107.32 653.234 1107.46 652.994 1107.88C652.753 1108.29 652.896 1108.83 653.312 1109.07C653.729 1109.31 654.261 1109.17 654.501 1108.75Z" fill="white"/>
<path opacity="0.35" d="M846.783 1089.04C847.023 1088.62 846.881 1088.09 846.464 1087.85C846.048 1087.61 845.516 1087.75 845.275 1088.17C845.035 1088.59 845.177 1089.12 845.594 1089.36C846.01 1089.6 846.542 1089.46 846.783 1089.04Z" fill="white"/>
<path opacity="0.35" d="M351.127 641.986C351.368 641.569 351.225 641.037 350.809 640.796C350.393 640.556 349.86 640.699 349.62 641.115C349.379 641.532 349.522 642.064 349.938 642.305C350.354 642.545 350.887 642.402 351.127 641.986Z" fill="white"/>
<path opacity="0.35" d="M660.827 680.014C661.068 679.597 660.925 679.065 660.509 678.825C660.093 678.584 659.56 678.727 659.32 679.144C659.079 679.56 659.222 680.093 659.638 680.333C660.054 680.573 660.587 680.43 660.827 680.014Z" fill="white"/>
<path opacity="0.35" d="M969.357 737.477C969.597 737.061 969.455 736.528 969.038 736.288C968.622 736.047 968.09 736.19 967.849 736.607C967.609 737.023 967.751 737.556 968.168 737.796C968.584 738.036 969.116 737.894 969.357 737.477Z" fill="white"/>
<path opacity="0.35" d="M455.114 340.024C455.354 339.607 455.212 339.075 454.795 338.834C454.379 338.594 453.847 338.737 453.606 339.153C453.366 339.57 453.508 340.102 453.925 340.343C454.341 340.583 454.873 340.44 455.114 340.024Z" fill="white"/>
<path opacity="0.35" d="M1097.64 550.098C1097.88 549.682 1097.74 549.149 1097.32 548.909C1096.91 548.669 1096.37 548.811 1096.13 549.228C1095.89 549.644 1096.03 550.177 1096.45 550.417C1096.87 550.658 1097.4 550.515 1097.64 550.098Z" fill="white"/>
<path opacity="0.35" d="M661.115 157.293C661.356 156.877 661.213 156.344 660.797 156.104C660.381 155.863 659.848 156.006 659.608 156.423C659.367 156.839 659.51 157.372 659.926 157.612C660.342 157.852 660.875 157.71 661.115 157.293Z" fill="white"/>
<path opacity="0.35" d="M1077.51 236.812C1077.75 236.396 1077.61 235.863 1077.19 235.623C1076.78 235.382 1076.25 235.525 1076.01 235.942C1075.76 236.358 1075.91 236.891 1076.32 237.131C1076.74 237.371 1077.27 237.229 1077.51 236.812Z" fill="white"/>
<path opacity="0.35" d="M1289.88 77.8685C1290.12 77.452 1289.98 76.9195 1289.56 76.6792C1289.15 76.4388 1288.61 76.5816 1288.37 76.9982C1288.13 77.4147 1288.28 77.9472 1288.69 78.1875C1289.11 78.4279 1289.64 78.285 1289.88 77.8685Z" fill="white"/>
<path opacity="0.35" d="M382.612 1110.79C382.853 1110.37 382.71 1109.84 382.294 1109.6C381.878 1109.36 381.345 1109.5 381.105 1109.92C380.864 1110.33 381.007 1110.86 381.423 1111.1C381.839 1111.34 382.372 1111.2 382.612 1110.79Z" fill="white"/>
<path opacity="0.35" d="M600.69 1116.03C600.93 1115.61 600.788 1115.08 600.372 1114.84C599.955 1114.6 599.423 1114.74 599.182 1115.16C598.942 1115.57 599.085 1116.11 599.501 1116.35C599.917 1116.59 600.45 1116.44 600.69 1116.03Z" fill="white"/>
<path opacity="0.35" d="M988.95 1209.47C989.19 1209.05 989.048 1208.52 988.632 1208.28C988.215 1208.04 987.683 1208.18 987.442 1208.6C987.202 1209.01 987.345 1209.55 987.761 1209.79C988.177 1210.03 988.71 1209.88 988.95 1209.47Z" fill="white"/>
<path opacity="0.35" d="M1181.23 1189.76C1181.47 1189.34 1181.33 1188.81 1180.91 1188.57C1180.5 1188.33 1179.96 1188.47 1179.72 1188.89C1179.48 1189.3 1179.63 1189.84 1180.04 1190.08C1180.46 1190.32 1180.99 1190.18 1181.23 1189.76Z" fill="white"/>
<path opacity="0.35" d="M685.576 742.704C685.816 742.287 685.674 741.755 685.258 741.514C684.841 741.274 684.309 741.417 684.068 741.833C683.828 742.25 683.97 742.782 684.387 743.023C684.803 743.263 685.335 743.12 685.576 742.704Z" fill="white"/>
<path opacity="0.35" d="M995.276 780.732C995.516 780.315 995.374 779.783 994.958 779.543C994.541 779.302 994.009 779.445 993.768 779.862C993.528 780.278 993.67 780.811 994.087 781.051C994.503 781.291 995.035 781.148 995.276 780.732Z" fill="white"/>
<path opacity="0.35" d="M1303.81 838.195C1304.05 837.779 1303.9 837.246 1303.49 837.006C1303.07 836.765 1302.54 836.908 1302.3 837.325C1302.06 837.741 1302.2 838.274 1302.62 838.514C1303.03 838.755 1303.56 838.612 1303.81 838.195Z" fill="white"/>
<path opacity="0.35" d="M789.562 440.742C789.803 440.325 789.66 439.793 789.244 439.552C788.828 439.312 788.295 439.455 788.055 439.871C787.814 440.288 787.957 440.82 788.373 441.061C788.79 441.301 789.322 441.158 789.562 440.742Z" fill="white"/>
<path opacity="0.35" d="M1432.09 650.816C1432.33 650.4 1432.19 649.867 1431.77 649.627C1431.35 649.387 1430.82 649.529 1430.58 649.946C1430.34 650.362 1430.48 650.895 1430.9 651.135C1431.32 651.376 1431.85 651.233 1432.09 650.816Z" fill="white"/>
<path opacity="0.35" d="M995.564 258.011C995.804 257.595 995.662 257.062 995.245 256.822C994.829 256.581 994.297 256.724 994.056 257.141C993.816 257.557 993.958 258.09 994.375 258.33C994.791 258.57 995.323 258.428 995.564 258.011Z" fill="white"/>
<path opacity="0.35" d="M1411.96 337.53C1412.2 337.114 1412.06 336.581 1411.64 336.341C1411.23 336.1 1410.69 336.243 1410.45 336.66C1410.21 337.076 1410.36 337.609 1410.77 337.849C1411.19 338.089 1411.72 337.947 1411.96 337.53Z" fill="white"/>
<path opacity="0.35" d="M1286.82 84.2806C1287.06 83.8641 1286.92 83.3316 1286.5 83.0913C1286.09 82.8509 1285.55 82.9938 1285.31 83.4103C1285.07 83.8268 1285.21 84.3593 1285.63 84.5996C1286.05 84.84 1286.58 84.6971 1286.82 84.2806Z" fill="white"/>
<path opacity="0.35" d="M1624.33 178.586C1624.57 178.17 1624.43 177.637 1624.01 177.397C1623.59 177.157 1623.06 177.3 1622.82 177.716C1622.58 178.133 1622.72 178.665 1623.14 178.905C1623.56 179.146 1624.09 179.003 1624.33 178.586Z" fill="white"/>
<path opacity="0.6" d="M178.885 924.651C179.366 923.818 179.081 922.753 178.248 922.273C177.416 921.792 176.351 922.077 175.87 922.91C175.389 923.744 175.674 924.809 176.507 925.289C177.339 925.77 178.404 925.484 178.885 924.651Z" fill="white"/>
<path opacity="0.6" d="M822.069 994.328C822.55 993.495 822.265 992.43 821.432 991.949C820.599 991.469 819.535 991.754 819.054 992.587C818.573 993.42 818.858 994.485 819.69 994.966C820.523 995.447 821.588 995.161 822.069 994.328Z" fill="white"/>
<path opacity="0.6" d="M550.345 455.338C550.825 454.505 550.54 453.44 549.708 452.96C548.875 452.479 547.81 452.765 547.329 453.598C546.849 454.431 547.134 455.496 547.966 455.976C548.799 456.457 549.864 456.172 550.345 455.338Z" fill="white"/>
<path opacity="0.6" d="M1045.12 399.108C1045.6 398.275 1045.31 397.21 1044.48 396.729C1043.65 396.249 1042.58 396.534 1042.1 397.367C1041.62 398.2 1041.91 399.265 1042.74 399.746C1043.57 400.227 1044.64 399.941 1045.12 399.108Z" fill="white"/>
<path opacity="0.9" d="M28.8534 542.959C29.552 541.98 29.3256 540.621 28.3476 539.923C27.3696 539.224 26.0103 539.451 25.3116 540.43C24.613 541.409 24.8394 542.768 25.8174 543.466C26.7955 544.164 28.1547 543.937 28.8534 542.959Z" fill="white"/>
<path opacity="0.9" d="M900.78 280.055C902.137 281.567 904.807 282.44 906.744 282.004C908.682 281.569 909.152 279.989 907.795 278.477C906.438 276.965 903.767 276.092 901.83 276.528C899.893 276.963 899.423 278.543 900.78 280.055Z" fill="white"/>
<path d="M1162.68 363.464C1164.04 364.977 1166.71 365.85 1168.65 365.414C1170.59 364.978 1171.06 363.399 1169.7 361.887C1168.34 360.374 1165.67 359.501 1163.73 359.937C1161.8 360.373 1161.33 361.952 1162.68 363.464Z" fill="#00F0FF"/>
<path opacity="0.35" d="M946.51 1494.09C946.75 1493.67 946.608 1493.14 946.191 1492.9C945.775 1492.66 945.243 1492.8 945.002 1493.22C944.762 1493.63 944.904 1494.17 945.32 1494.41C945.737 1494.65 946.269 1494.5 946.51 1494.09Z" fill="white"/>
<path opacity="0.35" d="M1164.59 1499.33C1164.83 1498.91 1164.69 1498.38 1164.27 1498.14C1163.85 1497.9 1163.32 1498.04 1163.08 1498.46C1162.84 1498.87 1162.98 1499.41 1163.4 1499.65C1163.81 1499.89 1164.35 1499.74 1164.59 1499.33Z" fill="white"/>
<path opacity="0.35" d="M1552.85 1592.77C1553.09 1592.35 1552.95 1591.82 1552.53 1591.58C1552.11 1591.34 1551.58 1591.48 1551.34 1591.9C1551.1 1592.31 1551.24 1592.85 1551.66 1593.09C1552.07 1593.33 1552.61 1593.18 1552.85 1592.77Z" fill="white"/>
<path opacity="0.35" d="M1249.47 1126C1249.71 1125.59 1249.57 1125.06 1249.15 1124.82C1248.74 1124.58 1248.21 1124.72 1247.97 1125.13C1247.73 1125.55 1247.87 1126.08 1248.28 1126.32C1248.7 1126.56 1249.23 1126.42 1249.47 1126Z" fill="white"/>
<path opacity="0.35" d="M1559.17 1164.03C1559.41 1163.62 1559.27 1163.08 1558.86 1162.84C1558.44 1162.6 1557.91 1162.75 1557.67 1163.16C1557.43 1163.58 1557.57 1164.11 1557.98 1164.35C1558.4 1164.59 1558.93 1164.45 1559.17 1164.03Z" fill="white"/>
<path opacity="0.35" d="M1353.46 824.043C1353.7 823.626 1353.56 823.094 1353.14 822.854C1352.73 822.613 1352.19 822.756 1351.95 823.173C1351.71 823.589 1351.85 824.122 1352.27 824.362C1352.69 824.602 1353.22 824.459 1353.46 824.043Z" fill="white"/>
<path opacity="0.35" d="M1559.46 641.312C1559.7 640.896 1559.56 640.363 1559.14 640.123C1558.73 639.883 1558.19 640.025 1557.95 640.442C1557.71 640.858 1557.86 641.391 1558.27 641.631C1558.69 641.872 1559.22 641.729 1559.46 641.312Z" fill="white"/>
<path opacity="0.6" d="M1104.34 1528.64C1105.26 1528.37 1105.79 1527.41 1105.53 1526.48C1105.26 1525.56 1104.3 1525.02 1103.37 1525.29C1102.45 1525.56 1101.91 1526.52 1102.18 1527.44C1102.45 1528.37 1103.41 1528.9 1104.34 1528.64Z" fill="white"/>
<path opacity="0.6" d="M1519.03 2025.19C1519.96 2024.93 1520.49 2023.96 1520.22 2023.04C1519.96 2022.11 1518.99 2021.58 1518.07 2021.85C1517.15 2022.11 1516.61 2023.08 1516.88 2024C1517.14 2024.92 1518.11 2025.46 1519.03 2025.19Z" fill="white"/>
<path opacity="0.6" d="M1697.48 1448.56C1698.41 1448.3 1698.94 1447.33 1698.68 1446.41C1698.41 1445.49 1697.45 1444.95 1696.52 1445.22C1695.6 1445.48 1695.06 1446.45 1695.33 1447.37C1695.59 1448.3 1696.56 1448.83 1697.48 1448.56Z" fill="white"/>
<path opacity="0.35" d="M1439.16 1879.07C1439.4 1878.65 1439.26 1878.12 1438.85 1877.88C1438.43 1877.64 1437.9 1877.78 1437.66 1878.2C1437.42 1878.61 1437.56 1879.15 1437.97 1879.39C1438.39 1879.63 1438.92 1879.49 1439.16 1879.07Z" fill="white"/>
<path opacity="0.35" d="M1657.24 1884.31C1657.48 1883.89 1657.34 1883.36 1656.92 1883.12C1656.51 1882.88 1655.97 1883.02 1655.73 1883.44C1655.49 1883.86 1655.64 1884.39 1656.05 1884.63C1656.47 1884.87 1657 1884.73 1657.24 1884.31Z" fill="white"/>
<path opacity="0.6" d="M1569.88 1793.65C1570.37 1792.82 1570.08 1791.75 1569.25 1791.27C1568.42 1790.79 1567.35 1791.08 1566.87 1791.91C1566.39 1792.75 1566.67 1793.81 1567.51 1794.29C1568.34 1794.77 1569.4 1794.49 1569.88 1793.65Z" fill="white"/>
<path opacity="0.9" d="M1487.03 839.312C1487.87 838.137 1487.6 836.506 1486.43 835.668C1485.25 834.83 1483.62 835.103 1482.78 836.277C1481.95 837.451 1482.22 839.083 1483.39 839.92C1484.56 840.758 1486.2 840.486 1487.03 839.312Z" fill="white"/>
<path opacity="0.9" d="M1419.85 1411.96C1420.55 1410.98 1420.33 1409.62 1419.35 1408.92C1418.37 1408.23 1417.01 1408.45 1416.31 1409.43C1415.61 1410.41 1415.84 1411.77 1416.82 1412.47C1417.8 1413.17 1419.15 1412.94 1419.85 1411.96Z" fill="white"/>
<path d="M1441.51 678.401C1442.34 677.227 1442.07 675.596 1440.9 674.758C1439.72 673.92 1438.09 674.192 1437.26 675.367C1436.42 676.541 1436.69 678.172 1437.86 679.01C1439.04 679.848 1440.67 679.575 1441.51 678.401Z" fill="#00F0FF"/>
<path opacity="0.9" d="M1445.76 638.104C1446.89 639.364 1449.11 640.092 1450.73 639.729C1452.34 639.366 1452.73 638.05 1451.6 636.789C1450.47 635.529 1448.25 634.802 1446.63 635.165C1445.02 635.528 1444.63 636.844 1445.76 638.104Z" fill="white"/>
<path opacity="0.35" d="M953.275 1492.6C952.966 1492.3 952.437 1492.34 952.095 1492.7C951.752 1493.06 951.725 1493.59 952.035 1493.89C952.344 1494.19 952.872 1494.15 953.215 1493.79C953.557 1493.43 953.584 1492.9 953.275 1492.6Z" fill="white"/>
<path opacity="0.35" d="M1022.49 1284.98C1022.18 1284.68 1021.65 1284.72 1021.31 1285.08C1020.96 1285.44 1020.94 1285.97 1021.25 1286.27C1021.56 1286.57 1022.08 1286.52 1022.43 1286.17C1022.77 1285.81 1022.8 1285.28 1022.49 1284.98Z" fill="white"/>
<path opacity="0.35" d="M1222.45 929.478C1222.14 929.178 1221.61 929.224 1221.27 929.582C1220.93 929.94 1220.9 930.473 1221.21 930.773C1221.52 931.073 1222.05 931.027 1222.39 930.669C1222.73 930.311 1222.76 929.778 1222.45 929.478Z" fill="white"/>
<path opacity="0.35" d="M1261.28 742.323C1260.97 742.023 1260.44 742.069 1260.1 742.427C1259.76 742.785 1259.73 743.318 1260.04 743.618C1260.35 743.919 1260.88 743.872 1261.22 743.514C1261.56 743.156 1261.59 742.623 1261.28 742.323Z" fill="white"/>
<path opacity="0.35" d="M706.957 1141.02C706.647 1140.72 706.119 1140.77 705.777 1141.13C705.434 1141.48 705.407 1142.02 705.717 1142.32C706.026 1142.62 706.554 1142.57 706.896 1142.21C707.239 1141.86 707.266 1141.32 706.957 1141.02Z" fill="white"/>
<path opacity="0.35" d="M833.153 851.315C832.843 851.015 832.315 851.061 831.973 851.419C831.63 851.777 831.603 852.31 831.912 852.611C832.222 852.911 832.75 852.864 833.092 852.506C833.435 852.149 833.462 851.615 833.153 851.315Z" fill="white"/>
<path opacity="0.35" d="M976.735 565.996C976.425 565.696 975.897 565.742 975.555 566.1C975.212 566.458 975.185 566.991 975.495 567.292C975.804 567.592 976.332 567.545 976.674 567.187C977.017 566.83 977.044 566.296 976.735 565.996Z" fill="white"/>
<path opacity="0.35" d="M462.177 990.81C461.868 990.51 461.34 990.556 460.997 990.914C460.655 991.272 460.628 991.805 460.937 992.106C461.246 992.406 461.774 992.359 462.117 992.001C462.459 991.644 462.486 991.11 462.177 990.81Z" fill="white"/>
<path opacity="0.35" d="M843.676 411.826C843.367 411.526 842.839 411.573 842.496 411.931C842.154 412.288 842.127 412.822 842.436 413.122C842.745 413.422 843.274 413.376 843.616 413.018C843.959 412.66 843.985 412.127 843.676 411.826Z" fill="white"/>
<path opacity="0.35" d="M356.321 763.117C356.012 762.816 355.484 762.863 355.141 763.221C354.799 763.579 354.772 764.112 355.081 764.412C355.39 764.712 355.918 764.666 356.261 764.308C356.603 763.95 356.63 763.417 356.321 763.117Z" fill="white"/>
<path opacity="0.35" d="M551.896 378.375C551.586 378.075 551.058 378.121 550.716 378.479C550.373 378.837 550.346 379.37 550.656 379.67C550.965 379.971 551.493 379.924 551.835 379.566C552.178 379.208 552.205 378.675 551.896 378.375Z" fill="white"/>
<path opacity="0.35" d="M283.865 455.424C283.556 455.124 283.027 455.171 282.685 455.529C282.343 455.886 282.316 456.42 282.625 456.72C282.934 457.02 283.462 456.974 283.805 456.616C284.147 456.258 284.174 455.725 283.865 455.424Z" fill="white"/>
<path opacity="0.35" d="M469.623 148.595C469.314 148.295 468.786 148.342 468.443 148.699C468.101 149.057 468.074 149.591 468.383 149.891C468.692 150.191 469.221 150.144 469.563 149.787C469.906 149.429 469.933 148.895 469.623 148.595Z" fill="white"/>
<path opacity="0.35" d="M1121.03 2459.59C1120.69 2459.25 1120.13 2459.26 1119.8 2459.61C1119.47 2459.96 1119.48 2460.51 1119.82 2460.85C1120.17 2461.19 1120.72 2461.18 1121.06 2460.83C1121.39 2460.48 1121.38 2459.92 1121.03 2459.59Z" fill="white"/>
<path opacity="0.35" d="M1178.69 2247.71C1178.35 2247.37 1177.8 2247.38 1177.46 2247.73C1177.13 2248.08 1177.14 2248.63 1177.48 2248.97C1177.83 2249.3 1178.38 2249.29 1178.72 2248.95C1179.05 2248.6 1179.04 2248.04 1178.69 2247.71Z" fill="white"/>
<path opacity="0.35" d="M1362.98 1890.89C1362.63 1890.56 1362.08 1890.57 1361.75 1890.92C1361.41 1891.27 1361.42 1891.82 1361.77 1892.16C1362.12 1892.49 1362.67 1892.48 1363 1892.13C1363.34 1891.79 1363.33 1891.23 1362.98 1890.89Z" fill="white"/>
<path opacity="0.35" d="M1390.21 1698.17C1389.86 1697.83 1389.31 1697.84 1388.98 1698.19C1388.64 1698.54 1388.65 1699.09 1389 1699.43C1389.35 1699.77 1389.9 1699.76 1390.23 1699.41C1390.56 1699.06 1390.55 1698.5 1390.21 1698.17Z" fill="white"/>
<path opacity="0.35" d="M836.845 2074.09C836.499 2073.76 835.948 2073.77 835.614 2074.11C835.28 2074.46 835.29 2075.02 835.637 2075.35C835.983 2075.69 836.535 2075.68 836.868 2075.33C837.202 2074.98 837.192 2074.43 836.845 2074.09Z" fill="white"/>
<path opacity="0.35" d="M948.415 1780.61C948.068 1780.28 947.517 1780.29 947.183 1780.64C946.849 1780.99 946.86 1781.54 947.206 1781.88C947.553 1782.21 948.104 1782.2 948.438 1781.85C948.771 1781.51 948.761 1780.95 948.415 1780.61Z" fill="white"/>
<path opacity="0.35" d="M1078.56 1493C1078.22 1492.66 1077.67 1492.67 1077.33 1493.02C1077 1493.37 1077.01 1493.93 1077.35 1494.26C1077.7 1494.6 1078.25 1494.59 1078.59 1494.24C1078.92 1493.89 1078.91 1493.34 1078.56 1493Z" fill="white"/>
<path opacity="0.35" d="M568.859 1899.14C568.513 1898.8 567.961 1898.81 567.628 1899.16C567.294 1899.51 567.304 1900.06 567.651 1900.4C567.997 1900.73 568.548 1900.72 568.882 1900.38C569.216 1900.03 569.205 1899.47 568.859 1899.14Z" fill="white"/>
<path opacity="0.35" d="M927.638 1322.12C927.291 1321.78 926.74 1321.79 926.406 1322.14C926.073 1322.49 926.083 1323.04 926.429 1323.38C926.776 1323.71 927.327 1323.7 927.661 1323.36C927.995 1323.01 927.984 1322.45 927.638 1322.12Z" fill="white"/>
<path opacity="0.35" d="M441.181 1653.42C440.834 1653.08 440.283 1653.09 439.949 1653.44C439.616 1653.79 439.626 1654.34 439.972 1654.68C440.319 1655.01 440.87 1655 441.204 1654.66C441.538 1654.31 441.527 1653.75 441.181 1653.42Z" fill="white"/>
<path opacity="0.35" d="M618.74 1265.72C618.393 1265.39 617.842 1265.4 617.508 1265.74C617.174 1266.09 617.185 1266.65 617.531 1266.98C617.878 1267.32 618.429 1267.31 618.763 1266.96C619.096 1266.61 619.086 1266.06 618.74 1265.72Z" fill="white"/>
<path opacity="0.35" d="M342.791 1326.55C342.444 1326.21 341.893 1326.22 341.559 1326.57C341.225 1326.92 341.236 1327.48 341.582 1327.81C341.929 1328.15 342.48 1328.14 342.814 1327.79C343.147 1327.44 343.137 1326.89 342.791 1326.55Z" fill="white"/>
<path opacity="0.35" d="M515.682 1019.56C515.335 1019.22 514.784 1019.23 514.45 1019.58C514.117 1019.93 514.127 1020.48 514.473 1020.82C514.82 1021.15 515.371 1021.14 515.705 1020.8C516.039 1020.45 516.028 1019.89 515.682 1019.56Z" fill="white"/>
<path opacity="0.9" d="M1499.38 2259.83C1500.56 2258.97 1501.38 2257.14 1501.22 2255.72C1501.06 2254.31 1499.98 2253.86 1498.8 2254.71C1497.63 2255.57 1496.8 2257.4 1496.96 2258.82C1497.12 2260.23 1498.21 2260.68 1499.38 2259.83Z" fill="white"/>
<path d="M1578.44 2079.35C1579.62 2078.5 1580.44 2076.66 1580.28 2075.25C1580.12 2073.84 1579.04 2073.38 1577.86 2074.24C1576.69 2075.09 1575.87 2076.93 1576.03 2078.34C1576.19 2079.76 1577.27 2080.21 1578.44 2079.35Z" fill="#00F0FF"/>
<path opacity="0.22" d="M1224 784.56C1418.96 784.56 1577 640.72 1577 463.283C1577 285.847 1418.96 142.006 1224 142.006C1029.04 142.006 871 285.847 871 463.283C871 640.72 1029.04 784.56 1224 784.56Z" stroke="#00F0FF"/>
<path opacity="0.22" d="M1307.05 720.478C1572.11 633.787 1749.74 448.156 1703.81 305.858C1657.88 163.561 1405.77 118.483 1140.72 205.174C875.658 291.865 698.022 477.497 743.954 619.794C789.885 762.092 1041.99 807.169 1307.05 720.478Z" stroke="#00F0FF"/>
<path opacity="0.35" d="M1143.45 843.752C1497.84 919.577 1821.14 810.499 1865.56 600.12C1909.99 389.741 1658.71 157.727 1304.32 81.9013C949.93 6.07601 626.627 115.153 582.203 325.533C537.779 535.912 789.056 767.926 1143.45 843.752Z" stroke="#00F0FF" stroke-width="1.2"/>
</svg>
